<svg width="72" height="72" viewBox="0 0 72 72" fill="none" xmlns="http://www.w3.org/2000/svg">
<path d="M46 35C47.4 35 48.584 34.516 49.552 33.548C50.52 32.58 51.0026 31.3973 51 30C50.9973 28.6026 50.5133 27.4186 49.548 26.448C48.5826 25.4773 47.4 24.9946 46 25C44.6 25.0053 43.416 25.4893 42.448 26.452C41.48 27.4146 40.9973 28.5973 41 30C41.0026 31.4026 41.4866 32.5866 42.452 33.552C43.4173 34.5173 44.6 35 46 35ZM26 35C27.4 35 28.584 34.516 29.552 33.548C30.52 32.58 31.0026 31.3973 31 30C30.9973 28.6026 30.5133 27.4186 29.548 26.448C28.5827 25.4773 27.4 24.9946 26 25C24.6 25.0053 23.416 25.4893 22.448 26.452C21.48 27.4146 20.9973 28.5973 21 30C21.0027 31.4026 21.4867 32.5866 22.452 33.552C23.4173 34.5173 24.6 35 26 35ZM36 55.9999C40 55.9999 43.6173 54.8999 46.852 52.6999C50.0866 50.4999 52.4693 47.5999 54 44H18C19.5333 47.5999 21.9173 50.4999 25.152 52.6999C28.3867 54.8999 32.0026 55.9999 36 55.9999ZM36 71.9999C31 71.9999 26.3173 71.0506 21.952 69.1519C17.5867 67.2533 13.7867 64.6866 10.552 61.4519C7.31733 58.2173 4.75067 54.4173 2.852 50.0519C0.953338 45.6866 0.00267226 41.0026 5.5944e-06 36C-0.00266107 30.9973 0.948005 26.3146 2.852 21.952C4.756 17.5893 7.32133 13.7893 10.548 10.552C13.7747 7.31468 17.5747 4.74801 21.948 2.85202C26.3213 0.956021 31.0053 0.00535564 36 2.23152e-05C40.9946 -0.00531101 45.6786 0.945354 50.052 2.85202C54.4253 4.75868 58.2253 7.32401 61.452 10.548C64.6786 13.772 67.2453 17.572 69.152 21.948C71.0586 26.324 72.008 31.008 72 36C71.992 40.992 71.0426 45.6759 69.152 50.0519C67.2613 54.4279 64.6946 58.2279 61.452 61.4519C58.2093 64.6759 54.4093 67.2426 50.052 69.1519C45.6946 71.0612 41.0106 72.0106 36 71.9999ZM37.6 22C38.7333 22 40.0173 21.784 41.452 21.352C42.8866 20.92 43.6026 19.936 43.6 18.4C43.6 17.6 43.3333 16.9 42.8 16.3C42.2666 15.7 41.6 15.4 40.8 15.4C40.2666 15.4 39.7506 15.5 39.252 15.7C38.7533 15.9 38.2026 16 37.6 16C36.2 16 35.0173 15.5173 34.052 14.552C33.0866 13.5867 32.6026 12.4027 32.6 11C32.6 10.2667 32.7173 9.65067 32.952 9.15201C33.1866 8.65334 33.536 8.30268 34 8.10001C32.7333 8.23334 31.5 8.40001 30.3 8.60001C29.1 8.80001 27.9333 9.13334 26.8 9.60001C26.7333 9.80001 26.6827 10.0333 26.648 10.3C26.6133 10.5667 26.5973 10.8 26.6 11C26.6 14 27.684 16.584 29.852 18.752C32.02 20.92 34.6026 22.0027 37.6 22Z" fill="#760202"/>
</svg>
