<svg width="42" height="42" viewBox="0 0 42 42" fill="none" xmlns="http://www.w3.org/2000/svg">
<path d="M24.15 42C20.37 42 17.15 40.67 14.49 38.01C11.83 35.35 10.5 32.13 10.5 28.35V27.1425C7.49 26.6525 4.9875 25.2434 2.9925 22.9152C0.9975 20.587 0 17.8486 0 14.7V2.1H6.3V0H10.5V8.4H6.3V6.3H4.2V14.7C4.2 17.01 5.0225 18.9875 6.6675 20.6325C8.3125 22.2775 10.29 23.1 12.6 23.1C14.91 23.1 16.8875 22.2775 18.5325 20.6325C20.1775 18.9875 21 17.01 21 14.7V6.3H18.9V8.4H14.7V0H18.9V2.1H25.2V14.7C25.2 17.85 24.2025 20.5891 22.2075 22.9173C20.2125 25.2455 17.71 26.6539 14.7 27.1425V28.35C14.7 30.975 15.6191 33.2066 17.4573 35.0448C19.2955 36.883 21.5264 37.8014 24.15 37.8C26.7736 37.7986 29.0052 36.8802 30.8448 35.0448C32.6844 33.2094 33.6028 30.9778 33.6 28.35V24.8325C32.375 24.4125 31.3691 23.66 30.5823 22.575C29.7955 21.49 29.4014 20.265 29.4 18.9C29.4 17.15 30.0125 15.6625 31.2375 14.4375C32.4625 13.2125 33.95 12.6 35.7 12.6C37.45 12.6 38.9375 13.2125 40.1625 14.4375C41.3875 15.6625 42 17.15 42 18.9C42 20.265 41.6066 21.49 40.8198 22.575C40.033 23.66 39.0264 24.4125 37.8 24.8325V28.35C37.8 32.13 36.47 35.35 33.81 38.01C31.15 40.67 27.93 42 24.15 42Z" fill="#4A3638"/>
</svg>
