<svg width="71" height="71" viewBox="0 0 71 71" fill="none" xmlns="http://www.w3.org/2000/svg">
<path fill-rule="evenodd" clip-rule="evenodd" d="M35.25 0C38.4084 0 41.4681 0.41595 44.3798 1.19498L36.8856 8.6856C36.3171 9.25641 35.8156 9.89032 35.391 10.575H35.25C30.3697 10.575 25.5991 12.0222 21.5413 14.7335C17.4835 17.4448 14.3209 21.2985 12.4533 25.8073C10.5857 30.3161 10.097 35.2774 11.0491 40.0639C12.0012 44.8503 14.3513 49.247 17.8021 52.6979C21.253 56.1487 25.6497 58.4988 30.4361 59.4509C35.2226 60.403 40.1839 59.9143 44.6927 58.0467C49.2015 56.1791 53.0552 53.0165 55.7665 48.9587C58.4778 44.9009 59.925 40.1303 59.925 35.25V35.109C60.6065 34.686 61.2351 34.1866 61.8109 33.6109L69.305 26.1203C70.084 29.0319 70.5 32.0916 70.5 35.25C70.5 54.7186 54.7186 70.5 35.25 70.5C15.7814 70.5 0 54.7186 0 35.25C0 15.7814 15.7814 0 35.25 0Z" fill="#760202"/>
<path d="M33.7598 20.5983C33.7752 19.6248 33.7907 18.6526 33.7907 17.6849C30.4407 17.9634 27.2402 19.194 24.5667 21.2317C21.8932 23.2694 19.8582 26.0291 18.7017 29.1854C17.5451 32.3416 17.3153 35.7628 18.0393 39.0454C18.7633 42.3281 20.411 45.3352 22.7879 47.7121C25.1648 50.0891 28.1719 51.7367 31.4546 52.4607C34.7372 53.1847 38.1584 52.9549 41.3146 51.7983C44.4709 50.6418 47.2306 48.6068 49.2683 45.9333C51.306 43.2598 52.5366 40.0593 52.8151 36.7094C51.8458 36.7094 50.8729 36.7248 49.899 36.7402C47.855 36.7726 45.8063 36.8051 43.777 36.6953L41.8735 38.5988C41.2187 39.2535 40.4413 39.7729 39.5858 40.1273C38.7303 40.4817 37.8134 40.6641 36.8874 40.6641C35.9614 40.6641 35.0444 40.4817 34.1889 40.1273C33.3334 39.7729 32.556 39.2535 31.9013 38.5988C31.2465 37.944 30.7271 37.1666 30.3727 36.3111C30.0183 35.4556 29.8359 34.5386 29.8359 33.6126C29.8359 32.6866 30.0183 31.7697 30.3727 30.9142C30.7271 30.0587 31.2465 29.2813 31.9013 28.6265L33.8048 26.723C33.6949 24.6934 33.7274 22.6427 33.7598 20.5983Z" fill="#FF0000"/>
<path fill-rule="evenodd" clip-rule="evenodd" d="M58.1766 0.447675C58.82 0.714444 59.37 1.16585 59.7571 1.74491C60.1441 2.32397 60.351 3.00473 60.3515 3.70125V10.152H66.7988C67.4958 10.1521 68.1772 10.359 68.7567 10.7463C69.3363 11.1337 69.788 11.6841 70.0547 12.3281C70.3215 12.9722 70.3913 13.6808 70.2553 14.3645C70.1194 15.0482 69.7838 15.6762 69.2909 16.1692L56.823 28.623C56.1621 29.2841 55.2656 29.6556 54.3308 29.6558H45.825L39.3813 36.1031C38.7199 36.7645 37.8228 37.1361 36.8874 37.1361C35.952 37.1361 35.0549 36.7645 34.3934 36.1031C33.732 35.4416 33.3604 34.5445 33.3604 33.6091C33.3604 32.6737 33.732 31.7766 34.3934 31.1152L40.8407 24.675V16.1656C40.8403 15.7022 40.9313 15.2432 41.1085 14.815C41.2858 14.3867 41.5457 13.9976 41.8735 13.6699L54.3344 1.20907C54.8273 0.715812 55.4555 0.379848 56.1394 0.243688C56.8234 0.107528 57.5323 0.180816 58.1766 0.447675Z" fill="#792222"/>
</svg>
