<svg width="52" height="51" viewBox="0 0 52 51" fill="none" xmlns="http://www.w3.org/2000/svg">
<path fill-rule="evenodd" clip-rule="evenodd" d="M23.5814 0H28.4186C32.9801 0 35.2584 -1.4416e-07 36.6757 1.4173C38.093 2.8346 38.093 5.11293 38.093 9.67442V46.5581H50.186C50.6671 46.5581 51.1285 46.7492 51.4687 47.0894C51.8089 47.4296 52 47.891 52 48.3721C52 48.8532 51.8089 49.3146 51.4687 49.6548C51.1285 49.9949 50.6671 50.186 50.186 50.186H1.81395C1.33286 50.186 0.871477 49.9949 0.531295 49.6548C0.191112 49.3146 0 48.8532 0 48.3721C0 47.891 0.191112 47.4296 0.531295 47.0894C0.871477 46.7492 1.33286 46.5581 1.81395 46.5581H13.907V9.67442C13.907 5.11293 13.907 2.8346 15.3243 1.4173C16.7416 -1.4416e-07 19.0199 0 23.5814 0ZM26 5.44186C26.4811 5.44186 26.9425 5.63297 27.2827 5.97316C27.6228 6.31334 27.814 6.77472 27.814 7.25581V10.2791H30.8372C31.3183 10.2791 31.7797 10.4702 32.1199 10.8104C32.46 11.1505 32.6512 11.6119 32.6512 12.093C32.6512 12.5741 32.46 13.0355 32.1199 13.3757C31.7797 13.7159 31.3183 13.907 30.8372 13.907H27.814V16.9302C27.814 17.4113 27.6228 17.8727 27.2827 18.2129C26.9425 18.5531 26.4811 18.7442 26 18.7442C25.5189 18.7442 25.0575 18.5531 24.7173 18.2129C24.3772 17.8727 24.186 17.4113 24.186 16.9302V13.907H21.1628C20.6817 13.907 20.2203 13.7159 19.8801 13.3757C19.5399 13.0355 19.3488 12.5741 19.3488 12.093C19.3488 11.6119 19.5399 11.1505 19.8801 10.8104C20.2203 10.4702 20.6817 10.2791 21.1628 10.2791H24.186V7.25581C24.186 6.77472 24.3772 6.31334 24.7173 5.97316C25.0575 5.63297 25.5189 5.44186 26 5.44186ZM19.3488 24.186C19.3488 23.705 19.5399 23.2436 19.8801 22.9034C20.2203 22.5632 20.6817 22.3721 21.1628 22.3721H30.8372C31.3183 22.3721 31.7797 22.5632 32.1199 22.9034C32.46 23.2436 32.6512 23.705 32.6512 24.186C32.6512 24.6671 32.46 25.1285 32.1199 25.4687C31.7797 25.8089 31.3183 26 30.8372 26H21.1628C20.6817 26 20.2203 25.8089 19.8801 25.4687C19.5399 25.1285 19.3488 24.6671 19.3488 24.186ZM19.3488 31.4419C19.3488 30.9608 19.5399 30.4994 19.8801 30.1592C20.2203 29.819 20.6817 29.6279 21.1628 29.6279H30.8372C31.3183 29.6279 31.7797 29.819 32.1199 30.1592C32.46 30.4994 32.6512 30.9608 32.6512 31.4419C32.6512 31.923 32.46 32.3843 32.1199 32.7245C31.7797 33.0647 31.3183 33.2558 30.8372 33.2558H21.1628C20.6817 33.2558 20.2203 33.0647 19.8801 32.7245C19.5399 32.3843 19.3488 31.923 19.3488 31.4419ZM26 39.3023C26.4811 39.3023 26.9425 39.4934 27.2827 39.8336C27.6228 40.1738 27.814 40.6352 27.814 41.1163V46.5581H24.186V41.1163C24.186 40.6352 24.3772 40.1738 24.7173 39.8336C25.0575 39.4934 25.5189 39.3023 26 39.3023Z" fill="#4A3638"/>
<path opacity="0.5" d="M48.1617 9.406C48.9767 10.625 48.9767 12.3228 48.9767 15.721V46.5582H50.186C50.6671 46.5582 51.1285 46.7493 51.4687 47.0895C51.8089 47.4297 52 47.891 52 48.3721C52 48.8532 51.8089 49.3146 51.4687 49.6548C51.1285 49.995 50.6671 50.1861 50.186 50.1861H1.81395C1.33286 50.1861 0.871477 49.995 0.531295 49.6548C0.191112 49.3146 0 48.8532 0 48.3721C0 47.891 0.191112 47.4297 0.531295 47.0895C0.871477 46.7493 1.33286 46.5582 1.81395 46.5582H3.02326V15.721C3.02326 12.3228 3.02326 10.625 3.83833 9.406C4.19133 8.8776 4.645 8.42394 5.1734 8.07093C6.24 7.35744 11.3094 7.26795 13.9239 7.25828C13.9158 7.9629 13.9126 8.69654 13.9142 9.45921V12.6977H7.86047C7.37937 12.6977 6.91799 12.8888 6.57781 13.229C6.23762 13.5692 6.04651 14.0306 6.04651 14.5117C6.04651 14.9928 6.23762 15.4541 6.57781 15.7943C6.91799 16.1345 7.37937 16.3256 7.86047 16.3256H13.9142V19.9535H7.86047C7.37937 19.9535 6.91799 20.1446 6.57781 20.4848C6.23762 20.825 6.04651 21.2864 6.04651 21.7675C6.04651 22.2486 6.23762 22.71 6.57781 23.0501C6.91799 23.3903 7.37937 23.5814 7.86047 23.5814H13.9142V27.2093H7.86047C7.37937 27.2093 6.91799 27.4005 6.57781 27.7406C6.23762 28.0808 6.04651 28.5422 6.04651 29.0233C6.04651 29.5044 6.23762 29.9658 6.57781 30.306C6.91799 30.6461 7.37937 30.8373 7.86047 30.8373H13.9142V46.5582H38.1003V30.8373H44.1395C44.6206 30.8373 45.082 30.6461 45.4222 30.306C45.7624 29.9658 45.9535 29.5044 45.9535 29.0233C45.9535 28.5422 45.7624 28.0808 45.4222 27.7406C45.082 27.4005 44.6206 27.2093 44.1395 27.2093H38.1003V23.5814H44.1395C44.6206 23.5814 45.082 23.3903 45.4222 23.0501C45.7624 22.71 45.9535 22.2486 45.9535 21.7675C45.9535 21.2864 45.7624 20.825 45.4222 20.4848C45.082 20.1446 44.6206 19.9535 44.1395 19.9535H38.1003V16.3256H44.1395C44.6206 16.3256 45.082 16.1345 45.4222 15.7943C45.7624 15.4541 45.9535 14.9928 45.9535 14.5117C45.9535 14.0306 45.7624 13.5692 45.4222 13.229C45.082 12.8888 44.6206 12.6977 44.1395 12.6977H38.1003V9.45679C38.1019 8.69735 38.0987 7.9637 38.0906 7.25586C40.7051 7.26795 45.7576 7.35744 46.8266 8.07093C47.355 8.42394 47.8087 8.8776 48.1617 9.406Z" fill="#4A3638"/>
</svg>
