<svg width="214" height="77" viewBox="0 0 214 77" fill="none" xmlns="http://www.w3.org/2000/svg">
<path d="M76.9978 38.4932C76.9978 59.7533 59.7648 76.9863 38.5046 76.9863C36.8754 76.9863 35.2691 76.8831 33.6858 76.688L33.2613 76.6307C32.4467 76.5159 31.6436 76.3897 30.8519 76.2291C30.806 76.2176 30.7486 76.2061 30.7027 76.1947C30.3471 76.1258 29.9914 76.0455 29.6472 75.9652C26.7559 75.2883 23.9794 74.2786 21.3749 72.9821C10.6702 67.6585 2.78803 57.4816 0.608091 45.3313C0.29831 43.6218 0.103262 41.8778 0.0344222 40.0994C0.0114755 39.5717 0 39.0324 0 38.4932C0 35.556 0.33273 32.6991 0.952292 29.9455C4.84177 12.8043 20.1702 0 38.4932 0C46.5245 0 53.9937 2.46678 60.1664 6.6775C61.2563 7.42327 62.3119 8.22641 63.3215 9.07544C71.6856 16.1316 76.9978 26.6985 76.9978 38.4932Z" fill="#A58B83"/>
<path d="M72.4429 37.9424C72.1216 39.2848 59.4206 54.6936 59.4206 54.6936L49.8633 59.1911L42.8989 62.4725L33.8809 76.3897L33.6858 76.688L33.2613 76.6306C32.4467 76.5159 31.6436 76.3897 30.8519 76.2291C30.806 76.2176 30.7486 76.2061 30.7027 76.1947C30.3471 76.1258 29.9914 76.0455 29.6472 75.9652C26.7559 75.2883 23.9794 74.2786 21.3749 72.9821C10.6702 67.6585 2.78803 57.4816 0.608092 45.3313C0.298311 43.6218 0.103264 41.8778 0.0344238 40.0994C1.15881 42.0958 3.7059 45.8017 6.83813 45.4231C21.329 43.6447 26.056 23.7384 33.0433 16.4069C38.8603 10.3031 43.725 9.91299 45.1821 9.95888C45.4805 9.97036 45.6411 9.9933 45.6411 9.9933L54.7968 8.18051C54.7968 8.18051 67.0274 14.6171 67.0274 15.0645C67.0274 15.512 72.7641 36.6001 72.4429 37.9424Z" fill="#4A3638"/>
<path d="M72.4429 37.9424C72.1216 39.2848 59.4206 54.6936 59.4206 54.6936L49.8633 59.1911L42.8989 62.4725L33.8809 76.3897L33.6858 76.688L33.2613 76.6306C32.4467 76.5159 31.6436 76.3897 30.8519 76.2291C30.806 76.2176 30.7486 76.2061 30.7027 76.1947C30.3471 76.1258 29.9914 76.0455 29.6472 75.9652C26.7559 75.2883 23.9794 74.2786 21.3749 72.9821C10.6702 67.6585 2.78803 57.4816 0.608092 45.3313C0.298311 43.6218 0.103264 41.8778 0.0344238 40.0994C1.15881 42.0958 3.7059 45.8017 6.83813 45.4231C21.329 43.6447 26.056 23.7384 33.0433 16.4069C38.8603 10.3031 43.725 9.91299 45.1821 9.95888C45.4805 9.97036 45.6411 9.9933 45.6411 9.9933L54.7968 8.18051C54.7968 8.18051 67.0274 14.6171 67.0274 15.0645C67.0274 15.512 72.7641 36.6001 72.4429 37.9424Z" fill="url(#paint0_linear_2_3)"/>
<path d="M55.6344 44.5052L63.1036 52.7201L68.8861 45.251L67.3946 34.4316L60.109 37.0475L55.6344 44.5052Z" fill="#EE8A6D"/>
<path d="M55.6344 44.5052L63.1036 52.7201L68.8861 45.251L67.3946 34.4316L60.109 37.0475L55.6344 44.5052Z" fill="url(#paint1_linear_2_3)"/>
<path d="M41.4074 30.7831C42.6695 32.6417 44.5396 34.1792 45.1936 36.3362C45.5034 37.3802 45.5034 38.5046 45.8017 39.5602C46.2606 41.2124 47.4195 42.5777 48.5553 43.8627C50.3337 45.8705 52.4104 47.9816 55.0837 48.1882C57.08 48.3373 58.9961 47.3621 60.6253 46.1918C62.4496 44.8724 64.0788 43.2317 65.1114 41.2468C66.3849 38.8259 66.7177 36.0149 66.7521 33.2728C66.8209 28.6949 66.0637 23.9908 63.7805 20.021C61.4973 16.0512 57.516 12.8961 52.9611 12.3798C49.1978 11.9553 45.687 13.5501 43.2202 16.3266C42.3597 17.2904 41.4189 18.1279 40.8452 19.3097C40.0191 21.0077 39.5602 22.8664 39.5831 24.7595C39.6061 26.8936 40.2027 29.0162 41.4074 30.7831Z" fill="#EE8A6D"/>
<path d="M43.5874 42.0844C43.5185 42.2335 49.0716 41.6598 48.9798 41.1321C48.4635 38.1949 47.7981 35.9232 47.2818 32.986C47.1556 32.2631 46.9835 31.4715 46.3639 30.9437C45.9164 30.5651 44.9871 30.4159 44.5741 30.806C44.2184 31.1502 44.5052 31.8042 44.597 32.2287C44.8953 33.6629 46.0427 37.1049 43.5874 42.0844Z" fill="#EE8A6D"/>
<path d="M47.2473 17.8985C47.2473 24.335 43.2546 29.8652 37.5294 32.2861C35.4642 29.7963 34.2365 26.6067 34.2365 23.1303C34.2365 16.579 38.6308 11.0489 44.6199 9.32785C46.2836 11.7946 47.2473 14.7433 47.2473 17.8985Z" fill="#4A3638"/>
<path d="M19.6883 46.0885L22.5452 45.9623L22.3731 42.0958C22.3042 40.5239 20.9733 39.2963 19.39 39.3651C17.8182 39.434 16.5905 40.7649 16.6593 42.3482L16.7052 43.3579C16.7741 44.9412 18.105 46.1574 19.6883 46.0885Z" fill="#EE8A6D"/>
<path d="M49.8977 59.696C50.2763 68.5305 43.4382 75.9996 34.6037 76.3782C25.7692 76.7569 18.3 69.9187 17.9214 61.0842C17.8985 60.4647 17.8985 59.8566 17.9444 59.26C18.0017 58.3995 18.1279 57.5504 18.323 56.7244C19.9178 49.9206 25.8839 44.7117 33.2154 44.402C38.8259 44.161 43.8971 46.8343 46.9376 51.0909C47.8669 52.3874 48.6012 53.8216 49.1175 55.3705C49.5535 56.7358 49.8289 58.1815 49.8977 59.696Z" fill="#160B05"/>
<path d="M49.106 55.359C48.5438 63.3674 42.0499 69.8614 33.835 70.217C26.515 70.5383 20.1243 65.8801 17.9444 59.2485C18.0017 58.388 18.1279 57.539 18.323 56.7129C19.9178 49.9206 25.8839 44.7117 33.2154 44.402C38.8259 44.161 43.8971 46.8343 46.9376 51.0909C47.8554 52.3759 48.6012 53.8101 49.106 55.359Z" fill="#A58B83"/>
<path d="M46.9376 51.0795C45.3428 57.8832 39.3766 63.0921 32.0451 63.4133C26.4347 63.6543 21.3634 60.981 18.323 56.7244C19.9178 49.9206 25.8839 44.7117 33.2154 44.402C38.8259 44.1495 43.8857 46.8343 46.9376 51.0795Z" fill="#E4DEE9"/>
<path d="M32.1369 58.1241C36.845 58.1241 40.6616 54.3075 40.6616 49.5994C40.6616 44.8913 36.845 41.0747 32.1369 41.0747C27.4289 41.0747 23.6122 44.8913 23.6122 49.5994C23.6122 54.3075 27.4289 58.1241 32.1369 58.1241Z" fill="#160B05"/>
<path d="M43.8512 44.9527C44.1036 50.7352 38.9177 55.6459 32.2746 55.9327C25.6315 56.2195 20.044 51.7679 19.7916 45.9967C19.7457 45.0445 19.8604 44.1036 20.1013 43.2087C20.2505 42.6465 20.3308 42.0843 20.3538 41.5107C20.3767 40.9026 20.3308 40.283 20.2161 39.6749C20.1358 39.216 20.0784 38.7571 20.0555 38.2752C19.9637 36.1985 20.5029 34.2251 21.5011 32.527C21.6732 32.2402 21.8568 31.9533 22.0633 31.678C22.4075 31.1961 22.7976 30.7486 23.2221 30.3241C23.5778 29.9684 23.9564 29.6357 24.358 29.3259C25.5627 28.4081 26.9624 27.7197 28.4884 27.3181C29.2342 27.123 30.0143 26.9968 30.8175 26.9509C30.8863 26.9509 30.9552 26.9395 31.024 26.9395C32.2172 26.8821 33.3875 27.0083 34.4775 27.2837C34.7758 27.364 35.0741 27.4443 35.3724 27.5476C36.4624 27.9147 37.472 28.431 38.3899 29.085C39.2045 29.6701 39.9388 30.3471 40.5698 31.1158C41.9696 32.8253 42.8301 34.9479 42.9334 37.277C42.9563 37.7474 42.9448 38.2178 42.8989 38.6767C42.853 39.2275 42.8416 39.7897 42.8989 40.3404C42.9678 40.9714 43.094 41.591 43.312 42.1876C43.6218 43.071 43.8168 43.9889 43.8512 44.9527Z" fill="#EE8A6D"/>
<path d="M42.8875 38.6882C42.9334 38.2293 42.9448 37.7589 42.9219 37.2885C42.8186 34.9594 41.9581 32.8368 40.5584 31.1273C39.9273 30.3585 39.2045 29.6701 38.3784 29.0965C37.472 28.454 36.4509 27.9262 35.3609 27.559C35.0741 27.4558 34.7758 27.3755 34.466 27.2952C35.4298 25.3676 35.7969 23.1877 34.5234 21.6388C34.0071 21.0077 33.1925 20.6635 32.3893 20.5259C29.3833 19.9866 26.1593 22.201 25.5856 25.207C26.2511 23.899 27.4673 22.8894 28.867 22.4534C30.1061 22.0748 31.7468 22.3272 32.2287 23.5319C32.5959 24.4727 32.0796 25.5168 31.4485 26.297C31.2535 26.5379 31.0469 26.7674 30.8175 26.9739C30.6798 26.9854 30.5421 26.9854 30.4044 27.0083C30.3356 27.0198 30.2668 27.0198 30.1979 27.0313C30.0602 27.0427 29.934 27.0657 29.7963 27.0772C29.716 27.0886 29.6357 27.1001 29.5554 27.1116C29.4292 27.1345 29.3145 27.1575 29.1883 27.1804C29.1079 27.1919 29.0391 27.2148 28.9588 27.2263C28.8326 27.2493 28.7064 27.2837 28.5802 27.3181C28.5458 27.3296 28.5113 27.3296 28.4769 27.341C26.951 27.7426 25.5512 28.431 24.3465 29.3489C24.3236 29.3718 24.3006 29.3833 24.2777 29.4063C24.1285 29.521 23.9794 29.6357 23.8417 29.7619C23.7958 29.8078 23.7499 29.8422 23.704 29.8881C23.5319 30.0373 23.3713 30.1864 23.2106 30.3471C23.0615 30.4962 22.9238 30.6454 22.7861 30.806C22.7517 30.8404 22.7288 30.8748 22.6943 30.9093C22.5567 31.0584 22.4304 31.219 22.3157 31.3682C22.2928 31.4026 22.2698 31.437 22.2354 31.4715C22.178 31.5518 22.1207 31.6206 22.0633 31.7009C21.8683 31.9763 21.6732 32.2516 21.5011 32.55C20.5029 34.248 19.9637 36.21 20.0555 38.2981C20.0784 38.7685 20.1243 39.2389 20.2161 39.6979C20.3308 40.306 20.3767 40.9255 20.3538 41.5336C22.9926 40.937 25.0005 38.7456 25.3562 36.0493C26.3084 36.428 27.3525 36.623 28.4425 36.5771C30.4618 36.4853 32.2517 35.6019 33.5367 34.2365C34.0759 34.3628 34.6496 34.4086 35.2347 34.3857C35.9461 34.3513 36.623 34.2136 37.2426 33.9727C37.5982 37.1278 39.9044 39.6635 42.8989 40.3748C42.8301 39.8011 42.8416 39.2389 42.8875 38.6882Z" fill="url(#paint2_linear_2_3)"/>
<path d="M51.1024 43.06C51.1024 43.06 55.2908 43.9551 55.2908 40.2142" stroke="black" stroke-width="0.8" stroke-miterlimit="10" stroke-linecap="round" stroke-linejoin="round"/>
<path d="M49.5191 32.0799C50.0699 32.252 50.6207 32.3438 51.183 32.3668C51.7338 32.3897 52.2846 32.3094 52.7895 32.1143C53.0419 32.0225 53.2714 31.8734 53.4895 31.7127C53.6042 31.6324 53.7075 31.5406 53.7993 31.4488C53.8452 31.4029 53.8911 31.3455 53.9485 31.2996C53.9944 31.2537 54.0403 31.2078 54.0862 31.1504C54.4419 30.7373 54.7403 30.2439 54.9927 29.7275C54.8665 30.2898 54.6485 30.8406 54.2927 31.3111C53.9485 31.793 53.4665 32.1832 52.9042 32.4127C52.6288 32.516 52.3305 32.5963 52.0321 32.6307C51.7338 32.6651 51.4354 32.6651 51.1485 32.6192C50.5748 32.5619 50.0125 32.3783 49.5191 32.0799Z" fill="black"/>
<path d="M54.7739 25.4594C53.4659 24.7136 51.8367 24.5645 50.4255 25.0578C49.0142 25.5512 47.821 26.6756 47.2588 28.0639" stroke="black" stroke-width="0.8" stroke-miterlimit="10" stroke-linecap="round" stroke-linejoin="round"/>
<path d="M76.9978 38.9177C76.7683 60.0861 59.3288 77.1814 38.1604 76.9863C36.646 76.9749 35.1659 76.8716 33.6973 76.688L33.2728 76.6307C32.4582 76.5159 31.655 76.3897 30.8634 76.2291C30.8175 76.2176 30.7601 76.2062 30.7142 76.1947C30.3585 76.1258 30.0029 76.0455 29.6587 75.9652C26.7674 75.2883 23.9908 74.2786 21.3864 72.9821L22.6829 71.7889L26.5264 68.2436C32.9286 62.3578 40.6961 58.17 49.1405 56.0474C49.1978 56.036 49.2552 56.013 49.3126 56.0015C53.42 54.946 58.1012 52.8578 62.1168 48.8077C71.8233 39.0209 62.5987 20.5832 62.5987 20.5832L50.3222 17.9673L45.0789 10.0048C45.0789 10.0048 45.1248 9.98184 45.2166 9.94742C45.6984 9.75237 47.4424 9.07544 49.978 8.43293C54.487 7.29707 59.1223 7.57243 63.3445 9.06397C71.7889 16.2234 77.124 26.951 76.9978 38.9177Z" fill="#4A3638"/>
<path d="M63.8264 22.9123C63.8264 23.2106 63.8149 23.4975 63.8034 23.7958C62.5414 24.0941 61.2219 24.2662 59.8681 24.2662C51.3319 24.2662 44.3216 17.8755 43.6906 9.77532C44.2758 9.51143 44.8838 9.29344 45.5034 9.12134C46.7655 8.75419 48.0964 8.57061 49.4732 8.57061C57.3898 8.55914 63.8264 14.9842 63.8264 22.9123Z" fill="#4A3638"/>
<path d="M69.2877 34.5119L65.49 35.2347L64.5148 30.0947C64.1132 27.995 65.49 25.9757 67.5896 25.5741C69.6893 25.1726 71.7086 26.5494 72.1102 28.649L72.3626 29.9914C72.7641 32.091 71.3873 34.1103 69.2877 34.5119Z" fill="#EE8A6D"/>
<path d="M26.3774 41.591C26.6413 42.0386 26.9167 42.4746 27.238 42.8418C27.3987 43.0254 27.5708 43.1976 27.7774 43.3238C27.9724 43.45 28.1905 43.5189 28.397 43.4959C28.6036 43.4844 28.8101 43.3697 28.9937 43.2205L29.0626 43.1631C29.0855 43.1402 29.1085 43.1172 29.1314 43.1058C29.1773 43.0599 29.2232 43.0254 29.2577 42.9795L29.3724 42.8418L29.4298 42.773L29.4872 42.6927C29.7855 42.291 30.0494 41.855 30.3134 41.4074C30.1757 41.9123 29.9921 42.3943 29.7052 42.8418C29.6478 42.9566 29.556 43.0599 29.4757 43.1746C29.4298 43.232 29.3839 43.2779 29.338 43.3238C29.315 43.3467 29.2921 43.3697 29.2691 43.4041L29.1888 43.473C28.9823 43.6566 28.7183 43.8172 28.4085 43.8402C28.0987 43.8631 27.8003 43.7598 27.5823 43.5877C27.3528 43.4156 27.1692 43.2205 27.02 43.0025C26.7217 42.5779 26.5151 42.0959 26.3774 41.591Z" fill="black"/>
<path d="M34.3972 41.2468C34.6611 41.6943 34.9365 42.1304 35.2578 42.4976C35.4185 42.6812 35.5906 42.8533 35.7972 42.9795C35.9922 43.1058 36.2103 43.1746 36.4168 43.1517C36.6234 43.1402 36.8299 43.0254 37.0135 42.8762L37.0824 42.8189C37.1053 42.7959 37.1283 42.773 37.1512 42.7615C37.1971 42.7156 37.243 42.6812 37.2774 42.6353L37.3922 42.4976L37.4496 42.4287L37.507 42.3484C37.8053 41.9468 38.0692 41.5107 38.3332 41.0632C38.1955 41.5681 38.0119 42.05 37.725 42.4976C37.6676 42.6123 37.5758 42.7156 37.4955 42.8303C37.4496 42.8877 37.4037 42.9336 37.3578 42.9795C37.3348 43.0025 37.3119 43.0254 37.2889 43.0598L37.2086 43.1287C37.002 43.3123 36.7381 43.473 36.4283 43.4959C36.1185 43.5189 35.8201 43.4156 35.6021 43.2435C35.3726 43.0713 35.189 42.8762 35.0398 42.6582C34.7414 42.2336 34.5349 41.7517 34.3972 41.2468Z" fill="black"/>
<path d="M30.175 46.9146C30.175 46.9146 31.552 50.0014 34.5585 46.7195" stroke="black" stroke-width="0.5" stroke-miterlimit="10" stroke-linecap="round" stroke-linejoin="round"/>
<path d="M38.1261 41.7975L38.9638 42.245L38.0114 42.2909C37.8622 42.3024 37.7474 42.1876 37.7359 42.0385C37.7245 41.8893 37.8392 41.7745 37.9884 41.7631C38.0343 41.7631 38.0802 41.7745 38.1261 41.7975Z" fill="black"/>
<path d="M37.7704 42.5433L38.3327 43.2318L37.4836 42.9564C37.3459 42.9105 37.2655 42.7613 37.3114 42.6236C37.3573 42.4859 37.5065 42.4056 37.6442 42.4515C37.7016 42.4744 37.736 42.5088 37.7704 42.5433Z" fill="black"/>
<path d="M37.2771 43.3809C37.2197 43.5186 37.2312 43.7366 37.3459 43.9202C37.1394 43.8743 36.9099 43.7251 36.7837 43.4727L36.7492 43.4038C36.6689 43.2546 36.7263 43.0825 36.8755 43.0022C37.0246 42.9219 37.1968 42.9792 37.2771 43.1284C37.3115 43.2202 37.3115 43.312 37.2771 43.3809Z" fill="black"/>
<path d="M26.561 42.3255L25.6774 42.8304L26.2167 41.9582C26.2971 41.832 26.4577 41.7976 26.5725 41.8779C26.6987 41.9582 26.7331 42.1189 26.6528 42.2337C26.6299 42.2796 26.5954 42.3025 26.561 42.3255Z" fill="black"/>
<path d="M26.9512 42.9795L26.2741 43.4385L26.561 42.6697C26.6069 42.532 26.7676 42.4631 26.9053 42.509C27.043 42.555 27.1118 42.7156 27.0659 42.8533C27.043 42.8992 26.9971 42.9451 26.9512 42.9795Z" fill="black"/>
<path d="M27.5591 43.6103C27.3641 43.7366 27.1805 43.9202 27.0542 44.1612C27.0083 43.8972 27.0428 43.5989 27.146 43.312L27.1575 43.289C27.2149 43.1513 27.3641 43.0825 27.5132 43.1284C27.6509 43.1858 27.7198 43.3349 27.6739 43.4841C27.6395 43.5415 27.605 43.5874 27.5591 43.6103Z" fill="black"/>
<path d="M50.4487 32.7221C49.9323 33.1582 49.3127 33.4565 48.693 33.5942C49.2668 33.2959 49.7372 32.8713 50.0815 32.3779C50.1618 32.2631 50.3225 32.2287 50.4372 32.309C50.552 32.3893 50.5864 32.55 50.5061 32.6647C50.4831 32.6877 50.4716 32.6992 50.4487 32.7221Z" fill="black"/>
<path d="M51.3551 32.8254C50.8846 33.4795 50.2535 34.0073 49.565 34.3401C50.1617 33.8581 50.6322 33.2385 50.919 32.5729C50.9764 32.4467 51.1256 32.3893 51.2518 32.4352C51.378 32.4926 51.4354 32.6418 51.3895 32.768C51.378 32.791 51.3666 32.8024 51.3551 32.8254Z" fill="black"/>
<path d="M52.3303 32.791C51.963 33.3418 51.4926 33.8008 50.9647 34.145C51.3778 33.6745 51.6876 33.1237 51.8827 32.5615C51.9286 32.4238 52.0778 32.3549 52.204 32.4008C52.3417 32.4467 52.4106 32.5959 52.3647 32.7221C52.3532 32.7451 52.3417 32.768 52.3303 32.791Z" fill="black"/>
<path d="M53.4201 32.3664C53.3742 32.8713 53.0415 33.25 52.6628 33.3762C52.9611 33.1008 53.03 32.6877 52.9152 32.4123C52.8579 32.2746 52.9267 32.1255 53.0644 32.0681C53.2021 32.0107 53.3513 32.0795 53.4087 32.2173C53.4201 32.2517 53.4316 32.2976 53.4316 32.332L53.4201 32.3664Z" fill="black"/>
<path d="M103.253 48.4531C102.185 48.4531 101.141 48.3196 100.11 48.0405C99.0779 47.7735 98.1191 47.373 97.2453 46.8632C96.3593 46.3535 95.619 45.7709 95 45.0913L98.2405 41.8144C98.8352 42.4576 99.5391 42.9674 100.364 43.3193C101.178 43.6834 102.076 43.8533 103.047 43.8533C103.714 43.8533 104.236 43.7562 104.588 43.5499C104.952 43.3557 105.122 43.0766 105.122 42.7368C105.122 42.2877 104.904 41.9479 104.467 41.7173C104.03 41.4867 103.484 41.2682 102.816 41.0862C102.148 40.9041 101.445 40.6978 100.692 40.4672C99.9518 40.2487 99.2357 39.9332 98.5682 39.5327C97.9007 39.1322 97.3545 38.586 96.9297 37.8821C96.5049 37.1782 96.2986 36.2801 96.2986 35.1878C96.2986 34.0226 96.602 33.0153 97.1967 32.1536C97.7914 31.2919 98.6289 30.6244 99.7212 30.1268C100.813 29.6292 102.088 29.3864 103.556 29.3864C105.098 29.3864 106.518 29.6534 107.816 30.1875C109.115 30.7215 110.183 31.5103 110.996 32.5541L107.756 35.831C107.185 35.1635 106.542 34.6902 105.838 34.4231C105.134 34.1561 104.442 34.0105 103.775 34.0105C103.132 34.0105 102.646 34.1076 102.318 34.2896C101.991 34.4717 101.833 34.7387 101.833 35.0907C101.833 35.4669 102.039 35.7582 102.464 35.9888C102.889 36.2072 103.435 36.4136 104.103 36.5835C104.77 36.7534 105.474 36.9718 106.226 37.2146C106.967 37.4573 107.683 37.7971 108.35 38.2219C109.018 38.6467 109.564 39.205 109.989 39.9089C110.414 40.6128 110.62 41.5352 110.62 42.6761C110.62 44.4359 109.952 45.8438 108.629 46.8754C107.294 47.9313 105.498 48.4531 103.253 48.4531Z" fill="#4A3638"/>
<path d="M122.405 48.4167C120.548 48.4167 118.861 48.0041 117.368 47.1666C115.863 46.3413 114.686 45.2005 113.812 43.7684C112.938 42.3362 112.513 40.7221 112.513 38.938C112.513 37.1539 112.95 35.5519 113.812 34.144C114.686 32.7361 115.863 31.6074 117.344 30.7821C118.836 29.9568 120.523 29.5321 122.405 29.5321C124.286 29.5321 125.973 29.9447 127.466 30.7579C128.958 31.571 130.136 32.6997 130.997 34.1197C131.871 35.5519 132.296 37.1539 132.296 38.938C132.296 40.7221 131.859 42.3362 130.997 43.7684C130.124 45.2126 128.946 46.3413 127.466 47.1666C125.973 47.9919 124.286 48.4167 122.405 48.4167ZM122.405 43.2465C123.218 43.2465 123.946 43.0644 124.565 42.7125C125.184 42.3484 125.657 41.8386 125.997 41.1833C126.337 40.5279 126.495 39.7754 126.495 38.938C126.495 38.1006 126.325 37.3602 125.973 36.7291C125.621 36.098 125.147 35.6004 124.541 35.2363C123.934 34.8722 123.218 34.7023 122.405 34.7023C121.616 34.7023 120.9 34.8843 120.281 35.2363C119.662 35.6004 119.176 36.098 118.824 36.7412C118.472 37.3845 118.302 38.1248 118.302 38.9744C118.302 39.7875 118.472 40.5279 118.824 41.1833C119.176 41.8386 119.65 42.3484 120.281 42.7125C120.9 43.0644 121.616 43.2465 122.405 43.2465Z" fill="#4A3638"/>
<path d="M153.232 34.1319C152.479 32.724 151.436 31.6074 150.113 30.7821C148.79 29.969 147.273 29.5563 145.561 29.5563C144.348 29.5563 143.231 29.7991 142.212 30.2967C141.702 30.5394 141.253 30.8307 140.84 31.1705V29.9204H135.148V55.6259H140.767V46.7661C141.204 47.1181 141.678 47.4094 142.224 47.6642C143.243 48.1376 144.36 48.3682 145.574 48.3682C147.285 48.3682 148.802 47.9555 150.125 47.1424C151.448 46.3292 152.491 45.2126 153.244 43.7927C153.996 42.3848 154.373 40.7706 154.373 38.9623C154.36 37.1539 153.984 35.5397 153.232 34.1319ZM148.074 41.159C147.722 41.8022 147.248 42.312 146.642 42.6882C146.035 43.0645 145.319 43.2465 144.505 43.2465C143.741 43.2465 143.037 43.0645 142.418 42.6882C141.799 42.312 141.326 41.8022 140.986 41.159C140.646 40.5157 140.488 39.7876 140.488 38.9623C140.488 38.1248 140.658 37.3724 141.01 36.7291C141.362 36.0859 141.835 35.5883 142.442 35.2242C143.049 34.8601 143.753 34.6902 144.542 34.6902C145.331 34.6902 146.035 34.8722 146.642 35.2242C147.248 35.5883 147.722 36.0859 148.074 36.7291C148.426 37.3724 148.596 38.1127 148.596 38.9623C148.596 39.7754 148.426 40.5157 148.074 41.159Z" fill="#4A3638"/>
<path d="M174.022 32.8454C173.439 31.8138 172.614 31.0127 171.546 30.4302C170.478 29.8476 169.24 29.5563 167.82 29.5563C166.436 29.5563 165.198 29.8476 164.143 30.4302C163.706 30.6729 163.305 30.9521 162.953 31.2676V21H157.261V48.0041H162.953V37.7C162.953 37.0811 163.087 36.5228 163.366 36.0495C163.633 35.564 164.009 35.1999 164.482 34.9329C164.956 34.678 165.502 34.5445 166.121 34.5445C167.019 34.5445 167.747 34.8358 168.33 35.4184C168.912 36.0009 169.204 36.7655 169.204 37.7122V48.0162H174.896V36.45C174.896 35.0664 174.604 33.877 174.022 32.8454Z" fill="#4A3638"/>
<path d="M179.059 48.0041V21.7403H184.908V48.0041H179.059Z" fill="#4A3638"/>
<path d="M207.822 48.0041H214L203.696 21.7403H198.417L188.003 48.0041H194.072L195.819 43.2465H206.111L207.822 48.0041ZM197.555 38.4768L200.989 29.1073L204.376 38.4768H197.555Z" fill="#4A3638"/>
<defs>
<linearGradient id="paint0_linear_2_3" x1="30.7081" y1="33.2391" x2="55.3474" y2="54.2384" gradientUnits="userSpaceOnUse">
<stop stop-color="white"/>
<stop offset="1"/>
</linearGradient>
<linearGradient id="paint1_linear_2_3" x1="58.3326" y1="43.7193" x2="67.2924" y2="43.5327" gradientUnits="userSpaceOnUse">
<stop stop-color="white"/>
<stop offset="1" stop-color="#EE8A6D"/>
</linearGradient>
<linearGradient id="paint2_linear_2_3" x1="25.2119" y1="28.5479" x2="43.4114" y2="53.1872" gradientUnits="userSpaceOnUse">
<stop stop-color="#160B05"/>
<stop offset="1" stop-color="#EE8A6D"/>
</linearGradient>
</defs>
</svg>
