<svg width="214" height="77" viewBox="0 0 214 77" fill="none" xmlns="http://www.w3.org/2000/svg">
<path d="M76.9978 38.4932C76.9978 59.7533 59.7648 76.9863 38.5046 76.9863C36.8754 76.9863 35.2691 76.8831 33.6858 76.688L33.2613 76.6307C32.4467 76.5159 31.6436 76.3897 30.8519 76.2291C30.806 76.2176 30.7486 76.2061 30.7027 76.1947C30.3471 76.1258 29.9914 76.0455 29.6472 75.9652C26.7559 75.2883 23.9794 74.2786 21.3749 72.9821C10.6702 67.6585 2.78803 57.4816 0.608091 45.3313C0.29831 43.6218 0.103262 41.8778 0.0344222 40.0994C0.0114755 39.5717 0 39.0324 0 38.4932C0 35.556 0.33273 32.6991 0.952292 29.9455C4.84177 12.8043 20.1702 0 38.4932 0C46.5245 0 53.9937 2.46678 60.1664 6.6775C61.2563 7.42327 62.3119 8.22641 63.3215 9.07544C71.6856 16.1316 76.9978 26.6985 76.9978 38.4932Z" fill="#A58B83"/>
<path d="M72.4429 37.9426C72.1216 39.285 59.4206 54.6937 59.4206 54.6937L49.8633 59.1913L42.8989 62.4727L33.8809 76.3899L33.6858 76.6882L33.2613 76.6308C32.4467 76.5161 31.6436 76.3899 30.8519 76.2292C30.806 76.2178 30.7486 76.2063 30.7027 76.1948C30.3471 76.126 29.9914 76.0457 29.6472 75.9653C26.7559 75.2884 23.9794 74.2788 21.3749 72.9823C10.6702 67.6586 2.78803 57.4817 0.608092 45.3314C0.298311 43.6219 0.103264 41.878 0.0344238 40.0996C1.15881 42.096 3.7059 45.8018 6.83813 45.4232C21.329 43.6449 26.056 23.7386 33.0433 16.4071C38.8603 10.3032 43.725 9.91314 45.1821 9.95904C45.4805 9.97051 45.6411 9.99346 45.6411 9.99346L54.7968 8.18066C54.7968 8.18066 67.0274 14.6172 67.0274 15.0647C67.0274 15.5121 72.7641 36.6002 72.4429 37.9426Z" fill="#4A3638"/>
<path d="M72.4429 37.9426C72.1216 39.285 59.4206 54.6937 59.4206 54.6937L49.8633 59.1913L42.8989 62.4727L33.8809 76.3899L33.6858 76.6882L33.2613 76.6308C32.4467 76.5161 31.6436 76.3899 30.8519 76.2292C30.806 76.2178 30.7486 76.2063 30.7027 76.1948C30.3471 76.126 29.9914 76.0457 29.6472 75.9653C26.7559 75.2884 23.9794 74.2788 21.3749 72.9823C10.6702 67.6586 2.78803 57.4817 0.608092 45.3314C0.298311 43.6219 0.103264 41.878 0.0344238 40.0996C1.15881 42.096 3.7059 45.8018 6.83813 45.4232C21.329 43.6449 26.056 23.7386 33.0433 16.4071C38.8603 10.3032 43.725 9.91314 45.1821 9.95904C45.4805 9.97051 45.6411 9.99346 45.6411 9.99346L54.7968 8.18066C54.7968 8.18066 67.0274 14.6172 67.0274 15.0647C67.0274 15.5121 72.7641 36.6002 72.4429 37.9426Z" fill="url(#paint0_linear_2_2155)"/>
<path d="M55.6344 44.5053L63.1036 52.7202L68.8861 45.251L67.3946 34.4316L60.109 37.0476L55.6344 44.5053Z" fill="#EE8A6D"/>
<path d="M55.6344 44.5053L63.1036 52.7202L68.8861 45.251L67.3946 34.4316L60.109 37.0476L55.6344 44.5053Z" fill="url(#paint1_linear_2_2155)"/>
<path d="M41.4074 30.7832C42.6695 32.6419 44.5396 34.1794 45.1936 36.3364C45.5034 37.3804 45.5034 38.5048 45.8017 39.5604C46.2606 41.2125 47.4195 42.5779 48.5553 43.8629C50.3337 45.8707 52.4104 47.9818 55.0837 48.1884C57.08 48.3375 58.9961 47.3623 60.6253 46.192C62.4496 44.8725 64.0788 43.2318 65.1114 41.247C66.3849 38.8261 66.7177 36.0151 66.7521 33.273C66.8209 28.6951 66.0637 23.991 63.7805 20.0212C61.4973 16.0514 57.516 12.8963 52.9611 12.38C49.1978 11.9554 45.687 13.5502 43.2202 16.3268C42.3597 17.2906 41.4189 18.1281 40.8452 19.3099C40.0191 21.0079 39.5602 22.8666 39.5831 24.7597C39.6061 26.8938 40.2027 29.0163 41.4074 30.7832Z" fill="#EE8A6D"/>
<path d="M43.5874 42.0845C43.5185 42.2336 49.0716 41.6599 48.9798 41.1322C48.4635 38.195 47.7981 35.9233 47.2818 32.9861C47.1556 32.2632 46.9835 31.4716 46.3639 30.9438C45.9164 30.5652 44.9871 30.416 44.5741 30.8061C44.2184 31.1503 44.5052 31.8043 44.597 32.2288C44.8953 33.663 46.0427 37.105 43.5874 42.0845Z" fill="#EE8A6D"/>
<path d="M47.2473 17.8985C47.2473 24.3351 43.2546 29.8652 37.5294 32.2861C35.4642 29.7964 34.2365 26.6068 34.2365 23.1303C34.2365 16.5791 38.6308 11.0489 44.6199 9.32788C46.2836 11.7947 47.2473 14.7433 47.2473 17.8985Z" fill="#4A3638"/>
<path d="M19.6883 46.0887L22.5452 45.9625L22.3731 42.096C22.3042 40.5241 20.9733 39.2965 19.39 39.3653C17.8182 39.4341 16.5905 40.7651 16.6593 42.3484L16.7052 43.358C16.7741 44.9414 18.105 46.1575 19.6883 46.0887Z" fill="#EE8A6D"/>
<path d="M49.8977 59.696C50.2763 68.5305 43.4382 75.9997 34.6037 76.3783C25.7692 76.7569 18.3 69.9188 17.9214 61.0843C17.8985 60.4647 17.8985 59.8566 17.9444 59.26C18.0017 58.3995 18.1279 57.5505 18.323 56.7244C19.9178 49.9207 25.8839 44.7118 33.2154 44.402C38.8259 44.1611 43.8971 46.8344 46.9376 51.091C47.8669 52.3875 48.6012 53.8216 49.1175 55.3705C49.5535 56.7359 49.8289 58.1815 49.8977 59.696Z" fill="#160B05"/>
<path d="M49.106 55.3591C48.5438 63.3675 42.0499 69.8614 33.835 70.2171C26.515 70.5383 20.1243 65.8801 17.9444 59.2485C18.0017 58.388 18.1279 57.539 18.323 56.7129C19.9178 49.9207 25.8839 44.7118 33.2154 44.402C38.8259 44.1611 43.8971 46.8344 46.9376 51.091C47.8554 52.376 48.6012 53.8102 49.106 55.3591Z" fill="#A58B83"/>
<path d="M46.9376 51.0796C45.3428 57.8833 39.3766 63.0922 32.0451 63.4135C26.4347 63.6544 21.3634 60.9811 18.323 56.7245C19.9178 49.9208 25.8839 44.7119 33.2154 44.4021C38.8259 44.1497 43.8857 46.8345 46.9376 51.0796Z" fill="#E4DEE9"/>
<path d="M32.1369 58.1241C36.845 58.1241 40.6616 54.3075 40.6616 49.5994C40.6616 44.8914 36.845 41.0747 32.1369 41.0747C27.4289 41.0747 23.6122 44.8914 23.6122 49.5994C23.6122 54.3075 27.4289 58.1241 32.1369 58.1241Z" fill="#160B05"/>
<path d="M43.8512 44.9528C44.1036 50.7354 38.9177 55.646 32.2746 55.9328C25.6315 56.2197 20.044 51.768 19.7916 45.9969C19.7457 45.0446 19.8604 44.1038 20.1013 43.2088C20.2505 42.6467 20.3308 42.0845 20.3538 41.5108C20.3767 40.9027 20.3308 40.2831 20.2161 39.675C20.1358 39.2161 20.0784 38.7572 20.0555 38.2753C19.9637 36.1986 20.5029 34.2252 21.5011 32.5271C21.6732 32.2403 21.8568 31.9535 22.0633 31.6781C22.4075 31.1962 22.7976 30.7488 23.2221 30.3242C23.5778 29.9686 23.9564 29.6358 24.358 29.3261C25.5627 28.4082 26.9624 27.7198 28.4884 27.3182C29.2342 27.1232 30.0143 26.997 30.8175 26.9511C30.8863 26.9511 30.9552 26.9396 31.024 26.9396C32.2172 26.8822 33.3875 27.0084 34.4775 27.2838C34.7758 27.3641 35.0741 27.4444 35.3724 27.5477C36.4624 27.9148 37.472 28.4311 38.3899 29.0851C39.2045 29.6703 39.9388 30.3472 40.5698 31.1159C41.9696 32.8254 42.8301 34.948 42.9334 37.2771C42.9563 37.7475 42.9448 38.2179 42.8989 38.6769C42.853 39.2276 42.8416 39.7898 42.8989 40.3405C42.9678 40.9715 43.094 41.5911 43.312 42.1877C43.6218 43.0712 43.8168 43.989 43.8512 44.9528Z" fill="#EE8A6D"/>
<path d="M42.8875 38.6883C42.9334 38.2294 42.9448 37.759 42.9219 37.2886C42.8186 34.9595 41.9581 32.8369 40.5584 31.1274C39.9273 30.3587 39.2045 29.6703 38.3784 29.0966C37.472 28.4541 36.4509 27.9263 35.3609 27.5591C35.0741 27.4559 34.7758 27.3756 34.466 27.2953C35.4298 25.3677 35.7969 23.1878 34.5234 21.6389C34.0071 21.0079 33.1925 20.6637 32.3893 20.526C29.3833 19.9867 26.1593 22.2011 25.5856 25.2071C26.2511 23.8991 27.4673 22.8895 28.867 22.4535C30.1061 22.0749 31.7468 22.3273 32.2287 23.532C32.5959 24.4728 32.0796 25.5169 31.4485 26.2971C31.2535 26.538 31.0469 26.7675 30.8175 26.974C30.6798 26.9855 30.5421 26.9855 30.4044 27.0084C30.3356 27.0199 30.2668 27.0199 30.1979 27.0314C30.0602 27.0428 29.934 27.0658 29.7963 27.0773C29.716 27.0887 29.6357 27.1002 29.5554 27.1117C29.4292 27.1346 29.3145 27.1576 29.1883 27.1805C29.1079 27.192 29.0391 27.2149 28.9588 27.2264C28.8326 27.2494 28.7064 27.2838 28.5802 27.3182C28.5458 27.3297 28.5113 27.3297 28.4769 27.3412C26.951 27.7427 25.5512 28.4311 24.3465 29.349C24.3236 29.3719 24.3006 29.3834 24.2777 29.4064C24.1285 29.5211 23.9794 29.6358 23.8417 29.762C23.7958 29.8079 23.7499 29.8424 23.704 29.8882C23.5319 30.0374 23.3713 30.1866 23.2106 30.3472C23.0615 30.4963 22.9238 30.6455 22.7861 30.8061C22.7517 30.8405 22.7288 30.875 22.6943 30.9094C22.5567 31.0585 22.4304 31.2192 22.3157 31.3683C22.2928 31.4027 22.2698 31.4371 22.2354 31.4716C22.178 31.5519 22.1207 31.6207 22.0633 31.701C21.8683 31.9764 21.6732 32.2518 21.5011 32.5501C20.5029 34.2481 19.9637 36.2101 20.0555 38.2982C20.0784 38.7686 20.1243 39.239 20.2161 39.698C20.3308 40.3061 20.3767 40.9256 20.3538 41.5337C22.9926 40.9371 25.0005 38.7457 25.3562 36.0494C26.3084 36.4281 27.3525 36.6231 28.4425 36.5772C30.4618 36.4854 32.2517 35.602 33.5367 34.2367C34.0759 34.3629 34.6496 34.4088 35.2347 34.3858C35.9461 34.3514 36.623 34.2137 37.2426 33.9728C37.5982 37.1279 39.9044 39.6636 42.8989 40.3749C42.8301 39.8012 42.8416 39.239 42.8875 38.6883Z" fill="url(#paint2_linear_2_2155)"/>
<path d="M51.1024 43.0602C51.1024 43.0602 55.2908 43.9553 55.2908 40.2144" stroke="black" stroke-width="0.8" stroke-miterlimit="10" stroke-linecap="round" stroke-linejoin="round"/>
<path d="M49.5191 32.0802C50.0699 32.2523 50.6207 32.3441 51.183 32.3671C51.7338 32.39 52.2846 32.3097 52.7895 32.1146C53.0419 32.0228 53.2714 31.8736 53.4895 31.713C53.6042 31.6327 53.7075 31.5409 53.7993 31.4491C53.8452 31.4032 53.8911 31.3458 53.9485 31.2999C53.9944 31.254 54.0403 31.2081 54.0862 31.1507C54.4419 30.7376 54.7403 30.2442 54.9927 29.7278C54.8665 30.2901 54.6485 30.8409 54.2927 31.3114C53.9485 31.7933 53.4665 32.1835 52.9042 32.413C52.6288 32.5162 52.3305 32.5966 52.0321 32.631C51.7338 32.6654 51.4354 32.6654 51.1485 32.6195C50.5748 32.5621 50.0125 32.3785 49.5191 32.0802Z" fill="black"/>
<path d="M54.7739 25.4596C53.4659 24.7138 51.8367 24.5647 50.4255 25.058C49.0142 25.5514 47.821 26.6758 47.2588 28.064" stroke="black" stroke-width="0.8" stroke-miterlimit="10" stroke-linecap="round" stroke-linejoin="round"/>
<path d="M76.9978 38.9178C76.7683 60.0862 59.3288 77.1815 38.1604 76.9865C36.646 76.975 35.1659 76.8718 33.6973 76.6882L33.2728 76.6308C32.4582 76.5161 31.655 76.3899 30.8634 76.2292C30.8175 76.2178 30.7601 76.2063 30.7142 76.1948C30.3585 76.126 30.0029 76.0457 29.6587 75.9654C26.7674 75.2884 23.9908 74.2788 21.3864 72.9823L22.6829 71.789L26.5264 68.2438C32.9286 62.3579 40.6961 58.1702 49.1405 56.0476C49.1978 56.0361 49.2552 56.0132 49.3126 56.0017C53.42 54.9461 58.1012 52.858 62.1168 48.8079C71.8233 39.0211 62.5987 20.5834 62.5987 20.5834L50.3222 17.9675L45.0789 10.0049C45.0789 10.0049 45.1248 9.98199 45.2166 9.94757C45.6984 9.75252 47.4424 9.07559 49.978 8.43308C54.487 7.29722 59.1223 7.57258 63.3445 9.06412C71.7889 16.2235 77.124 26.9511 76.9978 38.9178Z" fill="#4A3638"/>
<path d="M63.8264 22.9125C63.8264 23.2108 63.8149 23.4977 63.8034 23.796C62.5414 24.0943 61.2219 24.2664 59.8681 24.2664C51.3319 24.2664 44.3216 17.8757 43.6906 9.77552C44.2758 9.51163 44.8838 9.29364 45.5034 9.12154C46.7655 8.75439 48.0964 8.57082 49.4732 8.57082C57.3898 8.55934 63.8264 14.9844 63.8264 22.9125Z" fill="#4A3638"/>
<path d="M69.2877 34.512L65.49 35.2348L64.5148 30.0948C64.1132 27.9951 65.49 25.9758 67.5896 25.5742C69.6893 25.1727 71.7086 26.5495 72.1102 28.6491L72.3626 29.9915C72.7641 32.0911 71.3873 34.1104 69.2877 34.512Z" fill="#EE8A6D"/>
<path d="M26.3774 41.5913C26.6413 42.0388 26.9167 42.4749 27.238 42.8421C27.3987 43.0257 27.5708 43.1978 27.7774 43.3241C27.9724 43.4503 28.1905 43.5191 28.397 43.4962C28.6036 43.4847 28.8101 43.37 28.9937 43.2208L29.0626 43.1634C29.0855 43.1405 29.1085 43.1175 29.1314 43.106C29.1773 43.0601 29.2232 43.0257 29.2577 42.9798L29.3724 42.8421L29.4298 42.7733L29.4872 42.6929C29.7855 42.2913 30.0494 41.8552 30.3134 41.4077C30.1757 41.9126 29.9921 42.3946 29.7052 42.8421C29.6478 42.9569 29.556 43.0601 29.4757 43.1749C29.4298 43.2323 29.3839 43.2782 29.338 43.3241C29.315 43.347 29.2921 43.37 29.2691 43.4044L29.1888 43.4732C28.9823 43.6568 28.7183 43.8175 28.4085 43.8405C28.0987 43.8634 27.8003 43.7601 27.5823 43.588C27.3528 43.4159 27.1692 43.2208 27.02 43.0028C26.7217 42.5782 26.5151 42.0962 26.3774 41.5913Z" fill="black"/>
<path d="M34.3972 41.2468C34.6611 41.6944 34.9365 42.1304 35.2578 42.4976C35.4185 42.6812 35.5906 42.8534 35.7972 42.9796C35.9922 43.1058 36.2103 43.1747 36.4168 43.1517C36.6234 43.1402 36.8299 43.0255 37.0135 42.8763L37.0824 42.8189C37.1053 42.796 37.1283 42.773 37.1512 42.7616C37.1971 42.7157 37.243 42.6812 37.2774 42.6353L37.3922 42.4976L37.4496 42.4288L37.507 42.3485C37.8053 41.9468 38.0692 41.5108 38.3332 41.0632C38.1955 41.5681 38.0119 42.0501 37.725 42.4976C37.6676 42.6124 37.5758 42.7157 37.4955 42.8304C37.4496 42.8878 37.4037 42.9337 37.3578 42.9796C37.3348 43.0025 37.3119 43.0255 37.2889 43.0599L37.2086 43.1288C37.002 43.3124 36.7381 43.473 36.4283 43.496C36.1185 43.5189 35.8201 43.4156 35.6021 43.2435C35.3726 43.0714 35.189 42.8763 35.0398 42.6583C34.7414 42.2337 34.5349 41.7517 34.3972 41.2468Z" fill="black"/>
<path d="M30.175 46.9148C30.175 46.9148 31.552 50.0016 34.5585 46.7197" stroke="black" stroke-width="0.5" stroke-miterlimit="10" stroke-linecap="round" stroke-linejoin="round"/>
<path d="M38.1261 41.7976L38.9638 42.2451L38.0114 42.291C37.8622 42.3025 37.7474 42.1878 37.7359 42.0386C37.7245 41.8894 37.8392 41.7747 37.9884 41.7632C38.0343 41.7632 38.0802 41.7747 38.1261 41.7976Z" fill="black"/>
<path d="M37.7704 42.5435L38.3327 43.232L37.4836 42.9566C37.3459 42.9107 37.2655 42.7615 37.3114 42.6238C37.3573 42.4861 37.5065 42.4058 37.6442 42.4517C37.7016 42.4746 37.736 42.5091 37.7704 42.5435Z" fill="black"/>
<path d="M37.2771 43.3809C37.2197 43.5186 37.2312 43.7366 37.3459 43.9202C37.1394 43.8743 36.9099 43.7251 36.7837 43.4727L36.7492 43.4038C36.6689 43.2546 36.7263 43.0825 36.8755 43.0022C37.0246 42.9219 37.1968 42.9792 37.2771 43.1284C37.3115 43.2202 37.3115 43.312 37.2771 43.3809Z" fill="black"/>
<path d="M26.561 42.3255L25.6774 42.8304L26.2167 41.9583C26.2971 41.832 26.4577 41.7976 26.5725 41.8779C26.6987 41.9583 26.7331 42.1189 26.6528 42.2337C26.6299 42.2796 26.5954 42.3025 26.561 42.3255Z" fill="black"/>
<path d="M26.9512 42.9798L26.2741 43.4388L26.561 42.6699C26.6069 42.5322 26.7676 42.4634 26.9053 42.5093C27.043 42.5552 27.1118 42.7158 27.0659 42.8535C27.043 42.8994 26.9971 42.9453 26.9512 42.9798Z" fill="black"/>
<path d="M27.5591 43.6104C27.3641 43.7366 27.1805 43.9202 27.0542 44.1612C27.0083 43.8973 27.0428 43.5989 27.146 43.312L27.1575 43.2891C27.2149 43.1514 27.3641 43.0825 27.5132 43.1284C27.6509 43.1858 27.7198 43.335 27.6739 43.4841C27.6395 43.5415 27.605 43.5874 27.5591 43.6104Z" fill="black"/>
<path d="M50.4487 32.722C49.9323 33.1581 49.3127 33.4564 48.693 33.5941C49.2668 33.2958 49.7372 32.8712 50.0815 32.3778C50.1618 32.263 50.3225 32.2286 50.4372 32.3089C50.552 32.3892 50.5864 32.5499 50.5061 32.6646C50.4831 32.6876 50.4716 32.6991 50.4487 32.722Z" fill="black"/>
<path d="M51.3551 32.8253C50.8846 33.4794 50.2535 34.0072 49.565 34.34C50.1617 33.8581 50.6322 33.2384 50.919 32.5728C50.9764 32.4466 51.1256 32.3892 51.2518 32.4351C51.378 32.4925 51.4354 32.6417 51.3895 32.7679C51.378 32.7909 51.3666 32.8023 51.3551 32.8253Z" fill="black"/>
<path d="M52.3303 32.791C51.963 33.3418 51.4926 33.8009 50.9647 34.1451C51.3778 33.6746 51.6876 33.1238 51.8827 32.5615C51.9286 32.4238 52.0778 32.355 52.204 32.4009C52.3417 32.4468 52.4106 32.596 52.3647 32.7222C52.3532 32.7451 52.3417 32.7681 52.3303 32.791Z" fill="black"/>
<path d="M53.4201 32.3665C53.3742 32.8714 53.0415 33.2501 52.6628 33.3763C52.9611 33.1009 53.03 32.6878 52.9152 32.4124C52.8579 32.2747 52.9267 32.1255 53.0644 32.0681C53.2021 32.0108 53.3513 32.0796 53.4087 32.2173C53.4201 32.2517 53.4316 32.2976 53.4316 32.3321L53.4201 32.3665Z" fill="black"/>
<path d="M103.253 48.4532C102.185 48.4532 101.141 48.3197 100.11 48.0405C99.0779 47.7735 98.1191 47.373 97.2453 46.8633C96.3593 46.3535 95.619 45.771 95 45.0913L98.2405 41.8144C98.8352 42.4577 99.5391 42.9674 100.364 43.3194C101.178 43.6835 102.076 43.8534 103.047 43.8534C103.714 43.8534 104.236 43.7563 104.588 43.55C104.952 43.3558 105.122 43.0766 105.122 42.7368C105.122 42.2877 104.904 41.9479 104.467 41.7173C104.03 41.4867 103.484 41.2683 102.816 41.0862C102.148 40.9042 101.445 40.6978 100.692 40.4672C99.9518 40.2488 99.2357 39.9332 98.5682 39.5327C97.9007 39.1322 97.3545 38.5861 96.9297 37.8821C96.5049 37.1782 96.2986 36.2801 96.2986 35.1878C96.2986 34.0227 96.602 33.0153 97.1967 32.1536C97.7914 31.2919 98.6289 30.6244 99.7212 30.1268C100.813 29.6292 102.088 29.3865 103.556 29.3865C105.098 29.3865 106.518 29.6535 107.816 30.1875C109.115 30.7215 110.183 31.5104 110.996 32.5541L107.756 35.831C107.185 35.1635 106.542 34.6902 105.838 34.4232C105.134 34.1562 104.442 34.0105 103.775 34.0105C103.132 34.0105 102.646 34.1076 102.318 34.2897C101.991 34.4717 101.833 34.7387 101.833 35.0907C101.833 35.4669 102.039 35.7582 102.464 35.9888C102.889 36.2073 103.435 36.4136 104.103 36.5835C104.77 36.7534 105.474 36.9719 106.226 37.2146C106.967 37.4574 107.683 37.7972 108.35 38.222C109.018 38.6467 109.564 39.205 109.989 39.909C110.414 40.6129 110.62 41.5353 110.62 42.6761C110.62 44.4359 109.952 45.8438 108.629 46.8754C107.294 47.9313 105.498 48.4532 103.253 48.4532Z" fill="white"/>
<path d="M122.405 48.4169C120.548 48.4169 118.861 48.0042 117.368 47.1668C115.863 46.3415 114.686 45.2007 113.812 43.7685C112.938 42.3364 112.513 40.7222 112.513 38.9381C112.513 37.1541 112.95 35.552 113.812 34.1442C114.686 32.7363 115.863 31.6076 117.344 30.7823C118.836 29.957 120.523 29.5322 122.405 29.5322C124.286 29.5322 125.973 29.9449 127.466 30.758C128.958 31.5712 130.136 32.6999 130.997 34.1199C131.871 35.552 132.296 37.1541 132.296 38.9381C132.296 40.7222 131.859 42.3364 130.997 43.7685C130.124 45.2128 128.946 46.3415 127.466 47.1668C125.973 47.9921 124.286 48.4169 122.405 48.4169ZM122.405 43.2467C123.218 43.2467 123.946 43.0646 124.565 42.7126C125.184 42.3485 125.657 41.8388 125.997 41.1834C126.337 40.528 126.495 39.7756 126.495 38.9381C126.495 38.1007 126.325 37.3604 125.973 36.7293C125.621 36.0982 125.147 35.6006 124.541 35.2365C123.934 34.8724 123.218 34.7024 122.405 34.7024C121.616 34.7024 120.9 34.8845 120.281 35.2365C119.662 35.6006 119.176 36.0982 118.824 36.7414C118.472 37.3847 118.302 38.125 118.302 38.9746C118.302 39.7877 118.472 40.528 118.824 41.1834C119.176 41.8388 119.65 42.3485 120.281 42.7126C120.9 43.0646 121.616 43.2467 122.405 43.2467Z" fill="white"/>
<path d="M153.232 34.1319C152.479 32.7241 151.436 31.6075 150.113 30.7822C148.79 29.969 147.273 29.5564 145.561 29.5564C144.348 29.5564 143.231 29.7991 142.212 30.2967C141.702 30.5395 141.253 30.8307 140.84 31.1706V29.9205H135.148V55.626H140.767V46.7662C141.204 47.1182 141.678 47.4094 142.224 47.6643C143.243 48.1376 144.36 48.3682 145.574 48.3682C147.285 48.3682 148.802 47.9556 150.125 47.1424C151.448 46.3293 152.491 45.2127 153.244 43.7927C153.996 42.3849 154.373 40.7707 154.373 38.9623C154.36 37.1539 153.984 35.5398 153.232 34.1319ZM148.074 41.159C147.722 41.8023 147.248 42.312 146.642 42.6883C146.035 43.0645 145.319 43.2466 144.505 43.2466C143.741 43.2466 143.037 43.0645 142.418 42.6883C141.799 42.312 141.326 41.8023 140.986 41.159C140.646 40.5158 140.488 39.7876 140.488 38.9623C140.488 38.1249 140.658 37.3724 141.01 36.7292C141.362 36.0859 141.835 35.5883 142.442 35.2242C143.049 34.8601 143.753 34.6902 144.542 34.6902C145.331 34.6902 146.035 34.8723 146.642 35.2242C147.248 35.5883 147.722 36.0859 148.074 36.7292C148.426 37.3724 148.596 38.1127 148.596 38.9623C148.596 39.7755 148.426 40.5158 148.074 41.159Z" fill="white"/>
<path d="M174.022 32.8454C173.439 31.8138 172.614 31.0128 171.546 30.4302C170.478 29.8476 169.24 29.5563 167.82 29.5563C166.436 29.5563 165.198 29.8476 164.143 30.4302C163.706 30.6729 163.305 30.9521 162.953 31.2676V21H157.261V48.0041H162.953V37.7001C162.953 37.0811 163.087 36.5228 163.366 36.0495C163.633 35.564 164.009 35.1999 164.482 34.9329C164.956 34.678 165.502 34.5445 166.121 34.5445C167.019 34.5445 167.747 34.8358 168.33 35.4184C168.912 36.0009 169.204 36.7655 169.204 37.7122V48.0162H174.896V36.45C174.896 35.0664 174.604 33.877 174.022 32.8454Z" fill="white"/>
<path d="M179.059 48.0042V21.7405H184.908V48.0042H179.059Z" fill="white"/>
<path d="M207.822 48.0042H214L203.696 21.7405H198.417L188.003 48.0042H194.072L195.819 43.2467H206.111L207.822 48.0042ZM197.555 38.4769L200.989 29.1074L204.376 38.4769H197.555Z" fill="white"/>
<defs>
<linearGradient id="paint0_linear_2_2155" x1="30.7081" y1="33.2392" x2="55.3474" y2="54.2386" gradientUnits="userSpaceOnUse">
<stop stop-color="white"/>
<stop offset="1"/>
</linearGradient>
<linearGradient id="paint1_linear_2_2155" x1="58.3326" y1="43.7194" x2="67.2924" y2="43.5327" gradientUnits="userSpaceOnUse">
<stop stop-color="white"/>
<stop offset="1" stop-color="#EE8A6D"/>
</linearGradient>
<linearGradient id="paint2_linear_2_2155" x1="25.2119" y1="28.548" x2="43.4114" y2="53.1873" gradientUnits="userSpaceOnUse">
<stop stop-color="#160B05"/>
<stop offset="1" stop-color="#EE8A6D"/>
</linearGradient>
</defs>
</svg>
