<svg width="582" height="582" viewBox="0 0 582 582" fill="none" xmlns="http://www.w3.org/2000/svg">
<path d="M494.106 406.993C501.218 403.326 509.588 402.849 517.468 404.152C521.716 404.851 526.128 406.12 529.015 409.309C531.901 412.498 532.449 418.097 529.131 420.833C527.164 422.462 524.417 422.707 521.856 422.672C515.675 422.602 508.831 421.508 503.896 425.232C501.079 427.351 499.24 430.878 495.841 431.925C492.442 432.973 488.857 430.994 487.076 428.026C485.471 424.932 485.117 421.34 486.086 417.992C486.486 415.665 487.417 413.461 488.808 411.553C490.2 409.645 492.013 408.085 494.106 406.993Z" fill="#EBEBEB"/>
<path d="M477.822 375.565C482.175 381.769 490.626 379.708 494.537 375.925C498.448 372.142 500.101 366.613 501.614 361.41C505.106 349.444 508.528 336.896 505.968 324.709C505.359 321.02 503.749 317.569 501.312 314.734C498.751 312.033 494.816 310.427 491.22 311.37C486.959 312.534 484.317 316.666 482.397 320.682C476.767 332.387 473.813 345.198 473.748 358.186C473.748 364.227 474.435 370.571 477.845 375.565" fill="#EBEBEB"/>
<path d="M465.891 384.469C470.605 378.87 471.501 370.699 469.383 363.68C467.264 356.661 462.539 350.702 457.068 345.824C450.634 340.104 443.151 335.689 435.033 332.823C431.887 331.556 428.505 330.981 425.116 331.135C423.425 331.239 421.784 331.752 420.334 332.63C418.885 333.508 417.67 334.724 416.793 336.175C414.465 340.598 416.7 345.964 419.121 350.341C423.358 358.061 428.2 365.433 433.602 372.387C437.932 377.986 442.914 383.503 449.525 386.029C456.137 388.555 463.004 388.264 466.508 383.701" fill="#EBEBEB"/>
<path d="M477.531 469.197C477.759 468.27 477.891 467.322 477.927 466.368C478.125 464.32 478.369 461.712 478.672 458.674C479.059 454.884 479.638 451.115 480.406 447.383C481.413 442.838 482.783 438.382 484.503 434.056C486.194 429.736 488.487 425.676 491.313 421.997C493.618 419.01 496.556 416.569 499.915 414.85C502.194 413.72 504.637 412.957 507.155 412.591C508.105 412.555 509.049 412.418 509.972 412.184C509.02 412.078 508.06 412.078 507.108 412.184C504.493 412.379 501.935 413.042 499.554 414.14C496.015 415.814 492.912 418.284 490.486 421.356C487.539 425.086 485.162 429.232 483.432 433.66C481.679 438.044 480.316 442.574 479.358 447.197C478.624 450.977 478.123 454.798 477.857 458.639C477.612 461.898 477.519 464.552 477.473 466.38C477.388 467.318 477.408 468.263 477.531 469.197Z" fill="#E0E0E0"/>
<path d="M478.066 463.272C478.135 462.837 478.158 462.396 478.136 461.957C478.136 460.979 478.136 459.733 478.136 458.22C478.136 454.973 478.136 450.27 478.299 444.462C478.59 432.822 479.591 420.367 481.523 402.756C483.351 386.192 485.807 366.916 488.391 354.391C488.95 351.54 489.555 348.979 490.032 346.732C490.51 344.486 490.964 342.542 491.383 340.971C491.802 339.399 492.023 338.282 492.256 337.327C492.388 336.909 492.462 336.474 492.477 336.035C492.285 336.43 492.132 336.844 492.023 337.269C491.743 338.212 491.383 339.399 490.94 340.854C490.498 342.309 489.962 344.346 489.404 346.581C488.845 348.816 488.24 351.377 487.588 354.217C484.383 369.039 481.97 384.022 480.359 399.101C478.427 416.747 477.554 432.857 477.484 444.497C477.415 450.317 477.484 455.031 477.682 458.278C477.775 459.792 477.857 461.037 477.915 462.015C477.909 462.439 477.96 462.862 478.066 463.272Z" fill="#E0E0E0"/>
<path d="M478.136 432.275C478.24 430.973 478.24 429.665 478.136 428.364C477.985 425.849 477.647 422.218 476.972 417.771C476.107 412.567 474.941 407.417 473.48 402.348C471.798 396.115 469.639 390.021 467.02 384.12C461.666 371.421 454.391 361.038 448.07 354.613C446.673 353.139 445.184 351.754 443.612 350.469C442.925 349.887 442.32 349.305 441.703 348.851L439.969 347.687C438.93 346.901 437.833 346.197 436.686 345.58C436.5 345.836 441.342 348.688 447.476 355.206C455.264 363.883 461.511 373.827 465.949 384.609C468.513 390.486 470.679 396.529 472.433 402.697C473.901 407.693 475.117 412.759 476.076 417.876C476.891 422.288 477.356 425.873 477.636 428.352C477.699 429.671 477.867 430.982 478.136 432.275Z" fill="#E0E0E0"/>
<path d="M448.187 486.948L454.507 529.492H503.442L509.052 486.948H448.187Z" fill="#E0E0E0"/>
<path d="M515.57 470.175H442.902V486.948H515.57V470.175Z" fill="#E0E0E0"/>
<path d="M507.714 500.858C507.65 500.996 507.568 501.126 507.469 501.242L506.666 502.324L503.57 506.398L503.43 506.584L503.29 506.398L495.666 495.573H496.108L488.601 506.48L488.368 506.817L488.1 506.503L479.196 495.631H479.708L479.219 496.26L471.257 506.503L470.989 506.841L470.745 506.48L463.272 495.585H463.714L454.402 506.398L454.239 506.596L454.111 506.375L451.213 501.381L450.468 500.054C450.373 499.906 450.299 499.745 450.247 499.577C450.362 499.713 450.467 499.857 450.561 500.008L451.376 501.288C452.121 502.452 453.134 504.117 454.414 506.189H454.135C456.463 503.337 459.594 499.624 463.225 495.235L463.458 494.968L463.668 495.259L471.245 506.119H470.733L478.683 495.864L479.172 495.235L479.428 494.91L479.684 495.235L488.566 506.119H488.065C490.801 502.196 493.35 498.541 495.643 495.27L495.864 494.944L496.085 495.27L503.546 506.2H503.279C504.641 504.524 505.723 503.197 506.503 502.219C506.864 501.812 507.143 501.474 507.376 501.195C507.609 500.916 507.702 500.846 507.714 500.858Z" fill="white"/>
<path d="M509.832 486.668C509.832 486.855 496.143 487.006 479.254 487.006C462.364 487.006 448.664 486.855 448.664 486.668C448.664 486.482 462.352 486.331 479.254 486.331C496.155 486.331 509.832 486.482 509.832 486.668Z" fill="#FAFAFA"/>
<path d="M92.7475 395.318L84.9254 462.224L128.145 488.438H142.811L172.307 462.224L170.875 395.993L92.7475 395.318Z" fill="#EBEBEB"/>
<g opacity="0.6">
<path d="M153.194 435.604C151.425 432.042 146.734 430.529 142.928 431.693C141.065 432.366 139.376 433.448 137.985 434.857C136.593 436.267 135.534 437.969 134.884 439.841C134.219 437.961 133.143 436.254 131.733 434.844C130.323 433.434 128.616 432.358 126.736 431.693C122.93 430.529 118.239 432.042 116.47 435.604C115.555 437.631 115.402 439.921 116.039 442.052C116.684 444.143 117.676 446.11 118.972 447.872C123.077 453.69 128.513 458.444 134.826 461.736C141.133 458.443 146.561 453.69 150.657 447.872C151.953 446.11 152.945 444.143 153.59 442.052C154.238 439.925 154.097 437.636 153.194 435.604Z" fill="white"/>
</g>
<path d="M134.116 488.147C134.023 488.147 134.232 471.036 134.593 449.921C134.954 428.806 135.303 411.695 135.385 411.695C135.466 411.695 135.268 428.818 134.908 449.933C134.547 471.048 134.198 488.147 134.116 488.147Z" fill="#E0E0E0"/>
<path d="M135.024 441.901C134.542 442.13 134.004 442.211 133.476 442.134C132.949 442.163 132.424 442.042 131.963 441.785C132.469 441.716 132.982 441.716 133.488 441.785C134.002 441.766 134.518 441.805 135.024 441.901Z" fill="#E0E0E0"/>
<path d="M139.68 429.027C139.063 429.694 138.309 430.219 137.468 430.564C136.671 431.002 135.782 431.249 134.873 431.285C134.873 431.192 136.037 430.901 137.329 430.273C138.621 429.644 139.575 428.946 139.68 429.027Z" fill="#E0E0E0"/>
<path d="M137.701 433.008C137.301 433.129 136.878 433.153 136.467 433.078C135.781 433.078 135.303 432.915 135.303 432.822C135.707 432.7 136.134 432.676 136.549 432.752C137.166 432.787 137.701 432.903 137.701 433.008Z" fill="#E0E0E0"/>
<path d="M71.3416 524.324C80.3851 528.89 90.5981 530.614 100.639 529.271C110.824 528.037 120.916 522.636 125.793 513.603C128.215 509.122 129.285 504.035 130.112 499.018C130.684 495.04 130.482 490.989 129.518 487.087C128.996 484.755 127.94 482.576 126.434 480.72C120.558 472.891 112.664 466.808 103.596 463.121C89.1669 458.379 73.4824 459.234 59.655 465.519C52.7874 468.766 47.2351 473.667 44.3717 481.372C43.3692 484.34 43.0703 487.5 43.4987 490.603C44.035 495.323 45.6263 499.862 48.1547 503.884C51.9144 509.914 57.1757 517.107 71.3416 524.324Z" fill="#EBEBEB"/>
<g opacity="0.6">
<path d="M114.328 497.936C113.024 489.183 106.716 481.954 99.65 476.635C92.3052 471.106 83.5868 466.974 74.3913 466.671C65.9639 466.392 57.1873 469.755 52.0308 476.32C50.1395 478.523 48.7792 481.13 48.0547 483.941C47.3302 486.753 47.2609 489.693 47.8521 492.535C49.2139 498.052 52.5081 502.918 56.0815 507.318C62.311 514.69 70.5548 520.086 79.8038 522.845C89.1158 525.814 100.092 524.533 107.251 517.933C109.95 515.414 112.002 512.281 113.234 508.8C114.466 505.319 114.841 501.592 114.328 497.936Z" fill="white"/>
</g>
<path d="M99.4172 497.75C98.4162 494.549 94.6215 491.068 91.2692 490.649C87.8115 490.206 84.2988 490.743 81.1308 492.197C79.5576 492.936 78.1767 494.028 77.0963 495.389C76.0159 496.75 75.2653 498.343 74.9034 500.043C74.6557 501.848 74.8829 503.686 75.5627 505.376C76.2424 507.066 77.3512 508.55 78.7795 509.681C81.6221 511.769 85.1595 512.682 88.6577 512.231C92.1558 511.78 95.3461 510 97.5665 507.26C98.5949 505.928 99.2978 504.375 99.6192 502.724C99.9405 501.073 99.8714 499.369 99.4172 497.75Z" fill="#EBEBEB"/>
<path d="M69.2114 498.623C69.3237 499.237 69.2849 499.87 69.0984 500.466C68.9118 501.062 68.5831 501.604 68.1405 502.045C67.2175 502.894 66.0909 503.492 64.8697 503.779C62.1459 504.547 59.0497 504.512 56.7915 502.615C55.9189 501.869 55.3207 500.853 55.0921 499.728C54.4053 496.236 57.7111 493.967 60.7841 493.908C62.654 493.953 64.4954 494.377 66.1967 495.154C66.8986 495.425 67.5291 495.854 68.0396 496.407C68.5501 496.959 68.9271 497.622 69.1416 498.343L69.2114 498.623Z" fill="#EBEBEB"/>
<path d="M80.1065 484.445C79.6763 484.795 79.1676 485.035 78.6242 485.144C78.0808 485.254 77.5189 485.23 76.9869 485.074C75.9273 484.72 74.977 484.099 74.2283 483.27C73.2761 482.438 72.5464 481.382 72.1053 480.197C71.6643 479.012 71.5258 477.735 71.7024 476.483C71.9042 475.481 72.4371 474.575 73.2156 473.911C75.6833 471.862 78.8261 473.48 80.1996 475.843C80.9737 477.312 81.4372 478.925 81.5615 480.581C81.6463 481.243 81.5781 481.916 81.3622 482.547C81.1462 483.179 80.7883 483.752 80.316 484.224L80.1065 484.445Z" fill="#EBEBEB"/>
<path d="M69.84 487.634C70.0184 486.374 69.8209 485.088 69.2723 483.939C68.7236 482.79 67.8481 481.828 66.7554 481.174C65.1095 480.142 63.2794 479.439 61.3661 479.102C60.7196 479.048 60.07 479.158 59.4777 479.423C58.8854 479.688 58.3697 480.098 57.9788 480.616C57.5381 481.213 57.2468 481.908 57.1291 482.641C57.0245 483.467 57.0892 484.306 57.3193 485.107C57.5495 485.907 57.9402 486.652 58.4677 487.297C59.5443 488.601 60.9283 489.617 62.4952 490.253C64.5322 491.15 67.0464 491.569 68.7924 489.66C69.3201 489.093 69.6824 488.393 69.84 487.634Z" fill="#EBEBEB"/>
<path d="M130.438 496.155C130.413 495.935 130.413 495.712 130.438 495.492C130.474 494.875 130.474 494.257 130.438 493.641C130.356 491.371 129.964 489.123 129.274 486.959C128.286 483.742 126.86 480.675 125.037 477.845C122.883 474.332 120.233 471.149 117.168 468.394C114.054 465.701 110.427 463.666 106.506 462.411C103.296 461.371 99.9755 460.71 96.612 460.444C93.7369 460.187 91.3973 460.141 89.7793 460.094H87.9286C87.7091 460.101 87.4898 460.078 87.2767 460.024C87.4898 459.971 87.7091 459.948 87.9286 459.955L89.791 459.896C91.3973 459.896 93.7486 459.838 96.6469 460.048C100.051 460.252 103.417 460.873 106.669 461.899C110.683 463.149 114.396 465.213 117.576 467.963C120.684 470.764 123.362 474.008 125.526 477.589C127.354 480.477 128.758 483.613 129.693 486.901C130.334 489.113 130.648 491.408 130.624 493.711C130.631 494.334 130.588 494.957 130.496 495.573C130.5 495.769 130.48 495.964 130.438 496.155Z" fill="#E0E0E0"/>
<path d="M91.5602 466.589H91.7581L92.3401 466.706C92.8406 466.834 93.6089 466.95 94.5517 467.253C97.2435 468.032 99.8309 469.134 102.257 470.535C103.014 470.989 103.817 471.467 104.585 472.014C105.354 472.561 106.215 473.178 107.007 473.818C112.76 478.415 116.985 484.649 119.124 491.697C120.625 496.571 121.301 501.662 121.126 506.759C121.042 510.935 120.037 515.041 118.181 518.783C117.443 520.205 116.532 521.53 115.469 522.729C114.659 523.622 113.771 524.44 112.815 525.173C112.203 525.631 111.561 526.047 110.894 526.419L110.382 526.698L110.196 526.791C110.245 526.746 110.3 526.707 110.359 526.675L110.871 526.361C111.516 525.966 112.138 525.535 112.733 525.069C113.686 524.343 114.567 523.529 115.364 522.636C116.402 521.435 117.293 520.114 118.018 518.702C119.823 514.979 120.797 510.907 120.87 506.771C121.024 501.708 120.343 496.655 118.856 491.813C117.402 486.959 114.93 482.472 111.604 478.648C110.176 476.95 108.59 475.391 106.867 473.992C106.087 473.306 105.249 472.759 104.539 472.188C103.829 471.618 102.956 471.164 102.211 470.698C99.8095 469.286 97.2506 468.161 94.5866 467.346C93.6554 467.02 92.8872 466.88 92.3983 466.741L91.8163 466.589H91.5602Z" fill="#E0E0E0"/>
<path d="M130.112 490.649C129.783 491.151 129.392 491.608 128.948 492.011C127.973 493.041 126.892 493.966 125.724 494.77C124.548 495.574 123.282 496.238 121.952 496.749C121.413 496.986 120.846 497.154 120.264 497.249C120.786 496.982 121.322 496.745 121.871 496.539C123.153 495.975 124.381 495.293 125.537 494.502C127.147 493.322 128.675 492.035 130.112 490.649Z" fill="#E0E0E0"/>
<path d="M195.924 523.544C186.877 528.098 176.664 529.81 166.627 528.456C156.43 527.21 146.35 521.821 141.473 512.789C139.051 508.295 137.981 503.22 137.154 498.192C136.578 494.218 136.776 490.171 137.736 486.273C138.266 483.943 139.321 481.765 140.821 479.906C146.641 472.107 153.625 464.669 162.704 461.025C177.615 457.417 194.446 458.453 207.658 464.692C214.525 467.94 220.077 472.84 222.953 480.557C223.952 483.526 224.247 486.686 223.814 489.788C223.28 494.505 221.688 499.041 219.158 503.057C215.34 509.145 210.09 516.339 195.924 523.544Z" fill="#EBEBEB"/>
<g opacity="0.6">
<path d="M152.938 497.156C154.242 488.403 160.539 481.186 167.604 475.867C174.949 470.326 183.679 466.194 192.875 465.891C201.291 465.612 210.079 468.976 215.235 475.552C217.129 477.753 218.492 480.36 219.219 483.172C219.945 485.983 220.016 488.924 219.426 491.767C218.052 497.284 214.77 502.161 211.196 506.55C204.94 513.917 196.672 519.301 187.404 522.042C178.092 524.999 167.116 523.73 159.945 517.13C157.266 514.603 155.232 511.471 154.013 507.995C152.794 504.52 152.425 500.803 152.938 497.156Z" fill="white"/>
</g>
<path d="M167.849 497.028C168.85 493.839 172.645 490.347 175.997 489.939C179.457 489.49 182.974 490.023 186.147 491.476C187.718 492.218 189.096 493.311 190.176 494.672C191.256 496.032 192.008 497.623 192.374 499.321C192.623 501.129 192.395 502.97 191.713 504.663C191.031 506.355 189.919 507.84 188.487 508.971C187.036 510.073 185.373 510.862 183.602 511.289C181.83 511.716 179.99 511.771 178.197 511.45C174.848 510.947 171.815 509.191 169.711 506.538C168.678 505.209 167.97 503.657 167.647 502.005C167.323 500.353 167.393 498.648 167.849 497.028Z" fill="#EBEBEB"/>
<path d="M198.043 497.843C197.931 498.457 197.97 499.09 198.156 499.686C198.343 500.282 198.671 500.824 199.114 501.265C200.041 502.115 201.172 502.712 202.396 502.999C205.12 503.768 208.216 503.744 210.463 501.835C211.338 501.09 211.94 500.074 212.174 498.949C212.849 495.387 209.543 493.187 206.482 493.129C204.612 493.172 202.77 493.596 201.069 494.374C200.367 494.645 199.737 495.074 199.226 495.627C198.716 496.18 198.339 496.842 198.124 497.563C198.101 497.633 198.066 497.738 198.043 497.843Z" fill="#EBEBEB"/>
<path d="M187.16 483.665C187.589 484.017 188.097 484.259 188.64 484.37C189.184 484.482 189.746 484.46 190.279 484.306C191.336 483.946 192.285 483.326 193.038 482.501C193.988 481.666 194.717 480.607 195.158 479.421C195.599 478.234 195.738 476.957 195.564 475.704C195.359 474.702 194.822 473.8 194.039 473.143C191.571 471.082 188.44 472.712 187.055 475.063C186.28 476.536 185.817 478.153 185.693 479.812C185.596 480.47 185.65 481.141 185.852 481.775C186.054 482.408 186.397 482.987 186.857 483.467C186.951 483.543 187.052 483.61 187.16 483.665Z" fill="#EBEBEB"/>
<path d="M197.484 486.855C197.303 485.594 197.499 484.307 198.048 483.157C198.597 482.007 199.474 481.046 200.569 480.394C202.216 479.364 204.045 478.661 205.958 478.323C206.605 478.275 207.254 478.389 207.845 478.656C208.436 478.922 208.952 479.332 209.345 479.847C209.781 480.444 210.072 481.133 210.195 481.861C210.293 482.688 210.225 483.526 209.993 484.326C209.761 485.126 209.37 485.871 208.845 486.517C207.769 487.814 206.39 488.826 204.829 489.462C202.78 490.358 200.278 490.777 198.52 488.88C198.002 488.308 197.644 487.609 197.484 486.855Z" fill="#EBEBEB"/>
<path d="M136.817 493.722C136.784 493.53 136.784 493.333 136.817 493.14C136.817 492.768 136.817 492.209 136.898 491.487C137.067 489.462 137.418 487.456 137.946 485.493C138.727 482.573 139.877 479.765 141.368 477.135C143.194 473.898 145.556 470.994 148.352 468.545C149.808 467.293 151.365 466.164 153.008 465.169C154.539 464.253 156.129 463.441 157.769 462.737C160.544 461.554 163.435 460.66 166.394 460.071C168.383 459.663 170.397 459.391 172.423 459.256C173.164 459.21 173.906 459.21 174.647 459.256C173.922 459.414 173.187 459.511 172.447 459.547C170.443 459.773 168.454 460.107 166.487 460.548C163.576 461.198 160.735 462.126 158.001 463.319C156.4 464.031 154.845 464.844 153.345 465.751C151.743 466.734 150.221 467.844 148.794 469.069C146.058 471.474 143.73 474.309 141.903 477.461C140.416 480.027 139.243 482.763 138.411 485.609C137.844 487.54 137.431 489.514 137.177 491.511C137.097 492.254 136.976 492.992 136.817 493.722Z" fill="#E0E0E0"/>
<path d="M175.764 465.821L175.578 465.879L175.031 466.019L174.146 466.252C173.753 466.345 173.364 466.458 172.982 466.589C170.449 467.356 168.009 468.402 165.707 469.709C164.962 470.093 164.24 470.605 163.472 471.082C162.704 471.56 161.947 472.153 161.144 472.735C160.341 473.317 159.561 473.969 158.816 474.702C158.444 475.063 158.036 475.413 157.652 475.797L156.488 476.961C154.913 478.656 153.506 480.5 152.286 482.466C149.635 486.682 147.95 491.432 147.351 496.376C147.057 498.669 146.987 500.984 147.141 503.29C147.141 503.837 147.223 504.384 147.269 504.92C147.316 505.455 147.409 505.979 147.479 506.503C147.595 507.539 147.863 508.528 148.038 509.494C148.212 510.461 148.515 511.368 148.794 512.241C149.073 513.114 149.341 513.941 149.679 514.709C150.643 517.166 151.876 519.508 153.357 521.693C153.601 522.089 153.846 522.426 154.067 522.717L154.614 523.451L154.94 523.905L155.045 524.068L154.917 523.928L154.556 523.486C154.405 523.288 154.218 523.043 153.997 522.776C153.732 522.451 153.483 522.113 153.252 521.763C151.721 519.592 150.451 517.248 149.469 514.779C149.12 514.022 148.876 513.173 148.561 512.3C148.247 511.427 148.038 510.507 147.781 509.541C147.525 508.575 147.327 507.586 147.199 506.538C147.13 506.014 147.036 505.479 146.978 504.943C146.92 504.408 146.885 503.849 146.839 503.302C146.267 495.921 148.082 488.551 152.018 482.28C153.257 480.304 154.679 478.448 156.267 476.739L157.431 475.575C157.815 475.191 158.223 474.842 158.595 474.481C159.352 473.748 160.178 473.143 160.923 472.503C161.668 471.862 162.483 471.339 163.251 470.861C164.019 470.384 164.764 469.884 165.521 469.499C167.844 468.207 170.308 467.187 172.866 466.461C173.246 466.331 173.635 466.226 174.03 466.147L174.926 465.949L175.473 465.833L175.764 465.821Z" fill="#E0E0E0"/>
<path d="M137.142 489.869C137.597 490.235 138.032 490.623 138.446 491.033C139.479 492.004 140.592 492.884 141.775 493.664C142.967 494.438 144.22 495.111 145.523 495.678C146.079 495.884 146.623 496.121 147.153 496.388C146.564 496.292 145.99 496.123 145.442 495.887C144.094 495.381 142.806 494.729 141.601 493.943C140.402 493.151 139.29 492.234 138.283 491.208C137.852 490.808 137.469 490.358 137.142 489.869Z" fill="#E0E0E0"/>
<path d="M167.441 432.042C169.874 427.828 174.519 424.162 174.099 419.308C173.657 414.163 166.312 408.25 162.18 405.153L168.07 394.421C181.503 396.249 195.377 405.212 202.233 416.921C205.72 422.685 207.579 429.287 207.611 436.023C207.609 442.79 205.124 449.322 200.627 454.379C198.779 456.384 196.582 458.036 194.144 459.256C185.996 463.284 174.577 461.701 168.466 455.008C166.32 452.68 164.903 449.774 164.392 446.65C163.85 441.581 164.917 436.471 167.441 432.042Z" fill="#EBEBEB"/>
<path d="M193.224 459.617C193.224 459.617 193.224 459.675 193.049 459.745C192.875 459.815 192.735 459.908 192.491 460.013C191.737 460.331 190.958 460.588 190.163 460.781C188.933 461.102 187.685 461.351 186.426 461.526C184.74 461.7 183.038 461.657 181.363 461.398C176.984 460.722 172.852 458.935 169.362 456.206C168.349 455.416 167.421 454.523 166.592 453.541C165.739 452.5 165.031 451.349 164.485 450.119C163.938 448.843 163.529 447.512 163.263 446.15C163.027 444.742 162.937 443.315 162.995 441.889C163.136 439.061 163.92 436.302 165.288 433.823C165.602 433.222 165.956 432.642 166.347 432.088C166.743 431.553 167.139 431.018 167.581 430.529C168.442 429.551 169.362 428.678 170.212 427.805C171.052 426.969 171.808 426.053 172.47 425.069C173.076 424.157 173.491 423.132 173.692 422.055C174.001 420.076 173.713 418.05 172.866 416.235C172.175 414.727 171.248 413.34 170.119 412.126C169.266 411.2 168.357 410.329 167.395 409.518L165.567 407.97C165.34 407.805 165.129 407.618 164.939 407.412C165.191 407.541 165.429 407.697 165.649 407.877C166.091 408.191 166.743 408.669 167.558 409.321C168.557 410.11 169.502 410.965 170.386 411.881C171.578 413.099 172.557 414.508 173.285 416.048C174.2 417.934 174.528 420.05 174.228 422.125C174.021 423.278 173.586 424.378 172.947 425.36C172.265 426.377 171.485 427.324 170.619 428.189C169.769 429.085 168.862 429.958 168.023 430.913C167.593 431.39 167.22 431.914 166.859 432.426C166.491 432.965 166.152 433.525 165.847 434.102C164.561 436.506 163.829 439.166 163.705 441.889C163.653 443.268 163.743 444.649 163.973 446.01C164.225 447.324 164.615 448.607 165.137 449.839C165.654 451.018 166.328 452.122 167.139 453.122C167.939 454.074 168.832 454.943 169.804 455.718C173.194 458.408 177.204 460.205 181.468 460.944C183.101 461.225 184.763 461.299 186.415 461.165C187.666 461.022 188.91 460.812 190.139 460.537C190.929 460.375 191.706 460.161 192.467 459.896C192.956 459.78 193.224 459.594 193.224 459.617Z" fill="#E0E0E0"/>
<g opacity="0.6">
<path d="M171.376 438.944C174.262 433.834 180.932 433.124 182.76 434.021C184.482 434.188 186.134 434.79 187.56 435.772C188.985 436.753 190.137 438.081 190.908 439.631C191.756 441.241 192.146 443.053 192.035 444.87C191.924 446.686 191.317 448.438 190.279 449.933C189.159 451.204 187.793 452.236 186.263 452.966C184.734 453.696 183.072 454.108 181.379 454.179C179.686 454.25 177.995 453.977 176.41 453.377C174.825 452.777 173.378 451.863 172.156 450.689C169.315 447.57 169.292 442.634 171.376 438.944Z" fill="white"/>
</g>
<path d="M173.902 428.026C174.046 427.964 174.194 427.909 174.344 427.863C174.772 427.713 175.207 427.585 175.648 427.479C177.261 427.078 178.921 426.898 180.583 426.944C181.755 426.965 182.923 427.086 184.075 427.304C185.375 427.568 186.645 427.958 187.87 428.468C190.712 429.565 193.246 431.333 195.257 433.621C197.268 435.909 198.695 438.65 199.417 441.61C200.053 444.003 200.235 446.495 199.952 448.955C199.782 450.614 199.391 452.242 198.788 453.797C198.629 454.218 198.447 454.63 198.241 455.031C198.177 455.176 198.103 455.316 198.02 455.45C198.058 455.293 198.113 455.141 198.183 454.996C198.287 454.705 198.497 454.309 198.672 453.75C199.224 452.195 199.58 450.576 199.731 448.931C199.814 447.8 199.814 446.664 199.731 445.533C199.63 444.231 199.412 442.942 199.079 441.68C198.348 438.774 196.935 436.084 194.958 433.833C192.98 431.582 190.494 429.835 187.707 428.736C186.499 428.236 185.248 427.846 183.97 427.572C182.858 427.346 181.729 427.214 180.595 427.176C178.946 427.107 177.294 427.251 175.683 427.607C175.243 427.693 174.808 427.802 174.379 427.933L173.902 428.026Z" fill="#E0E0E0"/>
<path d="M198.299 439.992C198.299 439.899 198.951 439.631 199.568 439.014C200.185 438.397 200.476 437.711 200.569 437.746C200.551 438.034 200.473 438.315 200.341 438.571C200.209 438.828 200.025 439.054 199.801 439.235C199.615 439.457 199.386 439.638 199.128 439.768C198.87 439.898 198.588 439.974 198.299 439.992Z" fill="#E0E0E0"/>
<path d="M196.565 437C196.506 436.919 197.333 436.384 198.101 435.476C198.869 434.568 199.265 433.695 199.37 433.73C199.18 434.451 198.829 435.121 198.343 435.687C197.857 436.254 197.249 436.703 196.565 437Z" fill="#E0E0E0"/>
<path d="M178.697 430.249C178.545 429.607 178.65 428.93 178.988 428.364C179.219 427.748 179.672 427.242 180.257 426.944C180.257 427.025 179.71 427.595 179.279 428.503C178.849 429.411 178.79 430.249 178.697 430.249Z" fill="#E0E0E0"/>
<path d="M175.764 430.412C175.629 430.18 175.55 429.918 175.533 429.649C175.517 429.38 175.564 429.112 175.671 428.864C175.927 427.991 176.567 427.561 176.614 427.63C176.66 427.7 176.206 428.189 175.974 428.957C175.878 429.438 175.808 429.924 175.764 430.412Z" fill="#E0E0E0"/>
<path d="M182.806 399.252C182.942 399.292 183.074 399.342 183.202 399.403C183.446 399.508 183.842 399.648 184.366 399.892C185.709 400.546 186.988 401.325 188.184 402.22C189.975 403.553 191.58 405.119 192.956 406.876C196.415 411.144 198.349 416.446 198.45 421.938C198.556 425.663 197.845 429.366 196.367 432.787C196.157 433.276 195.948 433.625 195.831 433.881C195.772 434.011 195.702 434.135 195.622 434.253C195.657 434.116 195.708 433.983 195.773 433.858C195.878 433.59 196.064 433.229 196.25 432.694C196.8 431.315 197.236 429.894 197.554 428.445C198.035 426.295 198.238 424.093 198.159 421.892C198.025 418.095 197.048 414.376 195.298 411.004C193.549 407.631 191.071 404.691 188.044 402.395C186.869 401.488 185.619 400.682 184.308 399.985C183.854 399.729 183.47 399.566 183.225 399.438C183.077 399.397 182.936 399.334 182.806 399.252Z" fill="#E0E0E0"/>
<path d="M77.5224 312.313C79.9932 310.325 82.9829 309.089 86.136 308.751C89.7278 308.41 93.3386 309.165 96.4928 310.917C99.647 312.668 102.197 315.334 103.806 318.563L82.7837 343.007C80.0557 341.582 77.6709 339.58 75.7954 337.14C73.9199 334.699 72.5986 331.879 71.9236 328.877C71.3184 325.867 71.5174 322.751 72.5003 319.843C73.4833 316.935 75.2155 314.338 77.5224 312.313Z" fill="#EBEBEB"/>
<path d="M80.4557 321.567C80.7642 320.668 81.3018 319.866 82.0154 319.239C83.6485 317.53 85.8452 316.47 88.1992 316.256C90.5532 316.042 92.905 316.688 94.8194 318.075C95.6415 318.574 96.3226 319.275 96.7983 320.112C96.7168 320.193 96.0184 319.343 94.575 318.459C92.7018 317.275 90.4884 316.747 88.2825 316.957C86.0766 317.168 84.0032 318.106 82.3879 319.623C81.0726 320.67 80.5488 321.625 80.4557 321.567Z" fill="#E0E0E0"/>
<path d="M197.123 319.506C194.804 317.365 191.92 315.931 188.812 315.374C185.252 314.791 181.599 315.301 178.334 316.837C175.07 318.373 172.347 320.862 170.526 323.976L189.86 349.805C192.684 348.567 195.202 346.724 197.237 344.407C199.272 342.091 200.775 339.356 201.64 336.396C202.445 333.433 202.452 330.309 201.658 327.342C200.865 324.376 199.3 321.672 197.123 319.506Z" fill="#EBEBEB"/>
<path d="M134.384 308.227C134.384 308.227 103.084 305.643 86.9624 331.74C76.3002 349.025 76.0441 367.673 79.1637 376.612C79.1637 376.612 91.9677 411.253 131.625 411.439C131.625 411.439 183.679 411.439 191.047 367.3C197.647 327.887 158.455 307.866 134.384 308.227Z" fill="#EBEBEB"/>
<path d="M162.844 370.885L162.75 370.781C158.009 365.109 151.676 360.989 144.569 358.954L142.59 358.384C138.714 357.26 134.679 356.784 130.647 356.975C125.51 357.15 120.433 358.144 115.608 359.92C108.624 362.609 102.351 367.614 99.2426 374.412C96.1348 381.21 96.7051 389.847 101.571 395.504C105.929 400.231 111.606 403.54 117.867 405.002C124.649 406.703 131.663 407.285 138.632 406.725C147.188 406.044 155.206 402.285 161.202 396.144C164.347 392.755 166.283 388.421 166.708 383.817C166.991 381.512 166.794 379.173 166.129 376.947C165.464 374.721 164.345 372.658 162.844 370.885Z" fill="#F5F5F5"/>
<path d="M144.22 353.192C144.216 353.855 144.471 354.492 144.929 354.97C145.387 355.448 146.014 355.729 146.676 355.753C147.002 355.779 147.33 355.738 147.64 355.634C147.95 355.529 148.236 355.363 148.48 355.146C148.725 354.929 148.923 354.664 149.063 354.369C149.203 354.073 149.282 353.752 149.295 353.425C149.298 352.763 149.044 352.125 148.585 351.647C148.127 351.169 147.5 350.889 146.839 350.864C146.512 350.839 146.185 350.88 145.874 350.984C145.564 351.089 145.279 351.254 145.034 351.472C144.79 351.689 144.592 351.953 144.452 352.249C144.312 352.545 144.233 352.866 144.22 353.192Z" fill="#E0E0E0"/>
<path d="M112.21 354.194C112.203 354.855 112.455 355.492 112.911 355.971C113.368 356.449 113.993 356.73 114.654 356.754C114.98 356.78 115.308 356.739 115.618 356.635C115.928 356.53 116.214 356.364 116.458 356.147C116.703 355.93 116.901 355.665 117.041 355.37C117.181 355.074 117.26 354.753 117.273 354.426C117.28 353.765 117.028 353.128 116.571 352.649C116.115 352.171 115.489 351.89 114.829 351.866C114.502 351.839 114.174 351.878 113.863 351.982C113.552 352.085 113.266 352.251 113.021 352.469C112.776 352.686 112.578 352.952 112.438 353.248C112.299 353.544 112.221 353.866 112.21 354.194Z" fill="#E0E0E0"/>
<path d="M142.718 366.788C142.718 370.757 137.922 373.97 132.009 373.97C126.096 373.97 121.289 370.757 121.289 366.788C121.289 362.819 126.085 359.606 132.009 359.606C137.934 359.606 142.718 362.819 142.718 366.788Z" fill="#E0E0E0"/>
<path d="M133.115 369.326C133.124 369.716 133.093 370.106 133.022 370.49C132.952 371.211 132.894 372.247 132.859 373.539C132.864 375.077 132.704 376.61 132.382 378.114C132.16 379.012 131.811 379.875 131.346 380.675C130.837 381.56 130.108 382.298 129.228 382.816C128.349 383.335 127.35 383.615 126.329 383.631C125.399 383.66 124.471 383.534 123.582 383.259C122.101 382.76 120.735 381.968 119.566 380.931C118.789 380.259 118.054 379.54 117.366 378.777C117.091 378.516 116.852 378.218 116.656 377.893C116.656 377.893 117.005 378.114 117.541 378.603C118.076 379.092 118.844 379.767 119.869 380.581C121.024 381.514 122.342 382.224 123.756 382.677C124.602 382.951 125.493 383.054 126.378 382.98C127.263 382.906 128.125 382.656 128.913 382.246C130.4 381.245 131.44 379.705 131.811 377.951C132.145 376.49 132.347 375.002 132.417 373.504C132.47 372.477 132.594 371.454 132.789 370.443C132.819 370.052 132.93 369.671 133.115 369.326Z" fill="#E0E0E0"/>
<path d="M147.165 378.37C147.011 378.654 146.815 378.913 146.583 379.138C146.009 379.808 145.395 380.441 144.743 381.035C143.768 381.939 142.641 382.664 141.414 383.177C139.866 383.831 138.131 383.897 136.537 383.363C135.716 383.058 134.982 382.559 134.395 381.908C133.864 381.305 133.432 380.622 133.115 379.883C132.607 378.651 132.354 377.328 132.37 375.995C132.355 375.112 132.402 374.23 132.51 373.353C132.591 372.736 132.661 372.399 132.708 372.41C132.755 372.731 132.755 373.056 132.708 373.376C132.708 373.993 132.708 374.89 132.708 375.972C132.769 377.238 133.053 378.483 133.546 379.65C133.831 380.347 134.252 380.98 134.783 381.514C135.314 382.047 135.946 382.47 136.642 382.758C138.091 383.234 139.661 383.184 141.077 382.618C142.256 382.153 143.353 381.5 144.324 380.686C146.129 379.289 147.083 378.3 147.165 378.37Z" fill="#E0E0E0"/>
<path d="M136.188 386.739C136.246 386.797 135.897 387.205 135.164 387.659C134.201 388.238 133.117 388.588 131.998 388.683C130.875 388.78 129.744 388.621 128.692 388.217C127.9 387.891 127.528 387.542 127.528 387.472C127.528 387.402 128.052 387.577 128.832 387.775C129.847 388.029 130.896 388.115 131.939 388.031C132.981 387.942 134 387.678 134.954 387.251C135.676 386.925 136.118 386.658 136.188 386.739Z" fill="#E0E0E0"/>
<path d="M131.672 361.806C131.672 362.027 131.148 362.272 130.275 362.528C129.188 362.806 128.123 363.16 127.085 363.587C126.112 364.021 125.231 364.637 124.49 365.403C123.908 365.997 123.605 366.485 123.326 366.427C123.046 366.369 123.023 365.717 123.477 364.774C124.098 363.58 125.114 362.638 126.352 362.109C127.521 361.597 128.79 361.351 130.065 361.387C131.078 361.422 131.66 361.585 131.672 361.806Z" fill="white"/>
<path d="M116.062 346.313C116.062 346.767 115.445 347.093 114.677 347.477C113.909 347.861 112.931 348.141 111.872 348.571C110.813 349.002 109.87 349.433 109.09 349.735C108.31 350.038 107.682 350.201 107.332 349.91C106.983 349.619 107.018 348.909 107.565 348.024C108.314 346.906 109.392 346.048 110.65 345.568C111.891 345.041 113.264 344.906 114.584 345.184C115.585 345.382 116.121 345.883 116.062 346.313Z" fill="#E0E0E0"/>
<path d="M155.184 346.872C154.847 347.186 154.172 347.023 153.299 346.709C152.426 346.395 151.355 345.953 150.133 345.545C148.911 345.138 147.805 344.835 146.908 344.556C146.012 344.276 145.395 343.985 145.314 343.543C145.232 343.101 145.803 342.577 146.885 342.263C148.309 341.938 149.794 342.015 151.177 342.483C152.56 342.952 153.786 343.794 154.719 344.917C155.394 345.766 155.51 346.535 155.184 346.872Z" fill="#E0E0E0"/>
<path d="M193.585 328.539C193.48 328.539 193.026 327.596 191.839 326.374C190.314 324.774 188.314 323.709 186.135 323.336C183.952 323.012 181.722 323.391 179.768 324.418C178.255 325.21 177.51 326.013 177.44 325.92C177.97 325.119 178.695 324.466 179.547 324.023C181.551 322.791 183.932 322.32 186.254 322.696C188.577 323.072 190.687 324.27 192.2 326.071C192.866 326.761 193.343 327.611 193.585 328.539Z" fill="#E0E0E0"/>
<path d="M189.406 345.231C189.29 345.231 188.917 343.857 188.079 341.739C187.648 340.645 187.101 339.411 186.403 338.014C185.639 336.536 184.791 335.102 183.865 333.719C182.923 332.344 181.905 331.023 180.816 329.761C179.803 328.597 178.849 327.596 178.01 326.793C177.059 325.962 176.15 325.084 175.287 324.162C175.606 324.29 175.901 324.471 176.16 324.698C176.695 325.082 177.44 325.676 178.325 326.455C179.358 327.368 180.337 328.34 181.258 329.365C182.388 330.625 183.438 331.955 184.401 333.346C185.345 334.754 186.193 336.224 186.938 337.746C187.541 338.989 188.065 340.268 188.51 341.576C188.807 342.458 189.056 343.355 189.255 344.265C189.351 344.578 189.402 344.903 189.406 345.231Z" fill="#E0E0E0"/>
<path d="M84.0757 339.108C84.0773 338.763 84.1363 338.421 84.2503 338.095C84.3318 337.77 84.4366 337.374 84.5763 336.931C84.7159 336.489 84.8673 335.965 85.0884 335.418C85.5752 334.113 86.1388 332.839 86.7762 331.6C88.3503 328.567 90.358 325.779 92.7359 323.324C93.7068 322.328 94.7369 321.391 95.8205 320.519C96.2745 320.135 96.7168 319.821 97.0893 319.541C97.4617 319.262 97.8109 319.041 98.0903 318.866C98.3653 318.656 98.6717 318.491 98.9982 318.377C98.9982 318.47 97.8342 319.309 96.1115 320.868C95.2269 321.637 94.2258 322.614 93.1666 323.732C92.0341 324.973 90.9694 326.275 89.9772 327.631C89.0019 328.993 88.108 330.412 87.3 331.88C86.5667 333.242 85.9614 334.499 85.5075 335.581C84.5995 337.746 84.1805 339.143 84.0757 339.108Z" fill="#E0E0E0"/>
<path d="M175.263 396.063C175.055 396.289 174.829 396.499 174.588 396.691C174.123 397.087 173.424 397.716 172.54 398.402C169.955 400.409 167.197 402.181 164.299 403.699C160.005 405.967 155.483 407.773 150.808 409.088C148.042 409.846 145.236 410.453 142.404 410.904C139.356 411.372 136.28 411.625 133.197 411.66C130.114 411.679 127.034 411.446 123.989 410.962C121.151 410.537 118.344 409.927 115.585 409.134C113.094 408.425 110.646 407.574 108.252 406.585C107.088 406.085 106.064 405.631 105.051 405.119C104.539 404.863 104.05 404.618 103.573 404.362C103.095 404.106 102.618 403.873 102.176 403.605C99.3012 402.026 96.6345 400.094 94.2374 397.855L93.6322 397.308C93.4459 397.122 93.2946 396.936 93.1433 396.773L92.3867 395.946C92.1631 395.728 91.964 395.486 91.793 395.225C92.037 395.417 92.2665 395.627 92.4798 395.853L93.2829 396.645C93.4343 396.796 93.5972 396.971 93.7835 397.145L94.412 397.669C96.8631 399.815 99.5543 401.671 102.432 403.198C102.874 403.466 103.34 403.71 103.829 403.943L105.295 404.676C106.308 405.165 107.391 405.596 108.496 406.096C110.869 407.046 113.289 407.87 115.748 408.564C118.484 409.34 121.268 409.934 124.082 410.345C127.097 410.82 130.145 411.046 133.197 411.02C136.248 410.992 139.294 410.747 142.311 410.287C145.119 409.85 147.901 409.259 150.645 408.517C155.304 407.238 159.82 405.487 164.124 403.291C167.024 401.819 169.8 400.114 172.423 398.193C173.378 397.541 174.053 396.947 174.542 396.598C174.762 396.393 175.004 396.214 175.263 396.063Z" fill="#E0E0E0"/>
<path d="M131.835 406.899C131.799 406.802 131.779 406.7 131.776 406.597C131.776 406.387 131.776 406.085 131.683 405.701C131.683 404.932 131.567 403.803 131.544 402.418C131.485 399.636 131.544 395.807 131.637 391.57C131.73 387.333 131.928 383.503 132.079 380.733C132.161 379.348 132.23 378.23 132.289 377.45C132.289 377.101 132.289 376.798 132.37 376.566C132.358 376.461 132.358 376.356 132.37 376.251C132.388 376.355 132.388 376.462 132.37 376.566C132.37 376.81 132.37 377.101 132.37 377.462C132.37 378.288 132.312 379.394 132.265 380.744C132.172 383.561 132.056 387.368 131.916 391.581C131.776 395.795 131.73 399.636 131.73 402.418C131.73 403.803 131.73 404.921 131.73 405.701C131.785 406.098 131.82 406.498 131.835 406.899Z" fill="#E0E0E0"/>
<path d="M82.9467 339.492C82.8341 339.46 82.7278 339.409 82.6324 339.341C82.4229 339.213 82.1086 339.062 81.7478 338.806C80.6907 338.11 79.7214 337.289 78.861 336.361C77.5543 335.001 76.4736 333.441 75.66 331.74C74.6848 329.646 74.1348 327.379 74.0421 325.07C73.9662 322.76 74.3622 320.459 75.2061 318.307C75.8832 316.55 76.8425 314.914 78.0462 313.465C78.8689 312.462 79.811 311.563 80.8515 310.788C81.1231 310.578 81.4068 310.383 81.7012 310.206L82.0038 310.02C82.0038 310.02 81.6197 310.322 80.9329 310.881C79.9624 311.676 79.0804 312.574 78.3023 313.558C77.1476 315.008 76.2212 316.625 75.5553 318.354C74.7411 320.473 74.3458 322.731 74.3913 325C74.4852 327.267 75.023 329.494 75.9743 331.554C77.2592 334.392 79.2659 336.845 81.7943 338.666C82.5393 339.213 82.9699 339.469 82.9467 339.492Z" fill="#E0E0E0"/>
<path d="M194.062 317.271C194.062 317.271 194.167 317.271 194.365 317.411C194.646 317.557 194.912 317.733 195.156 317.935C196.067 318.676 196.823 319.59 197.379 320.624C198.206 322.153 198.772 323.809 199.056 325.524C199.42 327.625 199.332 329.78 198.8 331.845C198.277 333.903 197.437 335.866 196.309 337.665C195.354 339.105 194.266 340.454 193.061 341.692C192.06 342.763 191.21 343.601 190.64 344.183L189.965 344.858C189.891 344.941 189.81 345.015 189.72 345.079C189.72 345.079 189.72 344.975 189.918 344.812C190.116 344.649 190.267 344.404 190.547 344.102L192.875 341.541C194.04 340.288 195.096 338.936 196.029 337.502C197.125 335.719 197.945 333.78 198.462 331.752C198.987 329.729 199.078 327.619 198.73 325.559C198.47 323.871 197.939 322.236 197.158 320.717C196.631 319.693 195.916 318.777 195.051 318.016C194.458 317.504 194.039 317.306 194.062 317.271Z" fill="#E0E0E0"/>
<path d="M132.556 311.952C132.572 312.099 132.572 312.247 132.556 312.394C132.556 312.732 132.556 313.151 132.486 313.686C132.417 314.85 132.324 316.457 132.207 318.436C131.986 322.451 131.753 327.992 131.66 334.115C131.567 340.237 131.66 345.755 131.788 349.805C131.788 351.784 131.904 353.402 131.939 354.554C131.939 355.09 131.939 355.521 131.939 355.846C131.952 355.998 131.952 356.149 131.939 356.3C131.903 356.156 131.883 356.007 131.881 355.858C131.881 355.532 131.881 355.101 131.788 354.566C131.707 353.402 131.625 351.819 131.532 349.817C131.357 345.801 131.241 340.249 131.322 334.115C131.404 327.98 131.683 322.475 131.963 318.424C132.102 316.422 132.23 314.804 132.335 313.686L132.475 312.394C132.483 312.244 132.51 312.095 132.556 311.952Z" fill="#E0E0E0"/>
<path d="M94.3538 432.74C91.5137 428.783 86.7064 425.058 87.1254 420.204C87.5677 415.059 94.9126 409.134 99.0448 406.05L93.12 395.318C79.6874 397.145 65.8126 406.108 58.9566 417.806C55.4715 423.575 53.6132 430.179 53.5789 436.919C53.5806 443.687 56.0657 450.218 60.5629 455.275C62.4111 457.28 64.6078 458.933 67.0464 460.152C75.1944 464.18 86.6132 462.597 92.7242 455.892C94.7612 453.669 97.1242 450.072 97.5199 447.104C98.2447 442.09 97.1193 436.984 94.3538 432.74Z" fill="#EBEBEB"/>
<path d="M96.321 408.331C96.1331 408.528 95.9308 408.711 95.7157 408.878L93.9465 410.357C93.0228 411.148 92.1408 411.988 91.3042 412.871C90.2031 414.027 89.2811 415.341 88.5688 416.77C87.7122 418.489 87.3343 420.407 87.4746 422.322C87.5994 423.38 87.9359 424.401 88.464 425.326C89.0203 426.31 89.6967 427.221 90.4777 428.038C92.3044 429.749 93.9576 431.636 95.4131 433.671C96.8419 435.984 97.7533 438.579 98.0848 441.277C98.4163 443.976 98.1601 446.714 97.3337 449.304C96.9453 450.526 96.4139 451.698 95.7507 452.796C95.448 453.355 95.0523 453.855 94.7147 454.367C94.3771 454.88 93.9581 455.334 93.5507 455.776C90.6692 458.965 86.8506 461.157 82.644 462.038L81.9922 462.189L81.3403 462.271L80.0949 462.446C79.2801 462.446 78.5118 462.539 77.7669 462.55L75.7648 462.469L74.1003 462.271L73.3902 462.178L72.7849 462.05L71.8188 461.84C71.5539 461.791 71.2931 461.721 71.0389 461.631C71.3129 461.624 71.5866 461.651 71.8537 461.712L72.8082 461.852L73.4251 461.957L74.1352 462.015L75.7881 462.166H77.7669C78.4769 462.166 79.2219 462.085 80.025 462.027L81.189 461.829L81.8292 461.736L82.4694 461.584C86.5502 460.673 90.2474 458.518 93.0502 455.415C93.4343 454.984 93.7951 454.507 94.2142 454.041C94.6332 453.576 94.9126 453.064 95.2036 452.517C95.8401 451.446 96.3517 450.305 96.7284 449.118C97.5152 446.61 97.7494 443.961 97.4152 441.354C97.0981 438.745 96.212 436.238 94.8195 434.009C93.3907 432.001 91.7731 430.134 89.9889 428.433C89.173 427.578 88.4725 426.619 87.9053 425.582C87.3669 424.587 87.0343 423.495 86.9275 422.369C86.7785 420.359 87.181 418.347 88.0915 416.549C88.8423 415.091 89.8163 413.76 90.9783 412.603C91.8396 411.734 92.7531 410.917 93.7137 410.159C94.5052 409.53 95.1337 409.065 95.5644 408.762C95.7919 408.579 96.0474 408.433 96.321 408.331Z" fill="#E0E0E0"/>
<g opacity="0.6">
<path d="M89.8492 439.841C86.9625 434.731 80.2927 434.079 78.4653 434.917C76.7423 435.083 75.09 435.685 73.6643 436.667C72.2387 437.648 71.0867 438.977 70.3173 440.528C69.4688 442.135 69.0786 443.946 69.1895 445.76C69.3003 447.575 69.9079 449.325 70.9458 450.817C72.1272 452.284 73.6467 453.442 75.3741 454.192C77.1014 454.942 78.985 455.262 80.8631 455.124C83.9294 455.062 86.8513 453.81 89.0111 451.632C91.956 448.466 91.956 443.484 89.8492 439.841Z" fill="white"/>
</g>
<path d="M87.3 428.922C87.1415 428.905 86.9853 428.87 86.8344 428.818C86.5318 428.818 86.1011 428.597 85.5307 428.492C83.9174 428.147 82.2671 428.006 80.6187 428.073C79.4851 428.112 78.3564 428.24 77.2431 428.457C75.9664 428.736 74.7163 429.126 73.5066 429.621C70.7165 430.716 68.2285 432.461 66.2502 434.713C64.272 436.965 62.8608 439.657 62.1343 442.565C61.8016 443.827 61.5834 445.116 61.4825 446.417C61.3997 447.549 61.3997 448.685 61.4825 449.816C61.6332 451.46 61.989 453.079 62.5417 454.635C62.7163 455.194 62.9259 455.59 63.0306 455.881C63.0972 456.023 63.1517 456.171 63.1936 456.323C63.1023 456.197 63.028 456.061 62.9724 455.916C62.7648 455.512 62.5821 455.096 62.4253 454.67C61.8205 453.12 61.4289 451.495 61.2613 449.84C61.1318 448.68 61.1007 447.512 61.1682 446.348C61.2607 445.032 61.471 443.726 61.7968 442.448C62.5487 439.496 63.9751 436.759 65.9639 434.451C67.998 432.192 70.5224 430.428 73.3437 429.295C74.5696 428.79 75.84 428.4 77.1383 428.131C78.29 427.912 79.4582 427.792 80.6303 427.77C82.2921 427.724 83.9524 427.904 85.5657 428.306C86.0065 428.411 86.4416 428.539 86.8693 428.69C87.0207 428.752 87.165 428.83 87.3 428.922Z" fill="#E0E0E0"/>
<path d="M62.9259 440.853C62.6373 440.836 62.3554 440.76 62.0973 440.629C61.8391 440.499 61.6102 440.318 61.4243 440.097C61.2001 439.915 61.016 439.689 60.8837 439.432C60.7515 439.176 60.674 438.895 60.6561 438.607C60.7492 438.607 61.0169 439.259 61.6455 439.864C62.274 440.469 62.9491 440.76 62.9259 440.853Z" fill="#E0E0E0"/>
<path d="M64.6602 437.897C63.9415 437.647 63.3134 437.189 62.856 436.581C62.3307 436.042 61.9712 435.364 61.8201 434.626C61.9132 434.626 62.3206 435.476 63.1005 436.372C63.8803 437.268 64.7184 437.815 64.6602 437.897Z" fill="#E0E0E0"/>
<path d="M82.5276 431.134C82.4345 431.134 82.3763 430.308 81.9456 429.4C81.5149 428.492 80.9096 427.91 80.9678 427.84C81.5533 428.138 82.0059 428.645 82.2366 429.26C82.5687 429.825 82.6728 430.495 82.5276 431.134Z" fill="#E0E0E0"/>
<path d="M85.4725 431.309C85.4281 430.82 85.3582 430.335 85.263 429.854C85.0744 429.4 84.8607 428.957 84.6228 428.527C84.6228 428.445 85.3096 428.887 85.5656 429.76C85.6704 430.008 85.7166 430.277 85.7004 430.545C85.6843 430.814 85.6063 431.075 85.4725 431.309Z" fill="#E0E0E0"/>
<path d="M80.3859 399.694L80.0367 399.95L78.9891 400.672C78.0695 401.289 76.7658 402.209 75.241 403.442C73.442 404.886 71.7606 406.47 70.2125 408.18C68.3265 410.271 66.715 412.595 65.4168 415.094C64.1365 417.599 63.2716 420.296 62.856 423.079C62.51 425.351 62.51 427.663 62.856 429.935C63.0738 431.468 63.4643 432.971 64.02 434.416C64.4391 435.429 64.7301 435.965 64.7068 435.976C64.6108 435.865 64.5323 435.739 64.474 435.604C64.3227 435.348 64.1364 434.964 63.9036 434.44C63.2734 433.006 62.82 431.501 62.5534 429.958C62.1623 427.649 62.1348 425.292 62.4719 422.974C62.9293 420.17 63.8456 417.461 65.184 414.954C66.4921 412.423 68.128 410.075 70.0495 407.97C71.6165 406.262 73.3218 404.685 75.1479 403.256C76.377 402.291 77.6553 401.389 78.9774 400.556C79.443 400.253 79.8039 400.032 80.0599 399.892C80.1614 399.815 80.2707 399.749 80.3859 399.694Z" fill="#E0E0E0"/>
<path d="M159.247 63.5544H58.0603V169.024H159.247V63.5544Z" fill="#E0E0E0"/>
<path d="M152.403 63.5544H51.216V169.024H152.403V63.5544Z" fill="#EBEBEB"/>
<path d="M138.795 77.7319H64.8115V154.847H138.795V77.7319Z" fill="white"/>
<path d="M64.8115 155.371C64.2617 156.126 63.6421 156.827 62.9608 157.466C61.7968 158.7 60.109 160.388 58.2466 162.215C56.3842 164.043 54.6847 165.707 53.4276 166.871C52.7863 167.545 52.0763 168.149 51.3091 168.675C51.8509 167.921 52.467 167.223 53.1483 166.592C54.3123 165.346 56.0117 163.658 57.8741 161.819C59.7365 159.98 61.4476 158.327 62.7047 157.163C63.3447 156.496 64.0506 155.896 64.8115 155.371Z" fill="#E0E0E0"/>
<path d="M138.795 155.173C139.55 155.723 140.252 156.342 140.891 157.024C142.124 158.188 143.812 159.875 145.651 161.68C147.49 163.484 149.143 165.253 150.307 166.499C150.981 167.14 151.586 167.85 152.112 168.617C151.354 168.08 150.655 167.463 150.028 166.778C148.782 165.614 147.095 163.926 145.256 162.052C143.416 160.178 141.764 158.479 140.6 157.222C139.928 156.603 139.324 155.917 138.795 155.173Z" fill="#E0E0E0"/>
<path d="M138.586 77.988C139.136 77.2331 139.755 76.5316 140.437 75.8928C141.601 74.6474 143.288 72.9712 145.093 71.1321C146.897 69.293 148.666 67.6401 149.923 66.4761C150.559 65.8013 151.265 65.1965 152.03 64.6719C151.489 65.4269 150.873 66.125 150.191 66.7554C149.027 68.0009 147.339 69.6887 145.465 71.5162C143.591 73.3437 141.892 75.0082 140.634 76.1722C140.018 76.8489 139.332 77.4577 138.586 77.988Z" fill="#E0E0E0"/>
<path d="M64.6136 78.1277C63.8522 77.586 63.15 76.9656 62.5184 76.2769C61.2729 75.1129 59.5968 73.4251 57.7577 71.6209C55.9185 69.8167 54.2657 68.0474 53.1017 66.7903C52.4325 66.1458 51.8246 65.4405 51.2858 64.6835C52.0463 65.222 52.7485 65.8384 53.381 66.5226C54.6149 67.6866 56.3027 69.3744 58.1418 71.1786C59.9809 72.9828 61.6338 74.7637 62.7978 76.0092C63.4705 76.6546 64.0787 77.3641 64.6136 78.1277Z" fill="#E0E0E0"/>
<path d="M138.586 154.812C138.586 154.812 138.586 154.672 138.586 154.44C138.586 154.207 138.586 153.823 138.586 153.357C138.586 152.403 138.586 151.029 138.586 149.202C138.586 145.558 138.586 140.239 138.516 133.488C138.516 119.985 138.446 100.733 138.4 77.6854L138.632 77.9298L64.8232 77.988L65.1026 77.7086C65.1026 106.017 65.1026 132.498 65.1026 154.835L64.8581 154.591L118.297 154.719L133.29 154.777H137.259H138.283H138.632H137.305H133.394L118.449 154.847L64.9047 154.963H64.6719V154.812C64.6719 132.475 64.6719 105.994 64.6719 77.6854V77.406H64.9629H138.726H138.97V77.6388C138.97 100.756 138.877 120.055 138.854 133.592C138.854 140.332 138.854 145.616 138.784 149.26C138.784 151.041 138.784 152.414 138.784 153.369C138.784 153.823 138.784 154.16 138.784 154.416C138.784 154.672 138.586 154.812 138.586 154.812Z" fill="#E0E0E0"/>
<path d="M104.958 116.338L104.002 117.919L117.346 125.988L118.302 124.406L104.958 116.338Z" fill="#E0E0E0"/>
<path d="M104.062 114.526C104.327 114.683 104.558 114.891 104.742 115.138C104.926 115.385 105.059 115.666 105.134 115.965C105.209 116.263 105.223 116.574 105.177 116.879C105.131 117.183 105.025 117.475 104.865 117.739C104.708 118.005 104.499 118.238 104.252 118.423C104.004 118.608 103.721 118.742 103.421 118.817C103.121 118.892 102.809 118.906 102.503 118.859C102.197 118.811 101.904 118.704 101.641 118.542L100.942 118.123C100.673 117.969 100.437 117.762 100.248 117.516C100.059 117.269 99.9221 116.988 99.844 116.687C99.7659 116.387 99.7487 116.074 99.7933 115.767C99.838 115.459 99.9436 115.164 100.104 114.898C100.259 114.625 100.467 114.386 100.717 114.195C100.967 114.005 101.253 113.867 101.557 113.79C101.862 113.712 102.179 113.698 102.489 113.746C102.799 113.795 103.097 113.906 103.363 114.072L104.062 114.526Z" fill="#EBEBEB"/>
<path d="M97.6713 97.9623C99.9129 99.3157 101.703 101.304 102.814 103.675C103.926 106.046 104.309 108.693 103.915 111.282C103.521 113.871 102.369 116.284 100.603 118.218C98.8367 120.151 96.5368 121.517 93.9942 122.143C91.4515 122.769 88.7803 122.627 86.3187 121.734C83.857 120.841 81.7155 119.238 80.1651 117.128C78.6148 115.018 77.7253 112.495 77.6092 109.879C77.493 107.263 78.1556 104.671 79.5129 102.432C81.3302 99.4337 84.263 97.279 87.6675 96.441C91.0719 95.603 94.6698 96.1501 97.6713 97.9623Z" fill="#EBEBEB"/>
<path d="M98.1369 98.2649L97.6713 97.9622C96.0855 97.0166 94.3225 96.4065 92.4915 96.1697C90.6174 103.945 85.5075 111.302 79.9901 116.877C81.055 118.398 82.427 119.679 84.0176 120.637C84.2504 120.777 84.4948 120.916 84.7276 121.033C91.2926 115.236 96.903 107.088 98.1369 98.2649Z" fill="#FAFAFA"/>
<path d="M116.516 124.758C115.99 125.623 115.733 126.625 115.778 127.636C115.822 128.648 116.166 129.623 116.766 130.439C117.366 131.255 118.194 131.874 119.147 132.218C120.099 132.562 121.132 132.615 122.114 132.371C123.097 132.127 123.985 131.597 124.666 130.847C125.346 130.098 125.789 129.163 125.938 128.161C126.086 127.16 125.934 126.137 125.5 125.222C125.066 124.307 124.37 123.542 123.5 123.023C122.343 122.333 120.959 122.128 119.651 122.453C118.343 122.777 117.217 123.606 116.516 124.758ZM123.919 129.216C123.554 129.798 123.024 130.259 122.398 130.542C121.771 130.824 121.075 130.916 120.397 130.804C119.718 130.693 119.088 130.384 118.584 129.916C118.081 129.447 117.727 128.841 117.567 128.173C117.406 127.504 117.447 126.803 117.683 126.158C117.92 125.512 118.341 124.951 118.895 124.544C119.449 124.137 120.111 123.903 120.798 123.87C121.485 123.838 122.166 124.009 122.755 124.362C123.153 124.601 123.499 124.916 123.773 125.29C124.047 125.664 124.244 126.088 124.352 126.539C124.461 126.99 124.478 127.457 124.404 127.915C124.33 128.373 124.165 128.811 123.919 129.204V129.216Z" fill="#E0E0E0"/>
<path d="M88.0683 107.845C88.2079 107.623 90.0238 108.008 90.0238 108.008C90.0238 108.008 91.0481 106.483 91.2693 106.494C91.4904 106.506 91.7116 108.403 91.7116 108.403C92.3476 108.564 92.9614 108.803 93.539 109.113C93.539 109.3 91.8629 110.126 91.8629 110.126C91.8629 110.126 91.956 112 91.7465 112.082C91.537 112.163 90.2682 110.801 90.2682 110.801C89.6574 111.041 89.0206 111.209 88.3709 111.302C88.173 111.197 89.1275 109.498 89.1275 109.498C89.1275 109.498 87.9402 108.077 88.0683 107.845Z" fill="#E0E0E0"/>
<path d="M91.4904 100.814C91.5719 100.558 93.4343 100.546 93.4343 100.546C93.4343 100.546 94.0978 98.8352 94.3189 98.8003C94.5401 98.7654 95.1686 100.57 95.1686 100.57C95.8217 100.592 96.47 100.69 97.1009 100.861C97.1824 101.035 95.6808 102.222 95.6808 102.222C95.6808 102.222 96.1813 104.027 95.9951 104.155C95.8088 104.283 94.2724 103.224 94.2724 103.224C93.73 103.594 93.1435 103.895 92.5264 104.12C92.3168 104.05 92.8756 102.188 92.8756 102.188C92.8756 102.188 91.4089 101.058 91.4904 100.814Z" fill="#E0E0E0"/>
<path d="M83.2377 114.223C83.0514 114.41 83.9128 116.062 83.9128 116.062C83.9128 116.062 82.7488 117.448 82.7488 117.657C82.7488 117.867 84.7392 117.564 84.7392 117.564C84.7392 117.564 85.7286 119.135 85.9032 119.124C86.0778 119.112 86.4387 117.238 86.4387 117.238C86.4387 117.238 88.2661 116.831 88.2894 116.61C88.3127 116.388 86.6598 115.527 86.6598 115.527C86.7407 114.874 86.7407 114.213 86.6598 113.56C86.5085 113.409 85.1233 114.724 85.1233 114.724C85.1233 114.724 83.4239 114.072 83.2377 114.223Z" fill="#E0E0E0"/>
<path d="M532.681 51.9028V199.254H342.356L335.5 52.9271L532.681 51.9028Z" fill="#E0E0E0"/>
<path d="M335.5 52.7641V199.265H525.825V52.7641H335.5Z" fill="white"/>
<path d="M526.547 199.987H334.766V52.0308H526.547V199.987ZM336.221 198.532H525.092V53.544H336.221V198.532Z" fill="#E0E0E0"/>
<path d="M505.211 67.8146H356.114V179.978H505.211V67.8146Z" fill="white"/>
<path d="M505.176 67.8147H504.454H502.359H494.211L463.633 67.8961L356.056 68.0707L356.393 67.7332C356.393 101.373 356.393 139.564 356.393 179.885L356.021 179.5L505.118 179.57L504.803 179.885C504.873 145.989 504.932 117.983 504.966 98.4046C504.966 88.627 505.025 80.9446 505.048 75.7182C505.048 73.1225 505.048 71.1204 505.048 69.7469C505.048 68.3734 505.048 67.6866 505.048 67.6866C505.048 67.6866 505.048 68.3501 505.048 69.6887C505.048 71.0273 505.048 73.0177 505.048 75.6018C505.048 80.8165 505.048 88.4058 505.129 98.2067C505.129 117.797 505.223 145.931 505.292 179.85V180.152H505.176L356.079 180.222H355.695V179.85C355.695 139.529 355.695 101.338 355.695 67.6983V67.512H356.044L463.842 67.6866L494.339 67.7797H502.394H504.454C504.99 67.7914 505.176 67.8147 505.176 67.8147Z" fill="#E0E0E0"/>
<path d="M335.5 52.38C336.633 52.9317 337.71 53.5945 338.712 54.3588C340.645 55.6625 343.287 57.5016 346.15 59.6084C349.014 61.7153 351.54 63.729 353.321 65.2189C354.34 65.9711 355.276 66.8295 356.114 67.7797C355.009 67.1655 353.965 66.4484 352.995 65.638L345.708 60.2603L338.41 54.8244C337.356 54.1145 336.381 53.2952 335.5 52.38Z" fill="#E0E0E0"/>
<path d="M525.825 52.7525C525.942 52.9271 521.437 56.4307 515.745 60.5862C510.053 64.7417 505.339 67.9776 505.211 67.8146C505.083 67.6517 509.599 64.1364 515.291 59.9809C520.983 55.8254 525.697 52.5895 525.825 52.7525Z" fill="#E0E0E0"/>
<path d="M504.454 179.978C504.594 179.815 509.494 184.005 515.396 189.29C521.297 194.574 525.965 199.056 525.872 199.207C525.779 199.358 520.832 195.18 514.93 189.895C509.029 184.61 504.315 180.129 504.454 179.978Z" fill="#E0E0E0"/>
<path d="M335.5 199.254C335.36 199.102 339.807 194.854 345.44 189.767C351.074 184.68 355.753 180.688 355.916 180.839C356.079 180.99 351.598 185.239 345.964 190.326C340.33 195.412 335.639 199.416 335.5 199.254Z" fill="#E0E0E0"/>
<path d="M424.732 128.424C424.576 126.877 424.537 125.321 424.616 123.768C424.72 121.917 424.616 120.032 424.616 118.181C424.546 111.593 420.157 107.542 413.686 107.623C410.799 107.623 407.633 109.311 405.316 110.894C393.828 118.763 398.065 136.048 405.316 145C407.688 147.848 410.54 150.259 413.744 152.123C417.736 154.335 424.348 154.451 427.107 150.61C428.183 149.108 428.846 147.35 429.029 145.512C429.213 143.674 428.911 141.819 428.154 140.134C426.419 136.43 425.265 132.48 424.732 128.424Z" fill="#EBEBEB"/>
<path d="M427.107 102.432C425.943 106.005 422.765 108.252 419.96 107.298C417.154 106.343 415.816 102.781 416.956 99.1495C418.097 95.5178 421.298 93.3295 424.103 94.284C426.909 95.2385 428.247 98.8469 427.107 102.432Z" fill="#EBEBEB"/>
<path d="M413.977 101.792C413.977 104.422 412.242 106.529 410.182 106.448C408.122 106.366 406.48 104.271 406.515 101.64C406.55 99.0098 408.25 96.8913 410.31 96.9263C412.37 96.9612 414.011 99.1611 413.977 101.792Z" fill="#EBEBEB"/>
<path d="M404.816 103.84C405.84 105.959 405.328 108.333 403.652 109.137C401.976 109.94 399.811 108.869 398.786 106.75C397.762 104.632 398.274 102.257 399.95 101.454C401.627 100.651 403.78 101.722 404.816 103.84Z" fill="#EBEBEB"/>
<path d="M398.146 109.323C399.892 110.638 400.474 112.815 399.45 114.188C398.426 115.562 396.167 115.597 394.421 114.282C392.675 112.966 392.093 110.79 393.118 109.428C394.142 108.066 396.389 108.008 398.146 109.323Z" fill="#EBEBEB"/>
<path d="M395.027 116.482C396.831 117.029 397.96 118.623 397.529 120.043C397.099 121.463 395.294 122.22 393.432 121.626C391.57 121.033 390.487 119.485 390.918 118.065C391.348 116.644 393.211 115.934 395.027 116.482Z" fill="#EBEBEB"/>
<path d="M443.484 128.424C443.651 126.878 443.69 125.321 443.6 123.768C443.507 121.917 443.6 120.032 443.6 118.181C443.67 111.593 448.07 107.542 454.53 107.623C457.417 107.623 460.595 109.311 462.911 110.894C474.4 118.763 470.163 136.048 462.911 145C460.54 147.848 457.687 150.259 454.484 152.123C450.48 154.335 443.868 154.451 441.109 150.61C440.036 149.107 439.374 147.349 439.19 145.512C439.006 143.674 439.307 141.82 440.062 140.134C441.797 136.43 442.951 132.48 443.484 128.424Z" fill="#EBEBEB"/>
<path d="M441.075 102.432C442.239 106.005 445.405 108.252 448.21 107.298C451.015 106.343 452.365 102.781 451.225 99.1495C450.084 95.5178 446.883 93.3295 444.078 94.284C441.272 95.2385 439.992 98.8469 441.075 102.432Z" fill="#EBEBEB"/>
<path d="M454.204 101.792C454.204 104.422 455.939 106.529 457.999 106.448C460.059 106.366 461.701 104.271 461.666 101.64C461.631 99.0098 459.931 96.8913 457.871 96.9263C455.811 96.9612 454.169 99.1611 454.204 101.792Z" fill="#EBEBEB"/>
<path d="M463.365 103.84C462.341 105.959 462.853 108.333 464.529 109.137C466.205 109.94 468.37 108.869 469.395 106.75C470.419 104.632 469.918 102.257 468.231 101.454C466.543 100.651 464.436 101.722 463.365 103.84Z" fill="#EBEBEB"/>
<path d="M470.035 109.323C468.289 110.638 467.707 112.815 468.731 114.188C469.755 115.562 472.014 115.597 473.76 114.282C475.506 112.966 476.088 110.79 475.063 109.428C474.039 108.066 471.781 108.008 470.035 109.323Z" fill="#EBEBEB"/>
<path d="M473.154 116.482C471.338 117.029 470.221 118.623 470.64 120.043C471.059 121.463 472.887 122.162 474.702 121.626C476.518 121.091 477.636 119.485 477.217 118.065C476.798 116.644 474.97 115.934 473.154 116.482Z" fill="#EBEBEB"/>
<path d="M554.658 529.702C554.658 529.865 437.094 530.004 292.176 530.004C147.258 530.004 29.6703 529.865 29.6703 529.702C29.6703 529.539 147.234 529.399 292.176 529.399C437.117 529.399 554.658 529.527 554.658 529.702Z" fill="#263238"/>
<path d="M308.588 229.529C308.588 229.529 219.845 240.855 219.519 241.821C219.193 242.787 223.732 279.255 223.732 279.255C223.732 279.255 275.344 329.04 276.648 329.575C277.952 330.11 294.166 320.973 294.166 320.973L308.588 229.529Z" fill="#FFBE9D"/>
<path d="M333.044 203.2C332.706 195.901 335.43 188.847 337.7 181.91C339.969 174.973 341.913 167.476 339.958 160.423C337.49 151.564 329.482 145.407 325.245 137.271C321.008 129.134 320.589 119.496 319.879 110.289C319.169 101.082 317.551 91.3391 311.463 84.4017C303.746 75.6368 283.527 74.0537 274.006 80.8166C272.527 133.197 260.131 186.135 271.328 237.281C297.017 238.326 322.494 232.243 344.94 219.705C337.804 218.238 333.393 210.509 333.044 203.2Z" fill="#4A3638"/>
<path d="M221.474 241.251L214.281 109.311C214.148 106.51 215.07 103.76 216.865 101.605C218.66 99.4504 221.198 98.0467 223.977 97.6712L282.968 80.9562C301.942 78.407 315.258 101.478 317.004 120.532C318.948 141.705 320.496 167.639 318.412 183.54C314.268 215.515 289.987 220.264 289.987 220.264L290.337 238.492L278.638 278.871L221.474 241.251Z" fill="#FFBE9D"/>
<path d="M308.786 148.201C308.84 149.273 308.47 150.324 307.755 151.125C307.041 151.927 306.04 152.415 304.968 152.484C304.45 152.539 303.927 152.489 303.429 152.339C302.93 152.188 302.467 151.94 302.066 151.608C301.665 151.277 301.334 150.868 301.093 150.407C300.852 149.946 300.705 149.441 300.661 148.922C300.619 147.859 300.994 146.822 301.704 146.031C302.415 145.24 303.406 144.757 304.467 144.685C304.983 144.627 305.504 144.673 306.002 144.819C306.499 144.965 306.963 145.209 307.365 145.536C307.767 145.863 308.1 146.268 308.344 146.725C308.588 147.183 308.738 147.684 308.786 148.201Z" fill="#263238"/>
<path d="M311.766 134.198C311.265 134.745 308.111 132.545 303.722 132.684C299.334 132.824 296.168 135.105 295.679 134.582C295.435 134.349 295.924 133.418 297.297 132.254C299.166 130.889 301.409 130.129 303.722 130.077C306.005 130.008 308.25 130.664 310.136 131.951C311.521 133.01 312.01 133.953 311.766 134.198Z" fill="#263238"/>
<path d="M268.186 148.2C268.227 149.265 267.851 150.304 267.138 151.095C266.425 151.887 265.431 152.368 264.368 152.437C263.849 152.492 263.325 152.443 262.826 152.292C262.327 152.142 261.863 151.894 261.461 151.562C261.059 151.231 260.727 150.822 260.485 150.361C260.242 149.9 260.094 149.395 260.049 148.876C260.008 147.811 260.383 146.772 261.097 145.981C261.81 145.189 262.804 144.708 263.867 144.639C264.386 144.582 264.91 144.631 265.41 144.78C265.91 144.93 266.374 145.178 266.777 145.51C267.179 145.842 267.511 146.251 267.753 146.713C267.995 147.175 268.142 147.681 268.186 148.2Z" fill="#263238"/>
<path d="M268.605 136.246C268.116 136.793 264.95 134.593 260.561 134.733C256.173 134.873 253.007 137.154 252.518 136.63C252.274 136.398 252.763 135.466 254.136 134.361C256.003 132.992 258.247 132.232 260.561 132.184C262.844 132.109 265.091 132.766 266.975 134.058C268.36 135.024 268.884 136.002 268.605 136.246Z" fill="#263238"/>
<path d="M285.471 168.373C285.471 168.128 288.16 167.581 292.571 166.883C293.735 166.743 294.748 166.487 294.899 165.719C294.966 164.557 294.673 163.403 294.061 162.413C292.897 159.724 291.733 156.907 290.499 153.962C285.541 141.927 281.921 132.021 282.351 131.846C282.782 131.672 287.252 141.24 292.199 153.276C293.394 156.248 294.535 159.08 295.621 161.773C296.087 163.041 296.855 164.462 296.331 166.161C296.181 166.562 295.94 166.923 295.627 167.216C295.314 167.509 294.937 167.725 294.527 167.849C293.912 168.041 293.274 168.15 292.63 168.175C288.253 168.524 285.494 168.629 285.471 168.373Z" fill="#263238"/>
<path d="M289.987 220.275C275.002 220.93 260.128 217.412 247.024 210.114C247.024 210.114 258.373 232.497 290.15 228.61L289.987 220.275Z" fill="#EB996E"/>
<path d="M285.18 178.837C284.148 177.417 282.787 176.268 281.214 175.49C279.641 174.711 277.902 174.326 276.147 174.367C275 174.415 273.882 174.743 272.89 175.321C271.898 175.899 271.063 176.71 270.455 177.685C269.782 178.81 269.467 180.114 269.553 181.422C269.639 182.731 270.123 183.982 270.938 185.009C271.754 186.036 272.863 186.789 274.119 187.17C275.374 187.55 276.715 187.538 277.963 187.136C280.388 186.277 282.569 184.843 284.319 182.958C284.879 182.496 285.336 181.921 285.657 181.27C285.816 180.911 285.878 180.517 285.837 180.127C285.796 179.737 285.654 179.365 285.424 179.047" fill="#EB996E"/>
<path d="M272.632 171.783C273.342 171.725 273.482 176.439 277.661 179.757C281.839 183.074 286.903 182.352 286.973 183.027C287.042 183.318 285.867 183.982 283.725 184.098C280.932 184.218 278.187 183.348 275.973 181.642C273.847 180.004 272.44 177.604 272.05 174.949C271.806 172.959 272.306 171.76 272.632 171.783Z" fill="#263238"/>
<path d="M270.048 118.111C269.652 119.275 265.252 118.868 260.119 119.636C254.986 120.404 250.807 121.964 250.132 120.881C249.818 120.381 250.504 119.229 252.157 118.03C254.356 116.557 256.86 115.602 259.48 115.235C262.101 114.868 264.771 115.099 267.289 115.911C269.222 116.621 270.199 117.564 270.048 118.111Z" fill="#E0E0E0"/>
<path d="M290.011 80.1414C284.551 66.2316 272.714 65.0094 260.038 63.5777C247.362 62.146 228.551 67.6983 218.075 74.9849C209.927 80.6769 200.709 87.8587 194.795 95.9369C189.173 103.643 186.647 112.454 183.155 121.347C177.731 135.187 178.069 150.447 177.335 165.323C176.366 183.981 173.555 202.497 168.943 220.601C167.779 225.257 166.522 230.682 169.234 234.697C171.702 238.329 176.474 239.446 180.816 240.075C193.708 241.937 206.791 242.066 219.717 240.459L234.29 243.183C248.84 233.615 232.218 151.285 230.216 138.737C230.262 138.702 225.42 71.0855 290.011 80.1414Z" fill="#4A3638"/>
<path d="M285.785 80.4441C281.653 83.3541 279.767 88.5921 279.081 93.5856C278.394 98.5792 278.696 103.724 277.765 108.718C276.785 113.701 274.62 118.375 271.454 122.346C268.287 126.317 264.212 129.467 259.572 131.532C256.615 132.812 252.588 133.336 250.714 130.682C250.829 134.207 249.874 137.683 247.975 140.654C246.076 143.625 243.322 145.952 240.075 147.328C235.419 149.225 230.065 148.934 225.106 150.028C220.147 151.122 214.933 154.556 214.63 159.631L212.535 124.292L222.475 93.0385L253.054 74.8103L285.785 80.4441Z" fill="#4A3638"/>
<path d="M231.636 138.702C233.606 137.428 235.304 135.776 236.633 133.842C237.961 131.909 238.894 129.731 239.377 127.435C240.607 122.505 241.321 117.461 241.507 112.384C241.937 106.657 242.182 100.29 243.66 93.7602C245.138 87.2302 247.932 81.2821 252.006 77.0685C253.89 75.0441 256.157 73.414 258.676 72.2728C260.885 71.2958 263.249 70.7166 265.66 70.5617C269.144 70.2627 272.633 71.0778 275.624 72.8897C276.089 73.1731 276.529 73.4963 276.939 73.8558C277.26 74.0883 277.553 74.3578 277.812 74.659C278.05 74.8833 278.272 75.1245 278.475 75.3807C277.548 74.5292 276.555 73.7508 275.507 73.0527C272.515 71.3685 269.075 70.6528 265.66 71.004C260.58 71.3943 255.839 73.7042 252.402 77.4642C248.467 81.6081 245.732 87.4863 244.254 93.9115C242.775 100.337 242.519 106.716 242.065 112.431C241.611 118.146 241.099 123.372 239.737 127.563C238.816 130.919 237.076 133.995 234.674 136.514C233.791 137.409 232.764 138.149 231.636 138.702Z" fill="white"/>
<path d="M205.108 134.442C206.704 134.258 208.27 133.867 209.764 133.278C213.732 131.359 217.104 128.398 219.519 124.711C221.263 122.227 222.764 119.58 224 116.807C225.323 113.593 226.163 110.2 226.491 106.739C226.933 103.084 227.096 99.2077 227.515 95.1919C227.722 93.146 228.044 91.1134 228.482 89.1042C228.95 87.0352 229.617 85.0161 230.472 83.0747C233.902 75.6439 239.996 69.7706 247.548 66.6157C253.706 64.1011 260.512 63.6438 266.952 65.312C271.277 66.3718 275.33 68.3311 278.848 71.0622C280.121 72.0471 281.291 73.1586 282.34 74.3796L282.095 74.1817L281.409 73.5415C281.118 73.2622 280.745 72.913 280.245 72.5405C279.724 72.0825 279.18 71.6512 278.615 71.2484C275.079 68.6239 271.048 66.743 266.765 65.7194C260.413 64.1474 253.725 64.645 247.676 67.1395C240.274 70.2571 234.305 76.0276 230.938 83.3191C230.091 85.2266 229.428 87.2105 228.959 89.2439C228.52 91.2293 228.197 93.2387 227.993 95.2617C227.562 99.2426 227.387 103.13 226.933 106.809C226.576 110.321 225.701 113.761 224.338 117.017C223.079 119.81 221.543 122.47 219.752 124.955C217.275 128.68 213.808 131.639 209.741 133.499C208.619 133.941 207.446 134.238 206.249 134.384H205.306C205.242 134.41 205.176 134.429 205.108 134.442Z" fill="white"/>
<path d="M250.691 130.636C250.701 130.732 250.701 130.83 250.691 130.927C250.691 131.16 250.691 131.451 250.609 131.811C250.528 132.172 250.528 132.684 250.435 133.243C250.341 133.802 250.178 134.407 250.039 135.175C249.589 136.943 248.904 138.642 248.002 140.227C246.787 142.345 245.146 144.188 243.183 145.64C238.818 148.98 232.113 150.528 224.85 150.179C221.014 150 217.209 149.407 213.501 148.41C209.424 147.405 205.506 145.838 201.861 143.754L201.139 143.323L201.977 143.207C206.621 142.545 211.13 141.155 215.34 139.086L215.561 138.97L215.747 139.54C206.277 141.067 196.569 139.326 188.219 134.605L187.672 134.291L188.265 134.104C194.14 132.322 199.656 129.521 204.561 125.828C208.384 122.901 211.327 118.979 213.07 114.491C214.074 111.524 214.551 108.404 214.479 105.272C214.397 104.213 214.327 103.375 214.281 102.781V102.129V101.908C214.281 101.908 214.281 101.978 214.281 102.129C214.281 102.281 214.281 102.502 214.362 102.77C214.432 103.375 214.525 104.201 214.642 105.261C214.797 108.415 214.371 111.572 213.384 114.573C211.67 119.169 208.712 123.199 204.841 126.213C199.899 129.977 194.325 132.831 188.382 134.64V134.128C196.629 138.756 206.2 140.459 215.538 138.958L217.586 138.621L215.724 139.529L215.491 139.645C211.239 141.729 206.687 143.135 202.001 143.812L202.117 143.253C205.69 145.324 209.533 146.891 213.536 147.909C217.205 148.907 220.971 149.508 224.768 149.702C231.95 150.086 238.55 148.596 242.845 145.384C244.785 143.974 246.417 142.184 247.641 140.122C248.543 138.569 249.243 136.906 249.725 135.175C249.887 134.454 250.039 133.813 250.167 133.255C250.295 132.696 250.33 132.23 250.4 131.846L250.528 130.973C250.559 130.851 250.615 130.737 250.691 130.636Z" fill="white"/>
<path d="M185.344 227.283C185.181 227.283 187.113 209.194 189.662 186.904C192.211 164.613 194.411 146.571 194.586 146.594C194.76 146.617 192.817 164.694 190.267 186.973C187.718 209.252 185.507 227.306 185.344 227.283Z" fill="white"/>
<path d="M203.374 231.636C203.31 231.389 203.274 231.135 203.269 230.879C203.269 230.309 203.153 229.587 203.071 228.691C202.92 226.794 202.734 224.035 202.559 220.636C202.187 213.827 201.873 204.41 201.896 194.004C201.919 183.598 202.292 174.216 202.699 167.383C202.908 163.973 203.106 161.226 203.269 159.328C203.351 158.432 203.421 157.699 203.467 157.14C203.479 156.884 203.518 156.631 203.584 156.383C203.612 156.639 203.612 156.896 203.584 157.152C203.584 157.71 203.584 158.444 203.491 159.34C203.397 161.319 203.269 163.996 203.118 167.395C202.815 174.204 202.524 183.609 202.489 194.004C202.455 204.398 202.711 213.792 202.967 220.613C203.106 223.965 203.223 226.701 203.304 228.679C203.304 229.576 203.362 230.309 203.374 230.868C203.402 231.123 203.402 231.381 203.374 231.636Z" fill="white"/>
<path d="M274.401 169.828C273.127 169.709 271.842 169.839 270.618 170.212C269.478 170.79 268.459 171.58 267.615 172.54C267.545 172.54 267.615 172.051 268.104 171.434C268.686 170.635 269.483 170.017 270.402 169.652C271.32 169.287 272.324 169.191 273.296 169.374C274.029 169.513 274.425 169.758 274.401 169.828Z" fill="#EB996E"/>
<path d="M271.887 166.662C271.315 166.874 270.732 167.056 270.141 167.209C268.769 167.69 267.554 168.538 266.629 169.66C265.703 170.782 265.103 172.137 264.891 173.576C264.717 174.681 264.787 175.392 264.694 175.403C264.437 174.814 264.356 174.163 264.461 173.529C264.576 171.966 265.176 170.477 266.178 169.271C267.179 168.065 268.532 167.202 270.048 166.801C270.637 166.591 271.273 166.542 271.887 166.662Z" fill="#EB996E"/>
<path d="M247.851 244.51C247.851 244.51 247.513 244.324 247.327 243.695C247.169 242.819 247.274 241.916 247.629 241.099C247.967 240.098 248.526 238.771 247.734 237.677C247.397 237.095 246.838 236.513 246.465 235.791C246.265 235.384 246.181 234.929 246.221 234.476C246.29 234.032 246.444 233.605 246.675 233.219C247.141 232.574 247.569 231.901 247.955 231.205C248.218 230.566 248.263 229.859 248.083 229.192C247.769 227.865 247.059 226.724 246.919 225.595C246.702 224.713 246.827 223.781 247.269 222.987C247.629 222.452 248.002 222.347 248.002 222.371C248.002 222.394 247.722 222.592 247.466 223.104C247.15 223.865 247.105 224.711 247.338 225.502C247.548 226.526 248.293 227.609 248.677 229.064C248.903 229.852 248.854 230.693 248.537 231.45C248.152 232.167 247.72 232.859 247.245 233.522C247.037 233.81 246.91 234.148 246.875 234.502C246.84 234.856 246.9 235.212 247.047 235.535C247.35 236.187 247.885 236.699 248.211 237.386C248.61 238.024 248.751 238.79 248.607 239.528C248.474 240.119 248.283 240.696 248.037 241.251C247.663 241.992 247.498 242.821 247.56 243.648C247.633 243.943 247.73 244.231 247.851 244.51Z" fill="#EB996E"/>
<path d="M251.727 245.22C251.727 245.22 251.389 245.034 251.214 244.405C251.05 243.529 251.156 242.624 251.517 241.809C251.855 240.808 252.402 239.481 251.622 238.387C251.164 237.783 250.74 237.153 250.353 236.502C250.145 236.096 250.06 235.639 250.109 235.186C250.166 234.739 250.321 234.31 250.563 233.929C251.005 233.172 251.54 232.579 251.831 231.915C252.103 231.279 252.153 230.569 251.971 229.902C251.657 228.563 250.935 227.434 250.807 226.293C250.586 225.417 250.707 224.489 251.145 223.698C251.505 223.15 251.89 223.057 251.89 223.081C251.89 223.104 251.61 223.302 251.354 223.814C251.029 224.573 250.984 225.422 251.226 226.212C251.436 227.236 252.169 228.319 252.553 229.774C252.769 230.542 252.724 231.361 252.425 232.102C252.037 232.818 251.605 233.51 251.133 234.174C250.925 234.462 250.797 234.8 250.763 235.154C250.728 235.507 250.787 235.864 250.935 236.187C251.226 236.827 251.762 237.351 252.099 238.038C252.499 238.671 252.636 239.435 252.483 240.168C252.355 240.765 252.164 241.346 251.913 241.903C251.547 242.646 251.386 243.474 251.447 244.3C251.511 244.615 251.604 244.923 251.727 245.22Z" fill="#EB996E"/>
<path d="M315.444 147.956C315.549 148.084 315.025 148.643 314.129 148.771C313.232 148.899 312.569 148.515 312.639 148.363C312.709 148.212 313.325 148.282 314.047 148.177C314.769 148.072 315.281 147.828 315.444 147.956Z" fill="#EB996E"/>
<path d="M315.444 152.053C315.328 152.193 314.618 151.739 313.675 151.413C312.732 151.087 311.894 150.948 311.894 150.773C311.894 150.598 312.813 150.447 313.873 150.843C314.932 151.239 315.514 151.949 315.444 152.053Z" fill="#EB996E"/>
<path d="M249.212 148.724C249.212 148.887 248.281 149.039 247.222 148.643C246.163 148.247 245.557 147.479 245.674 147.397C245.79 147.316 246.489 147.723 247.431 148.072C248.374 148.422 249.201 148.55 249.212 148.724Z" fill="#EB996E"/>
<path d="M249.771 150.761C249.771 150.936 248.898 150.924 247.909 151.076C246.919 151.227 246.116 151.471 246.035 151.32C245.953 151.169 246.71 150.633 247.816 150.47C248.921 150.307 249.806 150.61 249.771 150.761Z" fill="#EB996E"/>
<path d="M364.635 297.053L367.242 229.005C367.242 229.005 362.016 223.767 347.885 224.291C333.754 224.815 308.099 229.529 308.099 229.529L281.886 309.985L220.683 237.898L181.945 257.244L201.838 403.303L209.695 466.648C209.695 466.648 185.088 506.945 185.611 529.504C215.806 528.887 316.62 529.574 325.408 529.364C325.408 529.364 399.904 529.981 403.873 529.702L364.635 297.053Z" fill="#842F24"/>
<path d="M135.862 347.303C135.862 347.303 159.934 263.495 182.422 257.267L193.934 279.779L202.315 376.612L135.862 347.303Z" fill="#842F24"/>
<path d="M365.799 227.632L433.73 297.181L371.048 336.233L353.716 290.011L365.799 227.632Z" fill="#842F24"/>
<path d="M365.799 279.558C365.873 279.741 365.924 279.932 365.95 280.128C366.031 280.582 366.136 281.129 366.264 281.793C366.532 283.236 366.869 285.285 367.254 287.915C368.01 293.107 368.872 300.289 369.582 308.25C370.292 316.212 370.92 323.382 371.351 328.632C371.549 331.17 371.723 333.288 371.84 334.813C371.84 335.488 371.921 336.047 371.956 336.501C371.987 336.694 371.987 336.89 371.956 337.083C371.89 336.899 371.851 336.707 371.84 336.512C371.77 336.058 371.7 335.511 371.607 334.836C371.421 333.381 371.188 331.274 370.92 328.667C370.42 323.371 369.756 316.212 368.988 308.309C368.22 300.405 367.44 293.177 366.788 287.974L365.996 281.828C365.915 281.153 365.845 280.605 365.799 280.151C365.768 279.955 365.768 279.755 365.799 279.558Z" fill="#263238"/>
<path d="M351.446 299.602C350.991 299.726 350.522 299.792 350.05 299.8L346.208 300.149C342.984 300.452 338.526 300.941 333.626 301.685C328.725 302.43 324.314 303.315 321.159 304.013L317.399 304.828C316.944 304.959 316.476 305.041 316.003 305.073C316.427 304.861 316.877 304.705 317.341 304.607C318.214 304.339 319.483 303.99 321.066 303.606C324.22 302.815 328.62 301.872 333.533 301.115C338.445 300.359 342.926 299.951 346.185 299.753C347.803 299.648 349.118 299.602 350.026 299.59C350.499 299.549 350.975 299.553 351.446 299.602Z" fill="white"/>
<path d="M187.963 321.182C188.032 321.435 188.087 321.692 188.126 321.951C188.23 322.521 188.347 323.254 188.498 324.174C188.824 326.164 189.278 328.935 189.825 332.322C190.989 339.213 192.572 348.699 194.481 359.164C196.39 369.628 198.404 379.057 199.894 385.866C200.627 389.218 201.232 391.954 201.675 393.932C201.873 394.84 202.024 395.562 202.152 396.132C202.223 396.383 202.266 396.641 202.28 396.901C202.171 396.662 202.089 396.412 202.035 396.156L201.442 393.991C200.953 392.105 200.278 389.335 199.475 385.959C197.88 379.173 195.866 369.733 193.887 359.269C191.909 348.804 190.395 339.294 189.336 332.392C188.836 328.9 188.44 326.141 188.172 324.244C188.067 323.324 187.986 322.579 187.916 322.009C187.895 321.733 187.911 321.455 187.963 321.182Z" fill="#263238"/>
<g opacity="0.3">
<path d="M386.599 462.166C384.481 461.782 382.397 462.899 380.535 463.994L353.74 479.568C346.371 483.863 338.352 488.31 329.866 487.483C322.812 486.808 316.678 482.594 310.672 478.823C287.019 463.959 236.176 461.549 208.507 457.568C217.051 467.823 231.95 472.468 244.778 476.192C257.605 479.917 271.002 482.757 282.095 490.16C290.779 495.98 297.879 504.501 307.703 508.016C315.991 510.973 325.094 509.96 333.824 508.912C346.93 507.353 360.724 505.514 371.188 497.482C378.172 492.151 382.921 484.573 387.577 477.158C389.16 474.633 390.801 471.967 391.011 469.01C391.22 466.054 389.544 462.69 386.599 462.166Z" fill="black"/>
</g>
<path d="M324.465 229.064C324.465 229.064 324.465 229.227 324.349 229.541L323.965 230.903L322.428 236.152C321.054 240.808 319.076 247.373 316.608 255.614C311.626 272.132 304.689 295.121 296.82 321.124V321.299H296.645L281.979 324.244L277.73 325.094H277.567L277.451 324.966C257.582 302.85 239.772 283.003 226.968 268.605L211.848 251.61L207.821 246.954C207.329 246.431 206.888 245.862 206.505 245.255C206.505 245.255 206.622 245.406 206.854 245.674L207.914 246.838C208.868 247.92 210.242 249.469 212.023 251.494L227.236 268.442L277.858 324.675L277.567 324.581L281.804 323.732L296.482 320.787L296.25 320.996C304.176 295.016 311.172 272.05 316.201 255.545C318.738 247.327 320.775 240.715 322.184 236.141L323.825 230.914C324.011 230.344 324.151 229.89 324.255 229.564C324.36 229.238 324.465 229.064 324.465 229.064Z" fill="#263238"/>
<path d="M287.624 452.086C283.981 441.61 287.624 429.9 293.188 420.297C298.752 410.694 306.272 402.29 311.393 392.443C317.772 380.162 320.182 366.148 326.409 353.798C335.989 334.778 353.635 321.345 370.699 308.611C379.057 302.361 387.891 295.912 398.228 294.469C408.96 292.955 419.61 297.088 429.539 301.453C439.468 305.818 449.514 310.765 456.311 319.111C468.149 333.695 466.857 355.718 457.848 372.212C448.838 388.706 433.567 400.73 418.202 411.544C402.837 422.357 386.704 432.624 374.703 447.081C367.801 455.392 362.225 465.123 353.367 471.304C346.174 476.32 337.362 478.567 328.632 479.277C318.901 480.069 308.693 478.939 300.312 473.911C291.931 468.882 285.82 459.407 286.775 449.688" fill="#E0E0E0"/>
<path d="M372.596 354.682L378.265 347.489C370.001 338.875 370.606 327.003 378.568 315.863C382.805 309.927 383.131 309.054 393.374 297.146C403.617 285.238 412.801 282.771 412.801 282.771C417.745 281.386 422.965 281.323 427.94 282.587C432.916 283.852 437.473 286.399 441.156 289.976C450.119 298.345 453.436 311.289 452.738 320.694C452.391 325.356 450.34 329.727 446.976 332.974C439.27 340.412 424.639 354.508 420.623 358.256C418.067 360.498 415.703 362.951 413.558 365.589L405.41 374.482C402.092 378.832 397.196 381.702 391.779 382.473C386.363 383.244 380.861 381.854 376.461 378.603C367.568 372.038 367.545 362.318 372.596 354.682Z" fill="#FFBE9D"/>
<path d="M434.172 341.902C434.51 341.995 446.51 346.872 438.316 356.556C430.121 366.241 422.078 356.021 422.288 355.73C422.497 355.439 434.172 341.902 434.172 341.902Z" fill="#FFBE9D"/>
<path d="M428.352 354.566C428.422 354.566 428.422 354.822 428.585 355.195C428.852 355.7 429.295 356.089 429.83 356.289C431.169 356.778 433.404 355.881 434.929 354.17C435.662 353.363 436.204 352.4 436.512 351.353C436.669 350.979 436.735 350.573 436.705 350.168C436.675 349.764 436.549 349.372 436.337 349.025C436.182 348.813 435.959 348.659 435.706 348.59C435.452 348.52 435.182 348.538 434.94 348.641C434.591 348.804 434.486 349.049 434.416 349.025C434.347 349.002 434.347 348.688 434.766 348.35C435.023 348.154 435.339 348.051 435.662 348.059C436.106 348.085 436.523 348.281 436.826 348.606C437.155 349.022 437.373 349.515 437.458 350.039C437.544 350.562 437.494 351.099 437.315 351.598C437.025 352.79 436.44 353.891 435.615 354.799C433.904 356.696 431.355 357.686 429.609 356.906C429.287 356.757 429.001 356.539 428.771 356.267C428.542 355.996 428.375 355.677 428.282 355.334C428.131 354.81 428.259 354.554 428.352 354.566Z" fill="#EB996E"/>
<path d="M393.991 310.136C393.54 310.698 393.325 311.413 393.393 312.13C393.46 312.847 393.804 313.51 394.352 313.977C394.61 314.218 394.914 314.405 395.245 314.526C395.577 314.647 395.93 314.7 396.282 314.683C396.635 314.666 396.981 314.578 397.299 314.425C397.617 314.271 397.901 314.056 398.135 313.791C398.585 313.23 398.8 312.515 398.733 311.797C398.665 311.08 398.321 310.418 397.774 309.95C397.515 309.711 397.21 309.526 396.879 309.405C396.547 309.285 396.195 309.232 395.843 309.249C395.491 309.267 395.146 309.354 394.828 309.506C394.51 309.659 394.225 309.873 393.991 310.136Z" fill="#263238"/>
<path d="M396.924 304.374C396.924 304.875 399.566 304.956 401.894 306.807C404.222 308.658 405.002 311.184 405.479 311.102C405.701 311.102 405.84 310.346 405.479 309.217C405.033 307.714 404.125 306.391 402.884 305.434C401.69 304.453 400.213 303.881 398.67 303.804C397.518 303.804 396.924 304.142 396.924 304.374Z" fill="#263238"/>
<path d="M413.488 325.722C413.033 326.281 412.814 326.996 412.879 327.714C412.945 328.432 413.288 329.096 413.837 329.563C414.096 329.803 414.4 329.988 414.732 330.108C415.063 330.228 415.415 330.281 415.768 330.264C416.12 330.247 416.465 330.159 416.783 330.007C417.101 329.855 417.386 329.641 417.62 329.377C418.071 328.816 418.285 328.1 418.218 327.383C418.151 326.666 417.807 326.004 417.259 325.536C417.003 325.294 416.7 325.107 416.369 324.985C416.038 324.863 415.686 324.809 415.334 324.826C414.982 324.844 414.637 324.932 414.319 325.086C414.002 325.24 413.719 325.456 413.488 325.722Z" fill="#263238"/>
<path d="M417.876 320.822C417.876 321.322 420.518 321.404 422.846 323.255C425.174 325.105 425.954 327.631 426.431 327.55C426.653 327.55 426.792 326.793 426.431 325.664C425.986 324.164 425.082 322.841 423.847 321.881C422.636 320.914 421.148 320.359 419.599 320.298C418.47 320.275 417.876 320.589 417.876 320.822Z" fill="#263238"/>
<path d="M425.163 315.235C425.046 316.049 427.095 317.015 429.074 318.727C431.053 320.438 432.414 322.219 433.194 321.962C433.555 321.823 433.695 321.089 433.369 320.019C432.906 318.647 432.062 317.436 430.936 316.527C429.833 315.582 428.485 314.969 427.048 314.757C425.943 314.594 425.244 314.85 425.163 315.235Z" fill="#263238"/>
<path d="M403.012 296.506C402.895 297.32 404.944 298.287 406.923 299.998C408.902 301.709 410.263 303.49 411.043 303.234C411.404 303.094 411.532 302.361 411.218 301.29C410.743 299.917 409.904 298.7 408.79 297.767C407.677 296.834 406.332 296.221 404.897 295.994C403.792 295.865 403.082 296.122 403.012 296.506Z" fill="#263238"/>
<path d="M398.81 334.417C398.658 334.522 398.81 335.023 399.322 335.581C400.076 336.32 401.081 336.748 402.136 336.778C403.191 336.808 404.219 336.439 405.014 335.744C405.596 335.197 405.747 334.708 405.607 334.58C405.468 334.452 404.013 335.465 402.174 335.395C400.335 335.325 399.101 334.184 398.81 334.417Z" fill="#263238"/>
<path d="M378.3 347.489C378.3 347.489 389.94 357.22 394.433 357.43C394.433 357.43 387.821 361.41 375.809 350.702L378.3 347.489Z" fill="#EB996E"/>
<path d="M403.908 321.078C403.792 320.927 403.105 321.218 402.092 321.8C401.592 322.102 400.998 322.475 400.358 322.964L399.357 323.639C398.928 323.895 398.537 324.208 398.193 324.57C397.983 324.795 397.822 325.061 397.72 325.352C397.617 325.642 397.576 325.951 397.599 326.258C397.657 326.802 397.89 327.312 398.263 327.713C398.585 328.057 398.984 328.32 399.427 328.481C399.775 328.604 400.14 328.67 400.509 328.679C401.801 328.679 402.465 328.353 402.465 328.19C402.465 328.027 401.673 327.945 400.637 327.713C400.092 327.611 399.6 327.318 399.252 326.886C399.09 326.677 398.989 326.427 398.961 326.165C398.969 325.904 399.072 325.655 399.252 325.466C399.521 325.195 399.817 324.953 400.137 324.744L401.091 323.988C401.696 323.499 402.255 323.045 402.662 322.649C403.489 321.8 403.978 321.264 403.908 321.078Z" fill="#263238"/>
<path d="M461.27 355.125C445.684 348.513 428.084 349.305 411.218 350.189C395.516 351.051 379.639 352.017 364.658 356.743C346.115 362.563 329.738 373.935 315.095 386.704L316.317 416.083L385.121 403.512L460.944 357.139" fill="#E0E0E0"/>
<path d="M399.904 290.593C412.987 277.998 424.872 275.53 438.211 283.713C447.29 289.277 453.902 294.69 457.44 305.992C458.449 310.281 458.88 314.685 458.721 319.087C457.196 334.219 450.235 341.203 439.992 346.232L436.838 343.322L432.81 347.489C431.204 346.325 428.724 345.242 427.467 343.741C426.21 342.239 427.712 338.037 428.946 336.524C430.995 334.072 433.275 331.823 435.755 329.808C439.585 326.642 441.761 324.896 443.414 320.868C443.414 320.868 448.198 313.884 444.683 306.702C440.865 298.845 435.115 300.103 427.467 294.154C420.867 289.021 420.902 284.691 414.058 283.993C407.214 283.294 399.904 290.593 399.904 290.593Z" fill="#263238"/>
<path d="M432.135 287.042C431.545 284.697 431.643 282.232 432.417 279.94C433.191 277.649 434.609 275.629 436.5 274.122C436.873 273.843 437.385 273.563 437.792 273.819C437.923 273.939 438.027 274.084 438.097 274.247C438.168 274.409 438.203 274.585 438.199 274.762C438.525 277.465 438.642 280.189 438.549 282.91C439.026 282.08 439.712 281.39 440.539 280.908C440.959 280.678 441.448 280.609 441.916 280.714C442.383 280.819 442.796 281.091 443.077 281.479C443.566 282.317 443.077 283.364 442.704 284.261C441.434 287.28 441.192 290.635 442.017 293.805" fill="#263238"/>
<path d="M392.571 316.841C391.755 315.502 390.706 314.319 389.474 313.349C388.807 312.823 388.026 312.459 387.193 312.288C386.361 312.116 385.5 312.14 384.679 312.359C383.555 312.842 382.643 313.714 382.112 314.816C381.582 315.918 381.468 317.175 381.792 318.354C382.152 319.521 382.775 320.591 383.612 321.481C384.449 322.37 385.479 323.057 386.623 323.487C387.667 324.006 388.847 324.185 389.998 323.999C390.798 323.782 391.522 323.351 392.095 322.752C392.667 322.153 393.065 321.409 393.246 320.601C393.418 319.963 393.447 319.295 393.33 318.645C393.213 317.995 392.954 317.379 392.571 316.841Z" fill="#EFAC8E"/>
<path d="M419.401 334.266C418.052 333.478 416.574 332.934 415.036 332.66C414.205 332.518 413.352 332.57 412.544 332.812C411.737 333.055 410.996 333.481 410.38 334.056C409.611 335.004 409.211 336.198 409.253 337.417C409.296 338.637 409.779 339.8 410.613 340.691C411.481 341.552 412.534 342.203 413.692 342.594C414.85 342.986 416.082 343.107 417.294 342.949C418.464 342.91 419.592 342.502 420.518 341.785C421.121 341.217 421.556 340.495 421.776 339.696C421.996 338.897 421.991 338.054 421.764 337.257C421.616 336.615 421.328 336.013 420.919 335.496C420.51 334.978 419.992 334.558 419.401 334.266Z" fill="#EFAC8E"/>
<path d="M463.935 355.183L463.528 355.09L462.364 354.752L460.49 354.182L457.894 353.507C452.361 352.144 446.729 351.214 441.051 350.725C432.632 350.013 424.175 349.85 415.734 350.236C410.962 350.434 405.957 350.702 400.788 351.167C398.204 351.4 395.562 351.563 392.908 351.912C390.254 352.261 387.542 352.494 384.83 352.96C374.572 354.329 364.514 356.916 354.869 360.665C347.051 363.875 339.614 367.943 332.694 372.794C326.77 376.903 322.218 380.547 318.983 383.003C317.411 384.167 316.177 385.179 315.316 385.866L314.35 386.599L314.012 386.832C314.012 386.832 314.105 386.727 314.315 386.541L315.234 385.761L318.831 382.816C321.997 380.302 326.537 376.612 332.45 372.433C339.369 367.52 346.819 363.401 354.659 360.153C364.333 356.35 374.433 353.735 384.737 352.366C387.461 351.901 390.173 351.644 392.885 351.319C395.597 350.993 398.193 350.806 400.788 350.574C405.968 350.12 410.985 349.864 415.757 349.677C424.224 349.31 432.706 349.517 441.144 350.294C446.835 350.824 452.472 351.821 457.999 353.274L460.583 354.007L462.457 354.636L463.621 355.032L463.935 355.183Z" fill="#263238"/>
<path d="M382.002 425.256C381.745 425.138 381.5 424.997 381.268 424.837L379.243 423.556C378.37 422.986 377.287 422.299 375.995 421.566C374.703 420.833 373.283 419.936 371.607 419.11L368.988 417.76C368.08 417.294 367.102 416.875 366.125 416.398C364.146 415.432 361.969 414.594 359.688 413.651C349.714 409.777 339.228 407.381 328.562 406.539C326.106 406.399 323.767 406.213 321.578 406.224C320.484 406.224 319.425 406.224 318.412 406.224L315.491 406.318C313.617 406.318 311.94 406.527 310.462 406.632C308.984 406.737 307.715 406.876 306.691 407.016L304.293 407.284C304.016 407.332 303.735 407.351 303.455 407.342C303.723 407.255 304 407.197 304.281 407.167L306.609 406.783C307.645 406.609 308.937 406.422 310.392 406.294C311.847 406.166 313.547 405.945 315.421 405.887L318.354 405.759C319.378 405.759 320.438 405.759 321.532 405.759C323.743 405.759 326.083 405.887 328.516 406.027C339.249 406.798 349.8 409.208 359.804 413.173C362.132 414.128 364.274 414.989 366.241 415.979C367.23 416.468 368.197 416.898 369.104 417.376L371.689 418.772C373.353 419.622 374.773 420.553 376.042 421.321C377.311 422.09 378.37 422.788 379.243 423.393L381.21 424.779C381.492 424.905 381.758 425.065 382.002 425.256Z" fill="#263238"/>
<path d="M385.982 299.951C385.982 299.951 385.843 300.172 385.517 300.533L384.12 302.116C383.491 302.791 382.712 303.629 381.85 304.63C380.989 305.631 379.953 306.726 378.905 308.006C376.729 310.52 374.249 313.617 371.642 317.132C369.035 320.647 366.322 324.663 363.657 328.97C360.991 333.276 358.71 337.548 356.731 341.459C354.752 345.37 353.146 349.002 351.889 352.075C351.225 353.6 350.725 355.008 350.213 356.242C349.701 357.476 349.328 358.57 349.049 359.408C348.769 360.246 348.49 360.887 348.304 361.41C348.217 361.645 348.116 361.875 348.001 362.097C348.028 361.849 348.09 361.606 348.187 361.375C348.35 360.84 348.56 360.211 348.828 359.327C349.095 358.442 349.468 357.36 349.933 356.114C350.399 354.869 350.888 353.449 351.528 351.912C352.692 348.816 354.345 345.184 356.266 341.215C358.186 337.246 360.526 332.997 363.18 328.655C365.834 324.314 368.604 320.344 371.235 316.806C373.865 313.267 376.403 310.218 378.614 307.727C379.685 306.458 380.733 305.399 381.629 304.398C382.525 303.397 383.328 302.605 383.957 301.953L385.482 300.452C385.637 300.274 385.805 300.107 385.982 299.951Z" fill="#263238"/>
<path d="M350.667 371.258L353.286 376.554L359.129 377.404L354.892 381.524L355.893 387.356L350.667 384.609L345.429 387.356L346.43 381.524L342.204 377.404L348.048 376.554L350.667 371.258Z" fill="white"/>
<path d="M337.804 415.047L340.423 420.344L346.278 421.193L342.041 425.326L343.042 431.146L337.804 428.399L332.578 431.146L333.579 425.326L329.342 421.193L335.197 420.344L337.804 415.047Z" fill="white"/>
<path d="M415.443 369.314L415.571 374.098L419.587 376.705L415.082 378.312L413.848 382.944L410.915 379.15L406.143 379.394L408.843 375.448L407.121 370.978L411.718 372.329L415.443 369.314Z" fill="white"/>
<path d="M375.739 393.304L376.938 396.202L380.011 396.854L377.625 398.891L377.962 402.011L375.285 400.369L372.422 401.65L373.143 398.6L371.048 396.284L374.168 396.028L375.739 393.304Z" fill="white"/>
<path d="M316.829 443.647L318.028 446.534L321.101 447.186L318.715 449.223L319.052 452.342L316.375 450.712L313.512 451.993L314.233 448.943L312.138 446.615L315.258 446.359L316.829 443.647Z" fill="white"/>
<path d="M306.074 422.451L307.284 425.349L310.357 425.989L307.971 428.038L308.309 431.157L305.632 429.516L302.768 430.796L303.49 427.747L301.395 425.43L304.514 425.174L306.074 422.451Z" fill="white"/>
<path d="M339.213 348.851L340.423 351.738L343.485 352.389L341.11 354.426L341.436 357.546L338.771 355.916L335.907 357.197L336.629 354.147L334.522 351.819L337.653 351.563L339.213 348.851Z" fill="white"/>
<path d="M386.285 362.691L387.496 365.589L390.557 366.241L388.182 368.278L388.52 371.398L385.843 369.768L382.979 371.037L383.701 367.987L381.606 365.671L384.725 365.415L386.285 362.691Z" fill="white"/>
<path d="M401.51 397.657L402.709 400.556L405.782 401.196L403.396 403.245L403.733 406.352L401.056 404.723L398.193 406.003L398.926 402.954L396.819 400.626L399.95 400.369L401.51 397.657Z" fill="white"/>
<path d="M365.054 341.913L366.253 344.8L369.326 345.452L366.951 347.489L367.277 350.608L364.6 348.979L361.736 350.259L362.47 347.21L360.363 344.882L363.482 344.625L365.054 341.913Z" fill="white"/>
<path d="M442.145 360.619L443.356 363.506L446.417 364.157L444.043 366.194L444.38 369.314L441.703 367.684L438.84 368.965L439.561 365.915L437.466 363.587L440.586 363.331L442.145 360.619Z" fill="white"/>
<path d="M456.032 340.552L457.231 343.45L460.304 344.09L457.929 346.139L458.255 349.258L455.578 347.617L452.714 348.897L453.448 345.848L451.341 343.52L454.472 343.275L456.032 340.552Z" fill="white"/>
<path d="M324.104 392.361L325.315 395.259L328.376 395.9L326.001 397.948L326.327 401.056L323.662 399.427L320.798 400.707L321.52 397.657L319.413 395.329L322.544 395.085L324.104 392.361Z" fill="white"/>
<path d="M154.032 355.311C154.032 355.311 156.22 431.984 161.61 440.376C164.438 444.788 286.542 482.28 286.542 482.28L296.122 453.82L202.338 396.924L198.474 374.936L154.032 355.311Z" fill="#FFBE9D"/>
<path d="M289.731 449.979C289.731 449.979 303.036 449.572 305.387 448.501C307.738 447.43 325.722 436.733 325.722 436.733L344.451 432.519C344.451 432.519 345.615 435.662 342.856 439.736C340.098 443.81 327.864 449.979 327.864 449.979C327.864 449.979 315.56 461.142 317.213 464.995C318.866 468.848 332.147 476.553 332.147 476.553L372.177 482.315C371.046 486.497 368.366 490.093 364.681 492.372L360.025 494.7C360.025 494.7 358.314 500.264 352.529 500.904C346.744 501.544 320.635 500.904 320.635 500.904L286.588 482.28L278.685 461.526L289.731 449.979Z" fill="#FFBE9D"/>
<path d="M322.987 493.001C323.462 492.942 323.943 492.942 324.418 493.001L328.318 493.373C331.6 493.676 336.152 494.06 341.18 494.316C346.208 494.572 350.771 494.653 354.077 494.677H357.988C358.467 494.647 358.948 494.675 359.42 494.758C358.949 494.858 358.469 494.909 357.988 494.91C357.069 494.979 355.73 495.038 354.077 495.073C350.771 495.166 346.197 495.154 341.145 494.898C336.093 494.642 331.554 494.2 328.271 493.734C326.63 493.536 325.303 493.338 324.395 493.187C323.921 493.169 323.449 493.107 322.987 493.001Z" fill="#EB996E"/>
<path d="M371.386 482.85C370.849 482.768 370.32 482.643 369.803 482.478C368.79 482.222 367.312 481.896 365.461 481.593L350.969 479.347C345.324 478.451 340.202 477.601 336.512 476.949L332.136 476.157C331.595 476.075 331.062 475.951 330.541 475.785C331.088 475.776 331.634 475.823 332.171 475.925L336.571 476.53C340.284 477.065 345.417 477.845 351.074 478.753C356.731 479.661 361.841 480.488 365.531 481.174C366.995 481.441 368.441 481.799 369.861 482.245C370.392 482.384 370.904 482.587 371.386 482.85Z" fill="#EB996E"/>
<path d="M455.543 376.123C455.543 376.123 455.112 382.793 449.153 396.714C443.193 410.636 412.056 438.432 412.056 438.432L396.004 412.964L455.543 376.123Z" fill="#FFBE9D"/>
<path d="M333.719 449.141C333.719 449.141 349.561 423.452 354.485 421.74C359.408 420.029 382.106 419.599 382.106 419.599L396.074 412.964L412.056 438.432C412.056 438.432 389.8 474.179 387.018 475.89C384.236 477.601 371.374 482.199 371.374 482.199L339.283 476.751L330.529 475.785L356.137 444.287C356.137 444.287 356.137 440.551 354.368 440.69C353.297 440.772 345.661 448.058 340.959 449.56C336.256 451.062 333.719 449.141 333.719 449.141Z" fill="#FFBE9D"/>
<path d="M366.928 451.131C366.736 451.57 366.494 451.984 366.206 452.365C365.717 453.157 364.949 454.251 363.96 455.566C358.759 462.467 352.365 468.38 345.079 473.026C343.694 473.899 342.53 474.574 341.716 475.005C341.308 475.256 340.875 475.463 340.423 475.622C340.78 475.305 341.17 475.028 341.587 474.796C342.367 474.307 343.485 473.632 344.835 472.665C351.925 467.865 358.254 462.026 363.61 455.345C364.635 454.065 365.449 453.017 365.997 452.272C366.263 451.858 366.576 451.476 366.928 451.131Z" fill="#EB996E"/>
<path d="M376.438 458.43C376.292 458.789 376.096 459.126 375.856 459.431C375.46 460.048 374.843 460.921 374.051 461.98C371.995 464.745 369.787 467.395 367.44 469.918C365.09 472.439 362.607 474.832 360.002 477.089C359.001 477.95 358.174 478.637 357.581 479.079C357.299 479.346 356.977 479.566 356.626 479.731C357.587 478.69 358.605 477.703 359.676 476.774C361.608 474.982 364.216 472.444 366.963 469.499C369.71 466.555 372.026 463.773 373.679 461.724C374.541 460.579 375.462 459.48 376.438 458.43Z" fill="#EB996E"/>
<path d="M379.255 470.698C377.275 472.752 375.155 474.665 372.911 476.425C370.792 478.341 368.54 480.103 366.171 481.698C370.269 477.729 374.64 474.053 379.255 470.698Z" fill="#EB996E"/>
<path d="M354.415 440.69C354.002 441.115 353.554 441.504 353.076 441.854C352.18 442.611 350.865 443.682 349.165 444.939C347.165 446.45 345.056 447.812 342.856 449.013C341.434 449.782 339.854 450.212 338.238 450.268C336.623 450.325 335.016 450.007 333.544 449.339L333.242 449.188L333.451 448.897L336.152 445.183L347.722 428.957C349.223 426.897 350.457 425.244 351.33 424.103L352.343 422.811C352.454 422.657 352.583 422.517 352.727 422.392C352.727 422.392 352.645 422.579 352.448 422.893L351.516 424.243C350.655 425.5 349.491 427.176 348.024 429.213C345.114 433.392 341.134 439.212 336.594 445.509L333.963 449.304L333.87 448.862C335.293 449.533 336.863 449.834 338.433 449.735C339.889 449.629 341.31 449.233 342.612 448.571C344.809 447.415 346.921 446.104 348.932 444.648C350.667 443.484 352.017 442.425 352.948 441.726C353.411 441.345 353.901 440.999 354.415 440.69Z" fill="#EB996E"/>
</svg>
