<svg width="54" height="54" viewBox="0 0 54 54" fill="none" xmlns="http://www.w3.org/2000/svg">
<path d="M47.5714 25.7143H43.7143V15.4286C43.7143 14.0646 43.1724 12.7565 42.208 11.792C41.2435 10.8275 39.9354 10.2857 38.5714 10.2857H28.2857V6.42857C28.2857 4.72361 27.6084 3.08848 26.4028 1.88288C25.1972 0.677294 23.5621 0 21.8571 0C20.1522 0 18.517 0.677294 17.3115 1.88288C16.1059 3.08848 15.4286 4.72361 15.4286 6.42857V10.2857H5.14286C3.77889 10.2857 2.47078 10.8275 1.50631 11.792C0.541835 12.7565 0 14.0646 0 15.4286V25.2H3.85714C7.71429 25.2 10.8 28.2857 10.8 32.1429C10.8 36 7.71429 39.0857 3.85714 39.0857H0V48.8571C0 50.2211 0.541835 51.5292 1.50631 52.4937C2.47078 53.4582 3.77889 54 5.14286 54H14.9143V50.1429C14.9143 46.2857 18 43.2 21.8571 43.2C25.7143 43.2 28.8 46.2857 28.8 50.1429V54H38.5714C39.9354 54 41.2435 53.4582 42.208 52.4937C43.1724 51.5292 43.7143 50.2211 43.7143 48.8571V38.5714H47.5714C49.2764 38.5714 50.9115 37.8941 52.1171 36.6885C53.3227 35.483 54 33.8478 54 32.1429C54 30.4379 53.3227 28.8028 52.1171 27.5972C50.9115 26.3916 49.2764 25.7143 47.5714 25.7143Z" fill="#4A3638"/>
</svg>
