<svg width="46" height="54" viewBox="0 0 46 54" fill="none" xmlns="http://www.w3.org/2000/svg">
<path d="M15.3333 5.14286V0H30.6667V5.14286H15.3333ZM20.4444 33.4286H25.5556V18H20.4444V33.4286ZM23 54C19.8481 54 16.8769 53.3897 14.0862 52.1691C11.2956 50.9486 8.85756 49.2874 6.77222 47.1857C4.68689 45.084 3.03685 42.63 1.82211 39.8237C0.607371 37.0174 0 34.0286 0 30.8571C0 27.6857 0.607371 24.696 1.82211 21.888C3.03685 19.08 4.68689 16.6269 6.77222 14.5286C8.85756 12.4303 11.2964 10.77 14.0888 9.54771C16.8811 8.32543 19.8516 7.71428 23 7.71428C25.6407 7.71428 28.175 8.14285 30.6028 9C33.0306 9.85714 35.3093 11.1 37.4389 12.7286L41.0167 9.12857L44.5944 12.7286L41.0167 16.3286C42.6352 18.4714 43.8704 20.7643 44.7222 23.2071C45.5741 25.65 46 28.2 46 30.8571C46 34.0286 45.3926 37.0183 44.1779 39.8263C42.9632 42.6343 41.3131 45.0874 39.2278 47.1857C37.1424 49.284 34.7036 50.9451 31.9112 52.1691C29.1189 53.3931 26.1484 54.0034 23 54Z" fill="#4A3638"/>
</svg>
