<svg width="54" height="49" viewBox="0 0 54 49" fill="none" xmlns="http://www.w3.org/2000/svg">
<path d="M27 0C28.302 0 29.5506 0.516248 30.4713 1.43518C31.3919 2.3541 31.9091 3.60044 31.9091 4.9C31.9091 6.713 30.9273 8.3055 29.4545 9.1385V12.25H31.9091C36.466 12.25 40.8363 14.0569 44.0585 17.2731C47.2807 20.4894 49.0909 24.8515 49.0909 29.4H51.5455C52.1964 29.4 52.8208 29.6581 53.2811 30.1176C53.7414 30.5771 54 31.2002 54 31.85V39.2C54 39.8498 53.7414 40.4729 53.2811 40.9324C52.8208 41.3919 52.1964 41.65 51.5455 41.65H49.0909V44.1C49.0909 45.3996 48.5737 46.6459 47.6531 47.5648C46.7324 48.4838 45.4838 49 44.1818 49H9.81818C8.51621 49 7.26756 48.4838 6.34693 47.5648C5.4263 46.6459 4.90909 45.3996 4.90909 44.1V41.65H2.45455C1.80356 41.65 1.17924 41.3919 0.71892 40.9324C0.258603 40.4729 0 39.8498 0 39.2V31.85C0 31.2002 0.258603 30.5771 0.71892 30.1176C1.17924 29.6581 1.80356 29.4 2.45455 29.4H4.90909C4.90909 24.8515 6.71931 20.4894 9.94153 17.2731C13.1637 14.0569 17.534 12.25 22.0909 12.25H24.5455V9.1385C23.0727 8.3055 22.0909 6.713 22.0909 4.9C22.0909 3.60044 22.6081 2.3541 23.5287 1.43518C24.4494 0.516248 25.698 0 27 0ZM15.9545 26.95C14.3271 26.95 12.7663 27.5953 11.6155 28.744C10.4647 29.8926 9.81818 31.4506 9.81818 33.075C9.81818 34.6995 10.4647 36.2574 11.6155 37.406C12.7663 38.5547 14.3271 39.2 15.9545 39.2C17.582 39.2 19.1428 38.5547 20.2936 37.406C21.4444 36.2574 22.0909 34.6995 22.0909 33.075C22.0909 31.4506 21.4444 29.8926 20.2936 28.744C19.1428 27.5953 17.582 26.95 15.9545 26.95ZM38.0455 26.95C36.418 26.95 34.8572 27.5953 33.7064 28.744C32.5556 29.8926 31.9091 31.4506 31.9091 33.075C31.9091 34.6995 32.5556 36.2574 33.7064 37.406C34.8572 38.5547 36.418 39.2 38.0455 39.2C39.6729 39.2 41.2337 38.5547 42.3845 37.406C43.5353 36.2574 44.1818 34.6995 44.1818 33.075C44.1818 31.4506 43.5353 29.8926 42.3845 28.744C41.2337 27.5953 39.6729 26.95 38.0455 26.95Z" fill="#4A3638"/>
</svg>
