<svg width="55" height="70" viewBox="0 0 55 70" fill="none" xmlns="http://www.w3.org/2000/svg">
<path d="M30 2.5C30 1.83696 29.7366 1.20107 29.2678 0.732233C28.7989 0.263392 28.163 0 27.5 0C26.837 0 26.2011 0.263392 25.7322 0.732233C25.2634 1.20107 25 1.83696 25 2.5V5H13.125C10.9701 5 8.90349 5.85602 7.37976 7.37976C5.85602 8.90349 5 10.9701 5 13.125V26.875C5 29.0299 5.85602 31.0965 7.37976 32.6202C8.90349 34.144 10.9701 35 13.125 35H41.875C44.0299 35 46.0965 34.144 47.6202 32.6202C49.144 31.0965 50 29.0299 50 26.875V13.125C50 10.9701 49.144 8.90349 47.6202 7.37976C46.0965 5.85602 44.0299 5 41.875 5H30V2.5ZM8.125 42.5C5.97012 42.5 3.90349 43.356 2.37976 44.8798C0.856024 46.4035 0 48.4701 0 50.625V51.75C0 57.175 2.6925 61.8575 7.5325 65.08C12.3 68.255 19.085 70 27.5 70C35.915 70 42.7 68.255 47.4675 65.08C52.3075 61.855 55 57.1775 55 51.75V50.625C55 48.4701 54.144 46.4035 52.6202 44.8798C51.0965 43.356 49.0299 42.5 46.875 42.5H8.125ZM18.75 24.375C18.1755 24.375 17.6066 24.2618 17.0758 24.042C16.545 23.8221 16.0627 23.4998 15.6564 23.0936C15.2502 22.6873 14.9279 22.205 14.708 21.6742C14.4882 21.1434 14.375 20.5745 14.375 20C14.375 19.4255 14.4882 18.8566 14.708 18.3258C14.9279 17.795 15.2502 17.3127 15.6564 16.9064C16.0627 16.5002 16.545 16.1779 17.0758 15.958C17.6066 15.7382 18.1755 15.625 18.75 15.625C19.9103 15.625 21.0231 16.0859 21.8436 16.9064C22.6641 17.7269 23.125 18.8397 23.125 20C23.125 21.1603 22.6641 22.2731 21.8436 23.0936C21.0231 23.9141 19.9103 24.375 18.75 24.375ZM40.625 20C40.625 21.1603 40.1641 22.2731 39.3436 23.0936C38.5231 23.9141 37.4103 24.375 36.25 24.375C35.0897 24.375 33.9769 23.9141 33.1564 23.0936C32.3359 22.2731 31.875 21.1603 31.875 20C31.875 18.8397 32.3359 17.7269 33.1564 16.9064C33.9769 16.0859 35.0897 15.625 36.25 15.625C37.4103 15.625 38.5231 16.0859 39.3436 16.9064C40.1641 17.7269 40.625 18.8397 40.625 20Z" fill="#760202"/>
</svg>
